<svg width="1280" height="250" viewBox="0 0 1280 250" fill="none" xmlns="http://www.w3.org/2000/svg">
  <g clip-path="url(#clip0_22_133)">
    <rect width="1280" height="250" fill="white" />
    <g clip-path="url(#clip1_22_133)">
      <rect width="1728" height="1117" transform="translate(-224 -433)" fill="#004F49" />
      <path d="M-363.131 -230.442C1566.1 -179.303 1600.38 692.785 1600.38 692.785"
        stroke="url(#paint0_linear_22_133)" stroke-width="2" stroke-miterlimit="10" />
      <path
        d="M1584.92 693.239C1579.86 693.239 1583.79 266.129 940.054 -13.5963C761.003 -91.4022 528.883 -151.634 248.989 -187.826C68.6197 -211.149 -134.661 -232.478 -363.131 -240.083"
        stroke="url(#paint1_linear_22_133)" stroke-width="2" stroke-miterlimit="10" />
      <path
        d="M1569.45 693.703C1559.35 693.703 1583.81 259.484 952.258 -25.3472C771.404 -106.908 531.151 -163.723 254.495 -194.777C71.5417 -215.315 -133.743 -240.537 -363.131 -249.714"
        stroke="url(#paint2_linear_22_133)" stroke-width="2" stroke-miterlimit="10" />
      <path
        d="M1553.99 694.167C1538.83 694.167 1583.9 252.374 964.453 -37.0984C781.763 -122.468 533.314 -175.621 259.991 -201.729C74.3792 -219.451 -132.815 -248.586 -363.131 -259.334"
        stroke="url(#paint3_linear_22_133)" stroke-width="2" stroke-miterlimit="10" />
      <path
        d="M1538.53 694.621C1518.32 694.621 1584.1 244.822 976.668 -48.8492C792.09 -138.079 535.424 -187.33 265.519 -208.68C77.1433 -223.575 -131.886 -256.644 -363.12 -268.965"
        stroke="url(#paint4_linear_22_133)" stroke-width="2" stroke-miterlimit="10" />
      <path
        d="M1523.07 695.085C1497.81 695.085 1584.4 236.847 988.872 -60.6003C802.385 -153.754 537.448 -198.849 271.025 -215.632C79.8116 -227.678 -130.969 -264.704 -363.131 -278.596"
        stroke="url(#paint5_linear_22_133)" stroke-width="2" stroke-miterlimit="10" />
      <path
        d="M1507.61 695.549C1477.29 695.549 1584.79 228.471 1001.08 -72.3517C812.638 -169.472 539.4 -210.189 276.531 -222.584C82.4066 -231.74 -130.051 -272.763 -363.131 -288.227"
        stroke="url(#paint6_linear_22_133)" stroke-width="2" stroke-miterlimit="10" />
      <path
        d="M1492.14 696.003C1456.78 696.003 1585.29 219.695 1013.28 -84.1127C822.86 -185.252 541.288 -221.349 282.037 -229.545C84.9277 -235.779 -129.133 -280.822 -363.131 -297.868"
        stroke="url(#paint7_linear_22_133)" stroke-width="2" stroke-miterlimit="10" />
      <path
        d="M1476.68 696.467C1436.27 696.467 1585.89 210.56 1025.48 -95.8534C833.06 -201.064 543.124 -232.309 287.544 -236.486C87.375 -239.756 -128.216 -288.87 -363.131 -307.488"
        stroke="url(#paint8_linear_22_133)" stroke-width="2" stroke-miterlimit="10" />
      <path
        d="M1461.21 696.92C1415.75 696.92 1586.6 201.066 1037.68 -107.615C843.25 -216.95 544.907 -243.111 293.05 -243.448C89.77 -243.712 -127.287 -296.94 -363.141 -317.119"
        stroke="url(#paint9_linear_22_133)" stroke-width="2" stroke-miterlimit="10" />
      <path
        d="M1445.76 697.384C1395.24 697.384 1587.45 191.245 1049.9 -119.366C853.429 -232.89 546.668 -253.733 298.567 -250.4C92.1218 -247.615 -126.359 -304.999 -363.131 -326.75"
        stroke="url(#paint10_linear_22_133)" stroke-width="2" stroke-miterlimit="10" />
      <path
        d="M1430.3 697.848C1374.73 697.848 1588.39 181.098 1062.1 -131.117C863.599 -248.881 548.377 -264.197 304.084 -257.351C94.4218 -251.476 -125.43 -313.048 -363.12 -336.381"
        stroke="url(#paint11_linear_22_133)" stroke-width="2" stroke-miterlimit="10" />
      <path
        d="M1414.83 698.302C1354.21 698.302 1589.45 170.644 1074.29 -142.869C873.746 -264.926 550.043 -274.493 309.579 -264.303C96.6471 -255.274 -124.524 -321.107 -363.131 -346.001"
        stroke="url(#paint12_linear_22_133)" stroke-width="2" stroke-miterlimit="10" />
      <path
        d="M1399.37 698.766C1333.69 698.766 1590.62 159.916 1086.5 -154.62C883.904 -281.022 551.7 -284.63 315.086 -271.254C98.8412 -259.018 -123.595 -329.166 -363.131 -355.632"
        stroke="url(#paint13_linear_22_133)" stroke-width="2" stroke-miterlimit="10" />
      <path
        d="M1383.9 699.22C1313.18 699.22 1591.92 148.893 1098.7 -166.381C894.062 -297.193 553.335 -294.64 320.603 -278.216C101.004 -262.71 -122.678 -337.225 -363.131 -365.263"
        stroke="url(#paint14_linear_22_133)" stroke-width="2" stroke-miterlimit="10" />
      <path
        d="M1368.44 699.684C1292.66 699.684 1593.32 137.627 1110.91 -178.121C904.231 -313.395 554.949 -304.471 326.109 -285.157C103.124 -266.328 -121.749 -345.273 -363.131 -374.893"
        stroke="url(#paint15_linear_22_133)" stroke-width="2" stroke-miterlimit="10" />
      <path
        d="M1352.99 700.148C1272.15 700.148 1594.85 126.119 1123.11 -189.872C914.41 -329.672 556.541 -314.187 331.615 -292.108C105.223 -269.883 -120.832 -353.332 -363.131 -384.524"
        stroke="url(#paint16_linear_22_133)" stroke-width="2" stroke-miterlimit="10" />
      <path
        d="M1337.52 700.601C1251.64 700.601 1596.49 114.368 1135.32 -201.634C924.6 -346.022 558.134 -323.765 337.122 -299.071C107.291 -273.375 -119.914 -361.392 -363.131 -394.155"
        stroke="url(#paint17_linear_22_133)" stroke-width="2" stroke-miterlimit="10" />
      <path
        d="M1322.06 701.066C1231.12 701.066 1598.24 102.416 1147.52 -213.385C934.811 -362.425 559.716 -333.216 342.638 -306.022C109.337 -276.792 -118.986 -369.45 -363.131 -403.786"
        stroke="url(#paint18_linear_22_133)" stroke-width="2" stroke-miterlimit="10" />
      <path
        d="M1306.59 701.53C1210.61 701.53 1600.1 90.2541 1159.73 -225.125C945.043 -378.87 561.299 -342.53 348.145 -312.963C111.373 -280.125 -118.068 -377.509 -363.131 -413.417"
        stroke="url(#paint19_linear_22_133)" stroke-width="2" stroke-miterlimit="10" />
      <path
        d="M1291.13 701.984C1190.1 701.984 1602.07 77.8808 1171.92 -236.887C955.307 -395.41 562.87 -351.75 353.641 -319.925C113.398 -283.374 -117.14 -385.568 -363.131 -423.047"
        stroke="url(#paint20_linear_22_133)" stroke-width="2" stroke-miterlimit="10" />
      <path
        d="M1275.67 702.447C1169.58 702.447 1604.15 65.3382 1184.13 -248.638C965.602 -411.993 564.463 -360.843 359.158 -326.877C115.423 -286.539 -116.222 -393.628 -363.131 -432.678"
        stroke="url(#paint21_linear_22_133)" stroke-width="2" stroke-miterlimit="10" />
      <path
        d="M1260.21 702.901C1149.07 702.901 1606.34 52.6168 1196.34 -260.4C975.94 -428.659 566.067 -369.851 364.674 -333.839C117.438 -289.609 -115.304 -401.676 -363.131 -442.309"
        stroke="url(#paint22_linear_22_133)" stroke-width="2" stroke-miterlimit="10" />
      <path
        d="M1244.75 703.366C1128.56 703.366 1608.63 39.7478 1208.55 -272.14C986.32 -445.368 567.67 -378.733 370.181 -340.779C119.464 -292.594 -114.376 -409.735 -363.131 -451.94"
        stroke="url(#paint23_linear_22_133)" stroke-width="2" stroke-miterlimit="10" />
      <path
        d="M1229.28 703.83C1108.04 703.83 1611.03 26.7205 1220.74 -283.891C996.731 -462.161 569.274 -387.53 375.687 -347.731C121.499 -295.473 -113.458 -417.794 -363.131 -461.57"
        stroke="url(#paint24_linear_22_133)" stroke-width="2" stroke-miterlimit="10" />
      <path
        d="M1213.82 704.283C1087.52 704.283 1613.53 13.5345 1232.94 -295.653C1007.21 -479.039 570.898 -396.244 381.193 -354.693C123.546 -298.248 -112.53 -425.853 -363.131 -471.202"
        stroke="url(#paint25_linear_22_133)" stroke-width="2" stroke-miterlimit="10" />
      <path
        d="M1198.36 704.747C1067.01 704.747 1616.14 0.233145 1245.15 -307.404C1017.73 -495.98 572.543 -404.862 386.7 -361.644C125.624 -300.916 -111.612 -433.912 -363.131 -480.821"
        stroke="url(#paint26_linear_22_133)" stroke-width="2" stroke-miterlimit="10" />
      <path
        d="M1182.89 705.201C1046.49 705.201 1618.85 -13.1955 1257.35 -319.155C1028.33 -512.995 574.21 -413.396 392.206 -368.596C127.712 -303.47 -110.695 -441.972 -363.131 -490.453"
        stroke="url(#paint27_linear_22_133)" stroke-width="2" stroke-miterlimit="10" />
      <path
        d="M1167.44 705.665C1025.98 705.665 1621.68 -26.7398 1269.56 -330.906C1038.99 -530.083 575.887 -421.856 397.723 -375.548C129.843 -305.906 -109.766 -450.031 -363.131 -500.083"
        stroke="url(#paint28_linear_22_133)" stroke-width="2" stroke-miterlimit="10" />
      <path
        d="M1151.97 706.129C1005.47 706.129 1624.58 -40.3788 1281.76 -342.657C1049.73 -547.246 577.596 -430.252 403.229 -382.499C132.016 -308.216 -108.849 -458.09 -363.131 -509.714"
        stroke="url(#paint29_linear_22_133)" stroke-width="2" stroke-miterlimit="10" />
      <path
        d="M1136.51 706.583C984.948 706.583 1627.6 -54.1337 1293.97 -354.408C1060.54 -564.503 579.337 -438.564 408.736 -389.45C134.221 -310.399 -107.92 -466.138 -363.131 -519.344"
        stroke="url(#paint30_linear_22_133)" stroke-width="2" stroke-miterlimit="10" />
      <path
        d="M1121.05 707.047C964.442 707.047 1630.7 -67.974 1306.17 -366.159C1071.44 -581.834 581.088 -446.824 414.252 -396.402C136.489 -312.446 -107.003 -474.197 -363.131 -528.976"
        stroke="url(#paint31_linear_22_133)" stroke-width="2" stroke-miterlimit="10" />
      <path
        d="M1105.58 707.511C943.925 707.511 1633.9 -81.8873 1318.37 -377.91C1082.43 -599.26 582.87 -455.031 419.748 -403.353C138.81 -314.355 -106.074 -482.256 -363.131 -538.606"
        stroke="url(#paint32_linear_22_133)" stroke-width="2" stroke-miterlimit="10" />
      <path
        d="M1090.13 707.965C923.419 707.965 1637.22 -95.8851 1330.58 -389.672C1093.53 -616.781 584.706 -463.184 425.265 -410.315C141.204 -316.107 -105.157 -490.315 -363.131 -548.237"
        stroke="url(#paint33_linear_22_133)" stroke-width="2" stroke-miterlimit="10" />
      <path
        d="M1074.66 708.429C902.902 708.429 1640.62 -109.946 1342.79 -401.412C1104.74 -634.376 586.562 -471.264 430.771 -417.256C143.662 -317.71 -104.239 -498.374 -363.131 -557.868"
        stroke="url(#paint34_linear_22_133)" stroke-width="2" stroke-miterlimit="10" />
      <path
        d="M1059.2 708.882C882.385 708.882 1644.11 -124.082 1354.99 -413.174C1116.06 -652.088 588.451 -479.324 436.288 -424.219C146.215 -319.166 -103.311 -506.434 -363.131 -567.499"
        stroke="url(#paint35_linear_22_133)" stroke-width="2" stroke-miterlimit="10" />
      <path
        d="M1043.74 709.346C861.868 709.346 1647.71 -138.248 1367.18 -424.925C1127.49 -669.883 590.371 -487.32 441.784 -431.17C148.852 -320.442 -102.393 -514.493 -363.131 -577.13"
        stroke="url(#paint36_linear_22_133)" stroke-width="2" stroke-miterlimit="10" />
      <path
        d="M1028.27 709.811C841.351 709.811 1651.4 -152.467 1379.39 -436.676C1139.06 -687.773 592.332 -495.284 447.29 -438.121C151.584 -321.549 -101.465 -522.541 -363.131 -586.76"
        stroke="url(#paint37_linear_22_133)" stroke-width="2" stroke-miterlimit="10" />
      <path
        d="M1012.81 710.264C820.834 710.264 1655.19 -166.729 1391.59 -448.427C1150.79 -705.779 594.347 -503.216 452.807 -445.073C154.432 -322.488 -100.547 -530.6 -363.131 -596.391"
        stroke="url(#paint38_linear_22_133)" stroke-width="2" stroke-miterlimit="10" />
      <path
        d="M997.353 710.728C800.328 710.728 1659.08 -181.012 1403.81 -460.178C1162.67 -723.881 596.404 -511.117 458.324 -452.024C157.396 -323.238 -99.6292 -538.659 -363.131 -606.022"
        stroke="url(#paint39_linear_22_133)" stroke-width="2" stroke-miterlimit="10" />
      <path
        d="M981.889 711.193C779.811 711.193 1663.07 -195.315 1416.01 -471.929C1174.72 -742.098 598.514 -518.986 463.83 -458.976C160.497 -323.807 -98.7009 -546.718 -363.131 -615.642"
        stroke="url(#paint40_linear_22_133)" stroke-width="2" stroke-miterlimit="10" />
      <path
        d="M966.425 711.646C759.294 711.646 1667.14 -209.641 1428.21 -483.681C1186.92 -760.421 600.645 -526.835 469.337 -465.927C163.736 -324.176 -97.7832 -554.778 -363.131 -625.273"
        stroke="url(#paint41_linear_22_133)" stroke-width="2" stroke-miterlimit="10" />
      <path
        d="M950.961 712.11C738.777 712.11 1671.33 -223.976 1440.41 -495.431C1199.33 -778.849 602.849 -534.661 474.843 -472.879C167.132 -324.345 -96.8549 -562.836 -363.131 -634.904"
        stroke="url(#paint42_linear_22_133)" stroke-width="2" stroke-miterlimit="10" />
      <path
        d="M935.497 712.564C718.271 712.564 1675.6 -238.311 1452.62 -507.193C1211.93 -797.414 605.107 -542.488 480.349 -479.841C170.698 -324.313 -95.9372 -570.895 -363.131 -644.535"
        stroke="url(#paint43_linear_22_133)" stroke-width="2" stroke-miterlimit="10" />
      <path
        d="M920.033 713.028C697.754 713.028 1679.99 -252.625 1464.82 -518.944C1224.75 -816.085 607.417 -550.294 485.856 -486.792C174.432 -324.071 -95.0195 -578.944 -363.131 -654.165"
        stroke="url(#paint44_linear_22_133)" stroke-width="2" stroke-miterlimit="10" />
      <path
        d="M904.579 713.492C677.248 713.492 1684.48 -266.929 1477.03 -530.684C1237.79 -834.861 609.78 -558.089 491.373 -493.733C178.367 -323.617 -94.0912 -587.003 -363.131 -663.796"
        stroke="url(#paint45_linear_22_133)" stroke-width="2" stroke-miterlimit="10" />
      <path
        d="M889.115 713.946C656.731 713.946 1689.07 -281.212 1489.23 -542.446C1251.08 -853.786 612.216 -565.895 496.879 -500.695C182.502 -322.953 -93.1735 -595.062 -363.131 -673.427"
        stroke="url(#paint46_linear_22_133)" stroke-width="2" stroke-miterlimit="10" />
      <path
        d="M873.651 714.41C636.214 714.41 1693.76 -295.442 1501.44 -554.197C1264.61 -872.815 614.706 -573.701 502.385 -507.646C186.858 -322.077 -92.2452 -603.121 -363.131 -683.058"
        stroke="url(#paint47_linear_22_133)" stroke-width="2" stroke-miterlimit="10" />
      <path
        d="M858.187 714.863C615.697 714.863 1698.56 -309.651 1513.64 -565.958C1278.43 -891.971 617.269 -581.518 507.902 -514.608C191.447 -320.99 -91.3275 -611.18 -363.131 -692.688"
        stroke="url(#paint48_linear_22_133)" stroke-width="2" stroke-miterlimit="10" />
      <path
        d="M842.722 715.327C595.18 715.327 1703.46 -323.786 1525.83 -577.699C1292.51 -911.233 619.885 -589.324 513.398 -521.55C196.278 -319.683 -90.4097 -619.239 -363.131 -702.319"
        stroke="url(#paint49_linear_22_133)" stroke-width="2" stroke-miterlimit="10" />
      <path
        d="M827.259 715.792C574.664 715.792 1708.47 -337.868 1538.04 -589.45C1306.92 -930.61 622.575 -597.161 518.904 -528.501C201.362 -318.174 -89.4814 -627.298 -363.131 -711.95"
        stroke="url(#paint50_linear_22_133)" stroke-width="2" stroke-miterlimit="10" />
      <path
        d="M811.805 716.245C554.157 716.245 1713.61 -351.876 1550.25 -601.212C1321.66 -950.125 625.36 -605.03 524.421 -535.463C206.721 -316.454 -88.5637 -635.347 -363.131 -721.581"
        stroke="url(#paint51_linear_22_133)" stroke-width="2" stroke-miterlimit="10" />
    </g>
    <path fill-rule="evenodd" clip-rule="evenodd"
      d="M124.545 87.8735H196.057C216.434 87.8735 233.011 104.365 233.011 124.636C233.011 144.906 216.434 161.398 196.057 161.398H124.545C104.168 161.398 87.5912 144.906 87.5912 124.636C87.5912 104.365 104.168 87.8735 124.545 87.8735ZM157.378 144.86C158.276 145.796 159.605 145.75 160.782 145.507L160.794 145.513C161.34 145.072 160.563 144.514 159.821 143.981C159.377 143.662 158.944 143.351 158.818 143.08C159.228 142.584 158.014 141.457 157.068 140.579C156.671 140.211 156.322 139.886 156.16 139.671C155.487 138.945 155.217 138.029 154.945 137.108C154.764 136.496 154.583 135.882 154.283 135.32C152.435 131.067 150.319 126.849 147.353 123.249C145.446 120.856 143.27 118.714 141.093 116.57C139.69 115.188 138.286 113.806 136.954 112.357C135.584 110.954 134.759 109.226 133.933 107.495C133.241 106.046 132.548 104.595 131.534 103.331C128.462 98.8236 118.763 97.5928 117.341 103.961C117.347 104.157 117.282 104.284 117.108 104.411C116.321 104.983 115.621 105.631 115.033 106.416C113.593 108.41 113.371 111.79 115.167 113.582C115.169 113.543 115.172 113.505 115.174 113.467C115.234 112.562 115.29 111.717 116.012 111.068C117.399 112.253 119.503 112.674 121.112 111.79C123.052 114.549 123.669 117.883 124.289 121.229C124.806 124.016 125.324 126.811 126.608 129.287C126.635 129.331 126.661 129.375 126.688 129.419C127.443 130.665 128.21 131.932 129.179 133.02C129.531 133.561 130.253 134.144 130.974 134.727C131.925 135.496 132.875 136.262 132.967 136.926C132.972 137.215 132.97 137.508 132.969 137.803C132.962 139.546 132.954 141.352 134.081 142.786C134.704 144.04 133.177 145.299 131.947 145.143C131.273 145.236 130.536 145.06 129.805 144.885C128.804 144.646 127.813 144.409 127.005 144.866C126.778 145.109 126.452 145.118 126.125 145.126C125.737 145.136 125.347 145.147 125.116 145.548C125.069 145.667 124.958 145.802 124.843 145.942C124.59 146.249 124.316 146.582 124.644 146.836C124.674 146.814 124.703 146.792 124.732 146.77C125.23 146.394 125.704 146.035 126.375 146.259C126.286 146.75 126.606 146.882 126.927 147.014C126.982 147.037 127.038 147.06 127.092 147.085C127.089 147.199 127.066 147.314 127.043 147.429C126.99 147.702 126.937 147.97 127.15 148.206C127.252 148.104 127.342 147.989 127.431 147.874C127.651 147.592 127.872 147.309 128.27 147.206C129.143 148.363 130.024 147.883 131.128 147.28C132.374 146.6 133.905 145.764 136.033 146.946C135.217 146.906 134.489 147.004 133.941 147.674C133.807 147.825 133.69 147.998 133.929 148.194C135.189 147.385 135.713 147.676 136.206 147.95C136.562 148.147 136.902 148.336 137.491 148.096C137.63 148.024 137.769 147.95 137.908 147.875C138.854 147.369 139.813 146.857 140.935 147.033C140.097 147.273 139.798 147.8 139.473 148.375C139.312 148.659 139.144 148.955 138.901 149.234C138.773 149.362 138.715 149.512 138.86 149.726C140.616 149.581 141.28 149.14 142.176 148.543C142.604 148.259 143.084 147.939 143.762 147.599C144.511 147.142 145.261 147.434 145.987 147.718C146.775 148.025 147.535 148.322 148.239 147.64C148.461 147.432 148.74 147.429 149.017 147.427C149.118 147.426 149.219 147.425 149.317 147.414C149.098 146.251 147.863 146.265 146.609 146.279C145.159 146.295 143.683 146.311 143.727 144.508C145.075 143.595 145.087 142.012 145.099 140.515C145.102 140.154 145.105 139.798 145.126 139.457C146.117 140.005 147.166 140.433 148.207 140.859C149.187 141.259 150.162 141.657 151.077 142.15C152.033 143.676 153.525 145.698 155.513 145.565C155.565 145.409 155.612 145.276 155.67 145.12C155.785 145.14 155.906 145.17 156.029 145.201C156.55 145.332 157.109 145.473 157.378 144.86ZM196.334 127.524C197.485 128.662 199.046 129.302 200.673 129.302C202.301 129.302 203.862 128.662 205.012 127.524C206.163 126.386 206.81 124.842 206.81 123.233C206.81 121.623 206.163 120.079 205.012 118.941C203.862 117.803 202.301 117.164 200.673 117.164C199.911 117.164 199.163 117.304 198.465 117.57L194.948 112.48L192.497 114.145L196.032 119.262C195.071 120.361 194.536 121.769 194.536 123.233C194.536 124.842 195.183 126.386 196.334 127.524ZM185.322 111.041C186.183 111.462 187.132 111.678 188.093 111.671C189.404 111.661 190.677 111.236 191.726 110.458C192.776 109.68 193.545 108.591 193.923 107.349C194.3 106.107 194.265 104.778 193.824 103.557C193.382 102.337 192.556 101.288 191.468 100.564C190.671 100.034 189.758 99.697 188.805 99.5795C187.851 99.4619 186.883 99.5675 185.978 99.8876C185.073 100.208 184.257 100.734 183.596 101.423C182.934 102.112 182.445 102.945 182.169 103.855C181.892 104.765 181.835 105.727 182.003 106.663C182.171 107.598 182.559 108.482 183.135 109.242C183.712 110.003 184.461 110.619 185.322 111.041ZM185.322 146.283C186.183 146.705 187.132 146.921 188.093 146.913C189.404 146.903 190.677 146.478 191.726 145.701C192.776 144.923 193.545 143.833 193.923 142.591C194.3 141.35 194.265 140.021 193.824 138.8C193.382 137.579 192.556 136.53 191.468 135.807C190.671 135.277 189.758 134.94 188.805 134.822C187.851 134.704 186.883 134.81 185.978 135.13C185.073 135.45 184.257 135.976 183.596 136.665C182.934 137.354 182.445 138.188 182.169 139.098C181.892 140.008 181.835 140.969 182.003 141.905C182.171 142.841 182.559 143.725 183.135 144.485C183.712 145.245 184.461 145.861 185.322 146.283ZM190.964 124.742V121.724H181.571C181.335 120.809 180.884 119.962 180.256 119.25L183.789 114.06L181.219 112.37L177.686 117.56C177.038 117.328 176.355 117.206 175.666 117.198C174.044 117.198 172.487 117.834 171.34 118.966C170.192 120.098 169.548 121.632 169.548 123.233C169.548 124.833 170.192 126.368 171.34 127.5C172.487 128.632 174.044 129.268 175.666 129.268C176.355 129.26 177.038 129.138 177.686 128.906L181.219 134.096L183.759 132.406L180.256 127.216C180.884 126.504 181.335 125.657 181.571 124.742H190.964Z"
      fill="#F1E9EA" />
    <path
      d="M435.278 105.503C432.089 102.99 427.694 101.719 422.215 101.719C418.264 101.719 414.667 102.643 411.526 104.463C408.384 106.283 405.872 108.942 404.065 112.357C402.252 115.777 401.337 119.955 401.337 124.78C401.337 128.461 401.879 131.772 402.952 134.621C404.018 137.464 405.528 139.896 407.428 141.855C409.328 143.808 411.566 145.311 414.084 146.322C416.602 147.333 419.342 147.842 422.221 147.842C426.523 147.842 430.265 146.911 433.348 145.08C436.432 143.248 438.827 140.682 440.482 137.452C442.138 134.216 442.977 130.466 442.977 126.3C442.977 126.179 442.965 125.797 442.948 125.156C442.931 124.641 442.907 124.22 442.878 123.908H427.327V129.339H435.312L435.278 129.588C434.899 132.171 434.153 134.355 433.057 136.083C431.955 137.816 430.51 139.128 428.773 139.977C427.036 140.827 424.972 141.249 422.693 141.225C419.639 141.185 417.051 140.474 415.011 139.111C412.971 137.747 411.421 135.823 410.407 133.378C409.398 130.951 408.885 128.056 408.885 124.774C408.885 121.492 409.404 118.58 410.418 116.124C411.444 113.657 412.989 111.709 415.023 110.346C417.057 108.982 419.645 108.312 422.693 108.352C425.736 108.352 428.277 109.167 430.247 110.773C432.171 112.339 433.581 114.448 434.456 117.043L441.736 115.899C440.587 111.467 438.419 107.965 435.278 105.492V105.503Z"
      fill="#F1E9EA" />
    <path
      d="M529.784 114.986C527.435 113.443 524.666 112.674 521.472 112.674C518.278 112.674 515.562 113.443 513.382 114.986C512.933 115.303 512.519 115.644 512.117 116.008V113.605H505.449V162.022H513.056V145.421C513.19 145.525 513.324 145.629 513.464 145.727C515.696 147.281 518.459 148.056 521.758 148.056C524.865 148.056 527.581 147.281 529.895 145.727C532.209 144.172 534.004 142.063 535.28 139.394C536.551 136.724 537.192 133.714 537.192 130.362C537.192 127.011 536.545 123.942 535.251 121.284C533.957 118.626 532.139 116.529 529.79 114.986H529.784ZM528.28 135.938C527.662 137.602 526.718 138.926 525.448 139.896C524.177 140.867 522.557 141.353 520.592 141.353C518.628 141.353 516.932 140.89 515.69 139.972C514.449 139.053 513.539 137.764 512.968 136.106C512.391 134.453 512.106 132.535 512.106 130.362C512.106 128.189 512.391 126.248 512.968 124.607C513.539 122.96 514.437 121.677 515.644 120.758C516.856 119.84 518.418 119.377 520.342 119.377C522.364 119.377 524.037 119.868 525.348 120.851C526.666 121.833 527.633 123.156 528.263 124.826C528.886 126.49 529.201 128.34 529.201 130.368C529.201 132.396 528.892 134.274 528.28 135.938Z"
      fill="#F1E9EA" />
    <path
      d="M572.193 125.26C572.059 123.965 571.762 122.596 571.301 121.145C570.841 119.695 570.13 118.331 569.174 117.049C568.212 115.766 566.918 114.708 565.292 113.882C563.666 113.056 561.596 112.64 559.096 112.64C555.925 112.64 553.25 113.327 551.082 114.703C549.916 115.442 548.907 116.32 548.045 117.332V102.429H541.313V147.119H548.954V129.894C548.954 127.848 549.181 126.167 549.642 124.849C550.102 123.538 550.709 122.503 551.472 121.746C552.236 120.989 553.087 120.458 554.025 120.146C554.963 119.834 555.914 119.678 556.875 119.678C558.671 119.678 560.093 120.059 561.148 120.828C562.203 121.596 562.995 122.573 563.526 123.763C564.056 124.953 564.394 126.19 564.546 127.473C564.691 128.756 564.767 129.923 564.767 130.98V147.119H572.409V128.403C572.409 127.594 572.339 126.548 572.205 125.254L572.193 125.26Z"
      fill="#F1E9EA" />
    <path
      d="M465.336 113.899C464.299 113.969 463.279 114.165 462.294 114.477C461.308 114.789 460.405 115.223 459.595 115.76C458.639 116.344 457.817 117.089 457.141 117.979C456.844 118.372 456.57 118.794 456.302 119.262L456.022 119.753V114.038H449.733V146.848H456.92V130.166C456.92 128.894 457.077 127.687 457.386 126.583C457.701 125.479 458.19 124.474 458.849 123.607C459.507 122.735 460.37 122.012 461.419 121.452C462.457 120.834 463.652 120.464 464.957 120.36C466.175 120.262 467.277 120.342 468.239 120.591V114.015C467.3 113.871 466.327 113.83 465.336 113.899Z"
      fill="#F1E9EA" />
    <path d="M262.685 102.348V146.94H293.664V140.203H269.72V102.348H262.685Z" fill="#F1E9EA" />
    <path
      d="M310.183 112.929C303.433 112.929 298.38 116.066 296.328 121.538C296.194 121.891 295.803 122.943 295.803 122.943L301.591 126.652L302.378 124.618C303.719 121.151 306.202 119.539 310.183 119.539C314.164 119.539 316.443 121.452 316.402 125.225C316.402 125.381 316.39 125.843 316.39 125.843C316.39 125.843 311.121 126.693 308.953 127.144C299.691 129.085 295.809 132.587 295.809 138.325C295.809 141.382 297.523 144.687 300.647 146.542C302.524 147.657 304.972 148.073 307.67 148.073C309.448 148.073 311.173 147.813 312.776 147.328C316.413 146.131 317.422 143.78 317.422 143.78V146.854H323.443V124.861C323.443 117.384 318.488 112.923 310.188 112.923L310.183 112.929ZM316.419 136.401C316.419 138.712 313.878 141.965 307.962 141.965C306.295 141.965 305.106 141.526 304.319 140.873C303.264 140 302.914 138.741 303.06 137.637C303.124 137.158 303.415 136.117 304.505 135.216C305.619 134.291 307.583 133.638 310.62 132.98C313.12 132.442 316.419 131.847 316.419 131.847V136.401Z"
      fill="#F1E9EA" />
    <path
      d="M486.407 112.929C479.657 112.929 474.604 116.066 472.552 121.538C472.418 121.891 472.027 122.943 472.027 122.943L477.815 126.652L478.602 124.618C479.943 121.151 482.426 119.539 486.407 119.539C490.388 119.539 492.667 121.452 492.626 125.225C492.626 125.381 492.614 125.843 492.614 125.843C492.614 125.843 487.345 126.693 485.177 127.144C475.915 129.085 472.033 132.587 472.033 138.325C472.033 141.382 473.747 144.687 476.871 146.542C478.748 147.657 481.196 148.073 483.894 148.073C485.672 148.073 487.397 147.813 489 147.328C492.637 146.131 493.646 143.78 493.646 143.78V146.854H499.667V124.861C499.667 117.384 494.712 112.923 486.412 112.923L486.407 112.929ZM492.643 136.401C492.643 138.712 490.102 141.965 484.186 141.965C482.519 141.965 481.33 141.526 480.543 140.873C479.488 140 479.138 138.741 479.284 137.637C479.348 137.158 479.64 136.117 480.729 135.216C481.843 134.291 483.807 133.638 486.844 132.98C489.344 132.442 492.643 131.847 492.643 131.847V136.401Z"
      fill="#F1E9EA" />
    <path
      d="M345.685 112.929C344.846 112.929 344.03 112.986 343.243 113.096C337.851 113.899 336.272 116.615 336.272 116.615V113.899H329.528V146.871H336.563V128.582C336.563 122.371 341.133 119.539 345.382 119.539C349.975 119.539 352.207 121.989 352.207 127.022V146.865H359.242V126.063C359.242 117.956 354.049 112.923 345.685 112.923V112.929Z"
      fill="#F1E9EA" />
    <path
      d="M388.596 113.876V117.274C388.596 117.274 386.87 112.928 379.031 112.928C369.291 112.928 363.235 119.597 363.235 130.321C363.235 136.377 365.188 141.144 368.632 144.155C371.308 146.495 374.887 147.697 379.153 147.778C382.114 147.836 384.038 147.033 385.232 146.276C387.535 144.825 388.386 143.444 388.386 143.444C388.386 143.444 388.287 144.525 388.112 145.987C387.984 147.044 387.745 147.79 387.745 147.79C386.672 151.569 383.542 153.753 378.972 153.753C374.403 153.753 371.634 152.262 371.086 149.327L364.249 151.349C365.432 156.995 370.777 160.369 378.547 160.369C383.828 160.369 387.972 158.948 390.857 156.134C393.766 153.302 395.246 149.217 395.246 143.993V113.876H388.596ZM388.153 130.628C388.153 137.227 384.9 141.168 379.456 141.168C373.622 141.168 370.276 137.215 370.276 130.327C370.276 123.439 373.622 119.545 379.456 119.545C384.772 119.545 388.106 123.468 388.153 129.784V130.622V130.628Z"
      fill="#F1E9EA" />
    <rect x="593" y="102.719" width="142" height="50" rx="25" stroke="url(#paint52_linear_22_133)"
      stroke-width="2" />
    <mask id="path-64-outside-1_22_133" maskUnits="userSpaceOnUse" x="617" y="115.719" width="94"
      height="25" fill="black">
      <rect fill="white" x="617" y="115.719" width="94" height="25" />
      <path
        d="M626.587 140.199C624.976 140.199 623.526 139.932 622.235 139.399C620.955 138.855 619.894 138.087 619.051 137.095C618.219 136.103 617.675 134.924 617.419 133.559L619.819 133.159C620.203 134.652 621.014 135.825 622.251 136.679C623.488 137.521 624.966 137.943 626.683 137.943C627.814 137.943 628.827 137.767 629.723 137.415C630.619 137.052 631.323 136.54 631.835 135.879C632.347 135.217 632.603 134.433 632.603 133.527C632.603 132.929 632.496 132.423 632.283 132.007C632.07 131.58 631.787 131.228 631.435 130.951C631.083 130.673 630.699 130.444 630.283 130.263C629.867 130.071 629.462 129.916 629.067 129.799L623.227 128.055C622.523 127.852 621.872 127.596 621.275 127.287C620.678 126.967 620.155 126.588 619.707 126.151C619.27 125.703 618.928 125.18 618.683 124.583C618.438 123.985 618.315 123.303 618.315 122.535C618.315 121.233 618.656 120.108 619.339 119.159C620.022 118.209 620.955 117.479 622.139 116.967C623.323 116.455 624.672 116.204 626.187 116.215C627.723 116.215 629.094 116.487 630.299 117.031C631.515 117.575 632.518 118.353 633.307 119.367C634.096 120.369 634.619 121.559 634.875 122.935L632.411 123.383C632.251 122.38 631.883 121.511 631.307 120.775C630.731 120.039 629.995 119.473 629.099 119.079C628.214 118.673 627.238 118.465 626.171 118.455C625.136 118.455 624.214 118.631 623.403 118.983C622.603 119.324 621.968 119.793 621.499 120.391C621.03 120.988 620.795 121.671 620.795 122.439C620.795 123.217 621.008 123.841 621.435 124.311C621.872 124.78 622.406 125.148 623.035 125.415C623.675 125.681 624.294 125.9 624.891 126.071L629.403 127.399C629.872 127.527 630.422 127.713 631.051 127.959C631.691 128.193 632.31 128.535 632.907 128.983C633.515 129.42 634.016 129.996 634.411 130.711C634.806 131.425 635.003 132.332 635.003 133.431C635.003 134.497 634.79 135.452 634.363 136.295C633.947 137.137 633.355 137.847 632.587 138.423C631.83 138.999 630.939 139.436 629.915 139.735C628.902 140.044 627.792 140.199 626.587 140.199ZM647.394 139.719C646.423 139.921 645.463 140.001 644.514 139.959C643.575 139.916 642.732 139.713 641.986 139.351C641.25 138.988 640.69 138.423 640.306 137.655C639.996 137.015 639.826 136.369 639.794 135.719C639.772 135.057 639.762 134.305 639.762 133.463L639.762 117.639L642.098 117.639L642.098 133.367C642.098 134.092 642.103 134.7 642.114 135.191C642.135 135.671 642.247 136.097 642.45 136.471C642.834 137.185 643.442 137.612 644.274 137.751C645.116 137.889 646.156 137.857 647.394 137.655L647.394 139.719ZM636.066 124.455L636.066 122.439L647.394 122.439L647.394 124.455L636.066 124.455ZM657.086 140.151C656.051 140.151 655.145 139.991 654.366 139.671C653.598 139.351 652.942 138.919 652.398 138.375C651.865 137.831 651.433 137.212 651.102 136.519C650.771 135.815 650.531 135.073 650.382 134.295C650.233 133.505 650.158 132.721 650.158 131.943L650.158 122.439L652.526 122.439L652.526 131.255C652.526 132.204 652.617 133.084 652.798 133.895C652.979 134.705 653.267 135.415 653.662 136.023C654.067 136.62 654.585 137.084 655.214 137.415C655.854 137.745 656.627 137.911 657.534 137.911C658.366 137.911 659.097 137.767 659.726 137.479C660.366 137.191 660.899 136.78 661.326 136.247C661.763 135.703 662.094 135.047 662.318 134.279C662.542 133.5 662.654 132.625 662.654 131.655L664.318 132.023C664.318 133.793 664.009 135.281 663.39 136.487C662.771 137.692 661.918 138.604 660.83 139.223C659.742 139.841 658.494 140.151 657.086 140.151ZM662.894 139.719L662.894 135.463L662.654 135.463L662.654 122.439L665.006 122.439L665.006 139.719L662.894 139.719ZM675.862 140.199C674.251 140.199 672.875 139.799 671.734 138.999C670.593 138.188 669.718 137.095 669.11 135.719C668.502 134.343 668.198 132.791 668.198 131.063C668.198 129.345 668.497 127.799 669.094 126.423C669.702 125.047 670.571 123.959 671.702 123.159C672.833 122.359 674.187 121.959 675.766 121.959C677.387 121.959 678.753 122.353 679.862 123.143C680.971 123.932 681.809 125.015 682.374 126.391C682.95 127.756 683.238 129.313 683.238 131.063C683.238 132.78 682.955 134.332 682.39 135.719C681.825 137.095 680.993 138.188 679.894 138.999C678.795 139.799 677.451 140.199 675.862 140.199ZM676.102 138.007C677.329 138.007 678.342 137.708 679.142 137.111C679.942 136.513 680.539 135.692 680.934 134.647C681.329 133.591 681.526 132.396 681.526 131.063C681.526 129.708 681.329 128.513 680.934 127.479C680.539 126.433 679.942 125.617 679.142 125.031C678.353 124.444 677.355 124.151 676.15 124.151C674.913 124.151 673.889 124.455 673.078 125.063C672.267 125.671 671.665 126.497 671.27 127.543C670.886 128.588 670.694 129.761 670.694 131.063C670.694 132.375 670.891 133.559 671.286 134.615C671.691 135.66 672.294 136.487 673.094 137.095C673.894 137.703 674.897 138.007 676.102 138.007ZM681.526 139.719L681.526 126.711L681.27 126.711L681.27 116.679L683.638 116.679L683.638 139.719L681.526 139.719ZM688.127 119.159L688.127 116.519L690.479 116.519L690.479 119.159L688.127 119.159ZM688.127 139.719L688.127 122.439L690.479 122.439L690.479 139.719L688.127 139.719ZM702.172 140.199C700.454 140.199 698.988 139.809 697.772 139.031C696.556 138.252 695.622 137.175 694.972 135.799C694.321 134.423 693.996 132.844 693.996 131.063C693.996 129.249 694.326 127.66 694.988 126.295C695.649 124.929 696.588 123.868 697.804 123.111C699.03 122.343 700.486 121.959 702.172 121.959C703.9 121.959 705.372 122.348 706.588 123.127C707.814 123.895 708.748 124.967 709.388 126.343C710.038 127.708 710.364 129.281 710.364 131.063C710.364 132.876 710.038 134.471 709.388 135.847C708.737 137.212 707.798 138.279 706.572 139.047C705.345 139.815 703.878 140.199 702.172 140.199ZM702.172 137.943C704.092 137.943 705.521 137.308 706.46 136.039C707.398 134.759 707.868 133.1 707.868 131.063C707.868 128.972 707.393 127.308 706.444 126.071C705.505 124.833 704.081 124.215 702.172 124.215C700.881 124.215 699.814 124.508 698.972 125.095C698.14 125.671 697.516 126.476 697.1 127.511C696.694 128.535 696.492 129.719 696.492 131.063C696.492 133.143 696.972 134.812 697.932 136.071C698.892 137.319 700.305 137.943 702.172 137.943Z" />
    </mask>
    <path
      d="M626.587 140.199C624.976 140.199 623.526 139.932 622.235 139.399C620.955 138.855 619.894 138.087 619.051 137.095C618.219 136.103 617.675 134.924 617.419 133.559L619.819 133.159C620.203 134.652 621.014 135.825 622.251 136.679C623.488 137.521 624.966 137.943 626.683 137.943C627.814 137.943 628.827 137.767 629.723 137.415C630.619 137.052 631.323 136.54 631.835 135.879C632.347 135.217 632.603 134.433 632.603 133.527C632.603 132.929 632.496 132.423 632.283 132.007C632.07 131.58 631.787 131.228 631.435 130.951C631.083 130.673 630.699 130.444 630.283 130.263C629.867 130.071 629.462 129.916 629.067 129.799L623.227 128.055C622.523 127.852 621.872 127.596 621.275 127.287C620.678 126.967 620.155 126.588 619.707 126.151C619.27 125.703 618.928 125.18 618.683 124.583C618.438 123.985 618.315 123.303 618.315 122.535C618.315 121.233 618.656 120.108 619.339 119.159C620.022 118.209 620.955 117.479 622.139 116.967C623.323 116.455 624.672 116.204 626.187 116.215C627.723 116.215 629.094 116.487 630.299 117.031C631.515 117.575 632.518 118.353 633.307 119.367C634.096 120.369 634.619 121.559 634.875 122.935L632.411 123.383C632.251 122.38 631.883 121.511 631.307 120.775C630.731 120.039 629.995 119.473 629.099 119.079C628.214 118.673 627.238 118.465 626.171 118.455C625.136 118.455 624.214 118.631 623.403 118.983C622.603 119.324 621.968 119.793 621.499 120.391C621.03 120.988 620.795 121.671 620.795 122.439C620.795 123.217 621.008 123.841 621.435 124.311C621.872 124.78 622.406 125.148 623.035 125.415C623.675 125.681 624.294 125.9 624.891 126.071L629.403 127.399C629.872 127.527 630.422 127.713 631.051 127.959C631.691 128.193 632.31 128.535 632.907 128.983C633.515 129.42 634.016 129.996 634.411 130.711C634.806 131.425 635.003 132.332 635.003 133.431C635.003 134.497 634.79 135.452 634.363 136.295C633.947 137.137 633.355 137.847 632.587 138.423C631.83 138.999 630.939 139.436 629.915 139.735C628.902 140.044 627.792 140.199 626.587 140.199ZM647.394 139.719C646.423 139.921 645.463 140.001 644.514 139.959C643.575 139.916 642.732 139.713 641.986 139.351C641.25 138.988 640.69 138.423 640.306 137.655C639.996 137.015 639.826 136.369 639.794 135.719C639.772 135.057 639.762 134.305 639.762 133.463L639.762 117.639L642.098 117.639L642.098 133.367C642.098 134.092 642.103 134.7 642.114 135.191C642.135 135.671 642.247 136.097 642.45 136.471C642.834 137.185 643.442 137.612 644.274 137.751C645.116 137.889 646.156 137.857 647.394 137.655L647.394 139.719ZM636.066 124.455L636.066 122.439L647.394 122.439L647.394 124.455L636.066 124.455ZM657.086 140.151C656.051 140.151 655.145 139.991 654.366 139.671C653.598 139.351 652.942 138.919 652.398 138.375C651.865 137.831 651.433 137.212 651.102 136.519C650.771 135.815 650.531 135.073 650.382 134.295C650.233 133.505 650.158 132.721 650.158 131.943L650.158 122.439L652.526 122.439L652.526 131.255C652.526 132.204 652.617 133.084 652.798 133.895C652.979 134.705 653.267 135.415 653.662 136.023C654.067 136.62 654.585 137.084 655.214 137.415C655.854 137.745 656.627 137.911 657.534 137.911C658.366 137.911 659.097 137.767 659.726 137.479C660.366 137.191 660.899 136.78 661.326 136.247C661.763 135.703 662.094 135.047 662.318 134.279C662.542 133.5 662.654 132.625 662.654 131.655L664.318 132.023C664.318 133.793 664.009 135.281 663.39 136.487C662.771 137.692 661.918 138.604 660.83 139.223C659.742 139.841 658.494 140.151 657.086 140.151ZM662.894 139.719L662.894 135.463L662.654 135.463L662.654 122.439L665.006 122.439L665.006 139.719L662.894 139.719ZM675.862 140.199C674.251 140.199 672.875 139.799 671.734 138.999C670.593 138.188 669.718 137.095 669.11 135.719C668.502 134.343 668.198 132.791 668.198 131.063C668.198 129.345 668.497 127.799 669.094 126.423C669.702 125.047 670.571 123.959 671.702 123.159C672.833 122.359 674.187 121.959 675.766 121.959C677.387 121.959 678.753 122.353 679.862 123.143C680.971 123.932 681.809 125.015 682.374 126.391C682.95 127.756 683.238 129.313 683.238 131.063C683.238 132.78 682.955 134.332 682.39 135.719C681.825 137.095 680.993 138.188 679.894 138.999C678.795 139.799 677.451 140.199 675.862 140.199ZM676.102 138.007C677.329 138.007 678.342 137.708 679.142 137.111C679.942 136.513 680.539 135.692 680.934 134.647C681.329 133.591 681.526 132.396 681.526 131.063C681.526 129.708 681.329 128.513 680.934 127.479C680.539 126.433 679.942 125.617 679.142 125.031C678.353 124.444 677.355 124.151 676.15 124.151C674.913 124.151 673.889 124.455 673.078 125.063C672.267 125.671 671.665 126.497 671.27 127.543C670.886 128.588 670.694 129.761 670.694 131.063C670.694 132.375 670.891 133.559 671.286 134.615C671.691 135.66 672.294 136.487 673.094 137.095C673.894 137.703 674.897 138.007 676.102 138.007ZM681.526 139.719L681.526 126.711L681.27 126.711L681.27 116.679L683.638 116.679L683.638 139.719L681.526 139.719ZM688.127 119.159L688.127 116.519L690.479 116.519L690.479 119.159L688.127 119.159ZM688.127 139.719L688.127 122.439L690.479 122.439L690.479 139.719L688.127 139.719ZM702.172 140.199C700.454 140.199 698.988 139.809 697.772 139.031C696.556 138.252 695.622 137.175 694.972 135.799C694.321 134.423 693.996 132.844 693.996 131.063C693.996 129.249 694.326 127.66 694.988 126.295C695.649 124.929 696.588 123.868 697.804 123.111C699.03 122.343 700.486 121.959 702.172 121.959C703.9 121.959 705.372 122.348 706.588 123.127C707.814 123.895 708.748 124.967 709.388 126.343C710.038 127.708 710.364 129.281 710.364 131.063C710.364 132.876 710.038 134.471 709.388 135.847C708.737 137.212 707.798 138.279 706.572 139.047C705.345 139.815 703.878 140.199 702.172 140.199ZM702.172 137.943C704.092 137.943 705.521 137.308 706.46 136.039C707.398 134.759 707.868 133.1 707.868 131.063C707.868 128.972 707.393 127.308 706.444 126.071C705.505 124.833 704.081 124.215 702.172 124.215C700.881 124.215 699.814 124.508 698.972 125.095C698.14 125.671 697.516 126.476 697.1 127.511C696.694 128.535 696.492 129.719 696.492 131.063C696.492 133.143 696.972 134.812 697.932 136.071C698.892 137.319 700.305 137.943 702.172 137.943Z"
      fill="url(#paint53_linear_22_133)" />
    <path
      d="M622.235 139.399L622.187 139.511L622.188 139.511L622.235 139.399ZM619.051 137.095L618.957 137.173L618.958 137.173L619.051 137.095ZM617.419 133.559L617.399 133.438L617.276 133.459L617.299 133.581L617.419 133.559ZM619.819 133.159L619.937 133.128L619.909 133.02L619.799 133.038L619.819 133.159ZM622.251 136.679L622.182 136.779L622.182 136.779L622.251 136.679ZM629.723 137.415L629.767 137.528L629.769 137.528L629.723 137.415ZM631.835 135.879L631.931 135.953L631.931 135.953L631.835 135.879ZM632.283 132.007L632.174 132.061L632.174 132.062L632.283 132.007ZM631.435 130.951L631.51 130.855L631.51 130.855L631.435 130.951ZM630.283 130.263L630.232 130.373L630.234 130.374L630.283 130.263ZM629.067 129.799L629.032 129.915L629.032 129.915L629.067 129.799ZM623.227 128.055L623.262 127.938L623.261 127.937L623.227 128.055ZM621.275 127.287L621.217 127.394L621.219 127.395L621.275 127.287ZM619.707 126.151L619.62 126.236L619.622 126.238L619.707 126.151ZM618.683 124.583L618.57 124.629L618.57 124.629L618.683 124.583ZM619.339 119.159L619.24 119.087L619.24 119.087L619.339 119.159ZM626.187 116.215L626.186 116.336L626.187 116.336L626.187 116.215ZM630.299 117.031L630.249 117.142L630.249 117.142L630.299 117.031ZM633.307 119.367L633.211 119.441L633.211 119.442L633.307 119.367ZM634.875 122.935L634.897 123.054L635.017 123.033L634.995 122.912L634.875 122.935ZM632.411 123.383L632.29 123.402L632.31 123.525L632.433 123.502L632.411 123.383ZM631.307 120.775L631.403 120.699L631.403 120.699L631.307 120.775ZM629.099 119.079L629.048 119.189L629.05 119.19L629.099 119.079ZM626.171 118.455L626.172 118.333L626.171 118.333L626.171 118.455ZM623.403 118.983L623.451 119.095L623.451 119.094L623.403 118.983ZM621.435 124.311L621.345 124.393L621.346 124.394L621.435 124.311ZM623.035 125.415L622.987 125.527L622.988 125.527L623.035 125.415ZM624.891 126.071L624.925 125.954L624.924 125.953L624.891 126.071ZM629.403 127.399L629.368 127.516L629.371 127.516L629.403 127.399ZM631.051 127.959L631.007 128.072L631.009 128.073L631.051 127.959ZM632.907 128.983L632.834 129.08L632.836 129.081L632.907 128.983ZM634.411 130.711L634.518 130.652L634.518 130.652L634.411 130.711ZM634.363 136.295L634.254 136.239L634.254 136.241L634.363 136.295ZM632.587 138.423L632.514 138.325L632.513 138.325L632.587 138.423ZM629.915 139.735L629.881 139.617L629.879 139.618L629.915 139.735ZM626.587 140.077C624.99 140.077 623.555 139.812 622.281 139.286L622.188 139.511C623.496 140.052 624.963 140.32 626.587 140.32L626.587 140.077ZM622.283 139.286C621.019 138.749 619.973 137.992 619.144 137.016L618.958 137.173C619.814 138.181 620.891 138.96 622.187 139.511L622.283 139.286ZM619.144 137.016C618.327 136.041 617.791 134.882 617.539 133.536L617.299 133.581C617.559 134.965 618.111 136.164 618.957 137.173L619.144 137.016ZM617.439 133.679L619.839 133.279L619.799 133.038L617.399 133.438L617.439 133.679ZM619.701 133.189C620.092 134.71 620.919 135.908 622.182 136.779L622.32 136.578C621.108 135.742 620.314 134.594 619.937 133.128L619.701 133.189ZM622.182 136.779C623.443 137.638 624.945 138.064 626.683 138.064L626.683 137.821C624.986 137.821 623.534 137.405 622.32 136.578L622.182 136.779ZM626.683 138.064C627.826 138.064 628.855 137.886 629.767 137.528L629.678 137.301C628.799 137.647 627.801 137.821 626.683 137.821L626.683 138.064ZM629.769 137.528C630.681 137.158 631.404 136.634 631.931 135.953L631.738 135.804C631.242 136.446 630.556 136.946 629.677 137.301L629.769 137.528ZM631.931 135.953C632.461 135.269 632.725 134.458 632.725 133.527L632.481 133.527C632.481 134.409 632.232 135.166 631.738 135.804L631.931 135.953ZM632.725 133.527C632.725 132.915 632.616 132.388 632.391 131.951L632.174 132.062C632.377 132.457 632.481 132.943 632.481 133.527L632.725 133.527ZM632.392 131.952C632.171 131.51 631.877 131.144 631.51 130.855L631.359 131.046C631.696 131.312 631.968 131.649 632.174 132.061L632.392 131.952ZM631.51 130.855C631.15 130.571 630.757 130.336 630.332 130.151L630.234 130.374C630.641 130.552 631.016 130.775 631.359 131.046L631.51 130.855ZM630.334 130.152C629.913 129.958 629.502 129.801 629.102 129.682L629.032 129.915C629.421 130.031 629.82 130.183 630.232 130.373L630.334 130.152ZM629.102 129.682L623.262 127.938L623.192 128.171L629.032 129.915L629.102 129.682ZM623.261 127.937C622.564 127.737 621.921 127.484 621.331 127.178L621.219 127.395C621.824 127.708 622.482 127.967 623.193 128.172L623.261 127.937ZM621.332 127.179C620.744 126.864 620.231 126.492 619.792 126.063L619.622 126.238C620.079 126.684 620.611 127.069 621.217 127.394L621.332 127.179ZM619.794 126.065C619.368 125.629 619.035 125.12 618.796 124.536L618.57 124.629C618.821 125.24 619.171 125.776 619.62 126.236L619.794 126.065ZM618.796 124.536C618.557 123.956 618.437 123.29 618.437 122.535L618.193 122.535C618.193 123.315 618.318 124.014 618.57 124.629L618.796 124.536ZM618.437 122.535C618.437 121.256 618.772 120.156 619.438 119.23L619.24 119.087C618.541 120.06 618.193 121.211 618.193 122.535L618.437 122.535ZM619.438 119.23C620.106 118.3 621.021 117.583 622.187 117.078L622.09 116.855C620.888 117.374 619.937 118.118 619.24 119.087L619.438 119.23ZM622.187 117.078C623.353 116.574 624.685 116.326 626.186 116.336L626.188 116.093C624.659 116.082 623.292 116.335 622.09 116.855L622.187 117.078ZM626.187 116.336C627.708 116.336 629.061 116.606 630.249 117.142L630.349 116.919C629.126 116.367 627.737 116.093 626.187 116.093L626.187 116.336ZM630.249 117.142C631.448 117.678 632.434 118.444 633.211 119.441L633.403 119.292C632.601 118.262 631.582 117.471 630.349 116.919L630.249 117.142ZM633.211 119.442C633.987 120.428 634.502 121.598 634.755 122.957L634.995 122.912C634.736 121.519 634.205 120.311 633.403 119.291L633.211 119.442ZM634.853 122.815L632.389 123.263L632.433 123.502L634.897 123.054L634.853 122.815ZM632.531 123.363C632.368 122.342 631.993 121.453 631.403 120.699L631.211 120.85C631.773 121.568 632.133 122.418 632.29 123.402L632.531 123.363ZM631.403 120.699C630.814 119.947 630.062 119.369 629.148 118.967L629.05 119.19C629.928 119.577 630.648 120.13 631.211 120.85L631.403 120.699ZM629.15 118.968C628.247 118.555 627.254 118.343 626.172 118.333L626.17 118.576C627.221 118.587 628.18 118.792 629.048 119.189L629.15 118.968ZM626.171 118.333C625.122 118.333 624.183 118.511 623.354 118.871L623.451 119.094C624.244 118.75 625.15 118.576 626.171 118.576L626.171 118.333ZM623.355 118.87C622.539 119.219 621.887 119.7 621.403 120.315L621.595 120.466C622.05 119.887 622.667 119.429 623.451 119.095L623.355 118.87ZM621.403 120.315C620.917 120.934 620.673 121.644 620.673 122.439L620.917 122.439C620.917 121.698 621.143 121.041 621.595 120.466L621.403 120.315ZM620.673 122.439C620.673 123.24 620.893 123.896 621.345 124.393L621.525 124.228C621.123 123.786 620.917 123.194 620.917 122.439L620.673 122.439ZM621.346 124.394C621.795 124.876 622.343 125.254 622.987 125.527L623.082 125.302C622.468 125.042 621.949 124.683 621.524 124.227L621.346 124.394ZM622.988 125.527C623.632 125.795 624.255 126.016 624.857 126.188L624.924 125.953C624.332 125.784 623.718 125.567 623.082 125.302L622.988 125.527ZM624.856 126.187L629.368 127.515L629.437 127.282L624.925 125.954L624.856 126.187ZM629.371 127.516C629.835 127.643 630.38 127.828 631.007 128.072L631.095 127.845C630.463 127.599 629.91 127.41 629.435 127.281L629.371 127.516ZM631.009 128.073C631.637 128.303 632.245 128.639 632.834 129.08L632.98 128.885C632.374 128.43 631.745 128.083 631.093 127.844L631.009 128.073ZM632.836 129.081C633.428 129.507 633.917 130.069 634.304 130.769L634.518 130.652C634.115 129.923 633.602 129.332 632.978 128.884L632.836 129.081ZM634.304 130.769C634.686 131.461 634.881 132.346 634.881 133.431L635.125 133.431C635.125 132.318 634.925 131.389 634.518 130.652L634.304 130.769ZM634.881 133.431C634.881 134.481 634.671 135.416 634.254 136.239L634.472 136.35C634.908 135.488 635.125 134.514 635.125 133.431L634.881 133.431ZM634.254 136.241C633.846 137.066 633.267 137.76 632.514 138.325L632.66 138.52C633.443 137.933 634.048 137.209 634.472 136.348L634.254 136.241ZM632.513 138.325C631.769 138.891 630.892 139.322 629.881 139.617L629.949 139.852C630.986 139.549 631.89 139.106 632.661 138.52L632.513 138.325ZM629.879 139.618C628.879 139.923 627.782 140.077 626.587 140.077L626.587 140.32C627.803 140.32 628.924 140.164 629.95 139.851L629.879 139.618ZM647.394 139.719L647.419 139.838L647.516 139.818L647.516 139.719L647.394 139.719ZM644.514 139.959L644.508 140.08L644.508 140.08L644.514 139.959ZM641.986 139.351L641.932 139.46L641.932 139.46L641.986 139.351ZM640.306 137.655L640.196 137.708L640.197 137.709L640.306 137.655ZM639.794 135.719L639.672 135.722L639.672 135.724L639.794 135.719ZM639.762 117.639L639.762 117.517L639.64 117.517L639.64 117.639L639.762 117.639ZM642.098 117.639L642.22 117.639L642.22 117.517L642.098 117.517L642.098 117.639ZM642.114 135.191L641.992 135.193L641.992 135.196L642.114 135.191ZM642.45 136.471L642.557 136.413L642.557 136.412L642.45 136.471ZM644.274 137.751L644.254 137.871L644.254 137.871L644.274 137.751ZM647.394 137.655L647.516 137.655L647.516 137.511L647.374 137.534L647.394 137.655ZM636.066 124.455L635.944 124.455L635.944 124.576L636.066 124.576L636.066 124.455ZM636.066 122.439L636.066 122.317L635.944 122.317L635.944 122.439L636.066 122.439ZM647.394 122.439L647.516 122.439L647.516 122.317L647.394 122.317L647.394 122.439ZM647.394 124.455L647.394 124.576L647.516 124.576L647.516 124.455L647.394 124.455ZM647.369 139.599C646.408 139.8 645.458 139.879 644.519 139.837L644.508 140.08C645.468 140.123 646.438 140.043 647.419 139.838L647.369 139.599ZM644.519 139.837C643.595 139.795 642.769 139.595 642.039 139.241L641.932 139.46C642.696 139.831 643.555 140.037 644.508 140.08L644.519 139.837ZM642.04 139.241C641.329 138.891 640.787 138.345 640.415 137.6L640.197 137.709C640.592 138.5 641.171 139.085 641.932 139.46L642.04 139.241ZM640.415 137.601C640.113 136.975 639.947 136.345 639.915 135.713L639.672 135.724C639.705 136.393 639.88 137.054 640.196 137.708L640.415 137.601ZM639.916 135.715C639.894 135.055 639.884 134.304 639.884 133.463L639.64 133.463C639.64 134.306 639.65 135.059 639.672 135.722L639.916 135.715ZM639.884 133.463L639.884 117.639L639.64 117.639L639.64 133.463L639.884 133.463ZM639.762 117.76L642.098 117.76L642.098 117.517L639.762 117.517L639.762 117.76ZM641.976 117.639L641.976 133.367L642.22 133.367L642.22 117.639L641.976 117.639ZM641.976 133.367C641.976 134.092 641.981 134.701 641.992 135.193L642.236 135.188C642.225 134.698 642.22 134.091 642.22 133.367L641.976 133.367ZM641.992 135.196C642.014 135.692 642.13 136.137 642.342 136.529L642.557 136.412C642.364 136.057 642.256 135.649 642.235 135.185L641.992 135.196ZM642.342 136.528C642.745 137.278 643.386 137.726 644.254 137.871L644.294 137.63C643.497 137.497 642.922 137.093 642.557 136.413L642.342 136.528ZM644.254 137.871C645.114 138.012 646.168 137.979 647.413 137.775L647.374 137.534C646.144 137.736 645.118 137.766 644.293 137.63L644.254 137.871ZM647.272 137.655L647.272 139.719L647.516 139.719L647.516 137.655L647.272 137.655ZM636.188 124.455L636.188 122.439L635.944 122.439L635.944 124.455L636.188 124.455ZM636.066 122.56L647.394 122.56L647.394 122.317L636.066 122.317L636.066 122.56ZM647.272 122.439L647.272 124.455L647.516 124.455L647.516 122.439L647.272 122.439ZM647.394 124.333L636.066 124.333L636.066 124.576L647.394 124.576L647.394 124.333ZM654.366 139.671L654.319 139.783L654.32 139.783L654.366 139.671ZM652.398 138.375L652.311 138.46L652.312 138.461L652.398 138.375ZM651.102 136.519L650.992 136.57L650.992 136.571L651.102 136.519ZM650.382 134.295L650.262 134.317L650.262 134.317L650.382 134.295ZM650.158 122.439L650.158 122.317L650.036 122.317L650.036 122.439L650.158 122.439ZM652.526 122.439L652.648 122.439L652.648 122.317L652.526 122.317L652.526 122.439ZM652.798 133.895L652.917 133.868L652.917 133.868L652.798 133.895ZM653.662 136.023L653.56 136.089L653.561 136.091L653.662 136.023ZM655.214 137.415L655.157 137.522L655.158 137.523L655.214 137.415ZM659.726 137.479L659.676 137.367L659.675 137.368L659.726 137.479ZM661.326 136.247L661.231 136.17L661.231 136.17L661.326 136.247ZM662.318 134.279L662.435 134.313L662.435 134.312L662.318 134.279ZM662.654 131.655L662.68 131.535L662.532 131.503L662.532 131.655L662.654 131.655ZM664.318 132.023L664.44 132.023L664.44 131.925L664.344 131.903L664.318 132.023ZM663.39 136.487L663.499 136.542L663.499 136.542L663.39 136.487ZM660.83 139.223L660.77 139.117L660.83 139.223ZM662.894 139.719L662.772 139.719L662.772 139.84L662.894 139.84L662.894 139.719ZM662.894 135.463L663.016 135.463L663.016 135.341L662.894 135.341L662.894 135.463ZM662.654 135.463L662.532 135.463L662.532 135.584L662.654 135.584L662.654 135.463ZM662.654 122.439L662.654 122.317L662.532 122.317L662.532 122.439L662.654 122.439ZM665.006 122.439L665.128 122.439L665.128 122.317L665.006 122.317L665.006 122.439ZM665.006 139.719L665.006 139.84L665.128 139.84L665.128 139.719L665.006 139.719ZM657.086 140.029C656.064 140.029 655.173 139.87 654.412 139.558L654.32 139.783C655.116 140.111 656.039 140.272 657.086 140.272L657.086 140.029ZM654.413 139.558C653.659 139.244 653.016 138.82 652.484 138.288L652.312 138.461C652.868 139.017 653.538 139.457 654.319 139.783L654.413 139.558ZM652.485 138.289C651.961 137.755 651.537 137.147 651.212 136.466L650.992 136.571C651.328 137.276 651.768 137.906 652.311 138.46L652.485 138.289ZM651.212 136.467C650.886 135.772 650.649 135.04 650.502 134.272L650.262 134.317C650.414 135.106 650.657 135.857 650.992 136.57L651.212 136.467ZM650.502 134.272C650.354 133.49 650.28 132.713 650.28 131.943L650.036 131.943C650.036 132.729 650.112 133.521 650.262 134.317L650.502 134.272ZM650.28 131.943L650.28 122.439L650.036 122.439L650.036 131.943L650.28 131.943ZM650.158 122.56L652.526 122.56L652.526 122.317L650.158 122.317L650.158 122.56ZM652.404 122.439L652.404 131.255L652.648 131.255L652.648 122.439L652.404 122.439ZM652.404 131.255C652.404 132.212 652.496 133.101 652.679 133.921L652.917 133.868C652.738 133.067 652.648 132.196 652.648 131.255L652.404 131.255ZM652.679 133.921C652.863 134.744 653.156 135.467 653.56 136.089L653.764 135.956C653.379 135.362 653.096 134.666 652.917 133.868L652.679 133.921ZM653.561 136.091C653.978 136.705 654.51 137.182 655.157 137.522L655.271 137.307C654.66 136.985 654.157 136.535 653.763 135.954L653.561 136.091ZM655.158 137.523C655.819 137.864 656.613 138.032 657.534 138.032L657.534 137.789C656.642 137.789 655.889 137.626 655.27 137.306L655.158 137.523ZM657.534 138.032C658.38 138.032 659.129 137.886 659.777 137.589L659.675 137.368C659.065 137.647 658.352 137.789 657.534 137.789L657.534 138.032ZM659.776 137.59C660.433 137.294 660.982 136.872 661.421 136.323L661.231 136.17C660.817 136.688 660.299 137.087 659.676 137.367L659.776 137.59ZM661.421 136.323C661.87 135.765 662.207 135.094 662.435 134.313L662.201 134.244C661.981 134.999 661.657 135.64 661.231 136.17L661.421 136.323ZM662.435 134.312C662.663 133.521 662.776 132.634 662.776 131.655L662.532 131.655C662.532 132.616 662.421 133.479 662.201 134.245L662.435 134.312ZM662.628 131.774L664.292 132.142L664.344 131.903L662.68 131.535L662.628 131.774ZM664.196 132.023C664.196 133.78 663.889 135.247 663.282 136.431L663.499 136.542C664.128 135.315 664.44 133.807 664.44 132.023L664.196 132.023ZM663.282 136.431C662.673 137.617 661.836 138.511 660.77 139.117L660.89 139.329C662.001 138.697 662.87 137.767 663.499 136.542L663.282 136.431ZM660.77 139.117C659.702 139.723 658.476 140.029 657.086 140.029L657.086 140.272C658.513 140.272 659.782 139.959 660.89 139.329L660.77 139.117ZM663.016 139.719L663.016 135.463L662.772 135.463L662.772 139.719L663.016 139.719ZM662.894 135.341L662.654 135.341L662.654 135.584L662.894 135.584L662.894 135.341ZM662.776 135.463L662.776 122.439L662.532 122.439L662.532 135.463L662.776 135.463ZM662.654 122.56L665.006 122.56L665.006 122.317L662.654 122.317L662.654 122.56ZM664.884 122.439L664.884 139.719L665.128 139.719L665.128 122.439L664.884 122.439ZM665.006 139.597L662.894 139.597L662.894 139.84L665.006 139.84L665.006 139.597ZM671.734 138.999L671.664 139.098L671.664 139.098L671.734 138.999ZM669.11 135.719L669.222 135.669L669.11 135.719ZM669.094 126.423L668.983 126.373L668.982 126.374L669.094 126.423ZM671.702 123.159L671.632 123.059L671.632 123.059L671.702 123.159ZM679.862 123.143L679.791 123.242L679.791 123.242L679.862 123.143ZM682.374 126.391L682.261 126.437L682.262 126.438L682.374 126.391ZM682.39 135.719L682.503 135.765L682.503 135.765L682.39 135.719ZM679.894 138.999L679.966 139.097L679.967 139.097L679.894 138.999ZM679.142 137.111L679.215 137.208L679.215 137.208L679.142 137.111ZM680.934 134.647L681.048 134.69L681.048 134.689L680.934 134.647ZM680.934 127.479L680.82 127.522L680.82 127.522L680.934 127.479ZM679.142 125.031L679.069 125.128L679.07 125.129L679.142 125.031ZM673.078 125.063L673.005 124.965L673.005 124.965L673.078 125.063ZM671.27 127.543L671.156 127.499L671.156 127.5L671.27 127.543ZM671.286 134.615L671.172 134.657L671.172 134.659L671.286 134.615ZM673.094 137.095L673.02 137.192L673.02 137.192L673.094 137.095ZM681.526 139.719L681.404 139.719L681.404 139.84L681.526 139.84L681.526 139.719ZM681.526 126.711L681.648 126.711L681.648 126.589L681.526 126.589L681.526 126.711ZM681.27 126.711L681.148 126.711L681.148 126.832L681.27 126.832L681.27 126.711ZM681.27 116.679L681.27 116.557L681.148 116.557L681.148 116.679L681.27 116.679ZM683.638 116.679L683.76 116.679L683.76 116.557L683.638 116.557L683.638 116.679ZM683.638 139.719L683.638 139.84L683.76 139.84L683.76 139.719L683.638 139.719ZM675.862 140.077C674.272 140.077 672.922 139.682 671.804 138.899L671.664 139.098C672.829 139.915 674.23 140.32 675.862 140.32L675.862 140.077ZM671.805 138.899C670.683 138.102 669.821 137.027 669.222 135.669L668.999 135.768C669.615 137.162 670.503 138.274 671.664 139.098L671.805 138.899ZM669.222 135.669C668.621 134.311 668.32 132.776 668.32 131.063L668.076 131.063C668.076 132.805 668.383 134.374 668.999 135.768L669.222 135.669ZM668.32 131.063C668.32 129.359 668.616 127.83 669.206 126.471L668.982 126.374C668.377 127.767 668.076 129.331 668.076 131.063L668.32 131.063ZM669.206 126.472C669.806 125.114 670.661 124.044 671.773 123.258L671.632 123.059C670.481 123.873 669.599 124.979 668.983 126.373L669.206 126.472ZM671.773 123.258C672.88 122.475 674.209 122.08 675.766 122.08L675.766 121.837C674.166 121.837 672.786 122.242 671.632 123.059L671.773 123.258ZM675.766 122.08C677.367 122.08 678.706 122.47 679.791 123.242L679.933 123.043C678.799 122.236 677.408 121.837 675.766 121.837L675.766 122.08ZM679.791 123.242C680.88 124.017 681.704 125.08 682.261 126.437L682.487 126.344C681.914 124.949 681.063 123.847 679.933 123.043L679.791 123.242ZM682.262 126.438C682.83 127.786 683.116 129.327 683.116 131.063L683.36 131.063C683.36 129.3 683.07 127.726 682.486 126.343L682.262 126.438ZM683.116 131.063C683.116 132.766 682.836 134.302 682.277 135.672L682.503 135.765C683.075 134.361 683.36 132.793 683.36 131.063L683.116 131.063ZM682.277 135.672C681.72 137.029 680.901 138.104 679.822 138.9L679.967 139.097C681.085 138.272 681.93 137.16 682.503 135.765L682.277 135.672ZM679.822 138.9C678.748 139.682 677.43 140.077 675.862 140.077L675.862 140.32C677.473 140.32 678.843 139.915 679.966 139.097L679.822 138.9ZM676.102 138.128C677.349 138.128 678.39 137.825 679.215 137.208L679.069 137.013C678.295 137.591 677.309 137.885 676.102 137.885L676.102 138.128ZM679.215 137.208C680.036 136.595 680.646 135.754 681.048 134.69L680.82 134.603C680.433 135.63 679.848 136.431 679.069 137.013L679.215 137.208ZM681.048 134.689C681.449 133.617 681.648 132.408 681.648 131.063L681.404 131.063C681.404 132.384 681.209 133.564 680.82 134.604L681.048 134.689ZM681.648 131.063C681.648 129.696 681.449 128.486 681.048 127.435L680.82 127.522C681.209 128.54 681.404 129.719 681.404 131.063L681.648 131.063ZM681.048 127.435C680.646 126.371 680.036 125.535 679.214 124.932L679.07 125.129C679.849 125.7 680.433 126.495 680.82 127.522L681.048 127.435ZM679.215 124.933C678.4 124.327 677.376 124.029 676.15 124.029L676.15 124.272C677.335 124.272 678.305 124.561 679.069 125.128L679.215 124.933ZM676.15 124.029C674.892 124.029 673.841 124.338 673.005 124.965L673.151 125.16C673.937 124.571 674.933 124.272 676.15 124.272L676.15 124.029ZM673.005 124.965C672.174 125.588 671.558 126.435 671.156 127.499L671.384 127.586C671.772 126.56 672.361 125.753 673.151 125.16L673.005 124.965ZM671.156 127.5C670.766 128.561 670.572 129.749 670.572 131.063L670.816 131.063C670.816 129.773 671.006 128.614 671.385 127.585L671.156 127.5ZM670.572 131.063C670.572 132.387 670.771 133.586 671.172 134.657L671.4 134.572C671.012 133.532 670.816 132.362 670.816 131.063L670.572 131.063ZM671.172 134.659C671.585 135.722 672.2 136.568 673.02 137.192L673.168 136.997C672.388 136.405 671.798 135.597 671.4 134.57L671.172 134.659ZM673.02 137.192C673.846 137.819 674.876 138.128 676.102 138.128L676.102 137.885C674.918 137.885 673.943 137.586 673.168 136.997L673.02 137.192ZM681.648 139.719L681.648 126.711L681.404 126.711L681.404 139.719L681.648 139.719ZM681.526 126.589L681.27 126.589L681.27 126.832L681.526 126.832L681.526 126.589ZM681.392 126.711L681.392 116.679L681.148 116.679L681.148 126.711L681.392 126.711ZM681.27 116.8L683.638 116.8L683.638 116.557L681.27 116.557L681.27 116.8ZM683.516 116.679L683.516 139.719L683.76 139.719L683.76 116.679L683.516 116.679ZM683.638 139.597L681.526 139.597L681.526 139.84L683.638 139.84L683.638 139.597ZM688.127 119.159L688.005 119.159L688.005 119.28L688.127 119.28L688.127 119.159ZM688.127 116.519L688.127 116.397L688.005 116.397L688.005 116.519L688.127 116.519ZM690.479 116.519L690.601 116.519L690.601 116.397L690.479 116.397L690.479 116.519ZM690.479 119.159L690.479 119.28L690.601 119.28L690.601 119.159L690.479 119.159ZM688.127 139.719L688.005 139.719L688.005 139.84L688.127 139.84L688.127 139.719ZM688.127 122.439L688.127 122.317L688.005 122.317L688.005 122.439L688.127 122.439ZM690.479 122.439L690.601 122.439L690.601 122.317L690.479 122.317L690.479 122.439ZM690.479 139.719L690.479 139.84L690.601 139.84L690.601 139.719L690.479 139.719ZM688.249 119.159L688.249 116.519L688.005 116.519L688.005 119.159L688.249 119.159ZM688.127 116.64L690.479 116.64L690.479 116.397L688.127 116.397L688.127 116.64ZM690.357 116.519L690.357 119.159L690.601 119.159L690.601 116.519L690.357 116.519ZM690.479 119.037L688.127 119.037L688.127 119.28L690.479 119.28L690.479 119.037ZM688.249 139.719L688.249 122.439L688.005 122.439L688.005 139.719L688.249 139.719ZM688.127 122.56L690.479 122.56L690.479 122.317L688.127 122.317L688.127 122.56ZM690.357 122.439L690.357 139.719L690.601 139.719L690.601 122.439L690.357 122.439ZM690.479 139.597L688.127 139.597L688.127 139.84L690.479 139.84L690.479 139.597ZM697.772 139.031L697.837 138.928L697.837 138.928L697.772 139.031ZM694.972 135.799L694.861 135.851L694.861 135.851L694.972 135.799ZM694.988 126.295L694.878 126.241L694.878 126.241L694.988 126.295ZM697.804 123.111L697.868 123.214L697.868 123.214L697.804 123.111ZM706.588 123.127L706.522 123.229L706.523 123.23L706.588 123.127ZM709.388 126.343L709.277 126.394L709.278 126.395L709.388 126.343ZM709.388 135.847L709.498 135.899L709.498 135.899L709.388 135.847ZM706.46 136.039L706.558 136.111L706.558 136.111L706.46 136.039ZM706.444 126.071L706.346 126.144L706.347 126.145L706.444 126.071ZM698.972 125.095L699.041 125.195L699.041 125.195L698.972 125.095ZM697.1 127.511L696.986 127.465L696.986 127.466L697.1 127.511ZM697.932 136.071L697.835 136.144L697.835 136.145L697.932 136.071ZM702.172 140.077C700.473 140.077 699.03 139.692 697.837 138.928L697.706 139.133C698.945 139.927 700.435 140.32 702.172 140.32L702.172 140.077ZM697.837 138.928C696.642 138.162 695.723 137.103 695.082 135.746L694.861 135.851C695.521 137.246 696.47 138.342 697.706 139.133L697.837 138.928ZM695.082 135.746C694.44 134.389 694.118 132.829 694.118 131.063L693.874 131.063C693.874 132.859 694.202 134.456 694.861 135.851L695.082 135.746ZM694.118 131.063C694.118 129.264 694.445 127.693 695.097 126.348L694.878 126.241C694.207 127.626 693.874 129.234 693.874 131.063L694.118 131.063ZM695.097 126.348C695.749 125.002 696.673 123.958 697.868 123.214L697.739 123.007C696.502 123.777 695.549 124.857 694.878 126.241L695.097 126.348ZM697.868 123.214C699.073 122.46 700.505 122.08 702.172 122.08L702.172 121.837C700.467 121.837 698.988 122.225 697.739 123.007L697.868 123.214ZM702.172 122.08C703.881 122.08 705.329 122.465 706.522 123.229L706.653 123.024C705.414 122.23 703.918 121.837 702.172 121.837L702.172 122.08ZM706.523 123.23C707.729 123.985 708.646 125.038 709.277 126.394L709.498 126.291C708.849 124.895 707.9 123.804 706.652 123.023L706.523 123.23ZM709.278 126.395C709.919 127.741 710.242 129.296 710.242 131.063L710.486 131.063C710.486 129.266 710.157 127.674 709.498 126.29L709.278 126.395ZM710.242 131.063C710.242 132.861 709.919 134.437 709.277 135.794L709.498 135.899C710.158 134.504 710.486 132.89 710.486 131.063L710.242 131.063ZM709.278 135.794C708.636 137.139 707.713 138.188 706.507 138.943L706.636 139.15C707.884 138.369 708.838 137.284 709.498 135.899L709.278 135.794ZM706.507 138.943C705.303 139.697 703.86 140.077 702.172 140.077L702.172 140.32C703.897 140.32 705.387 139.932 706.636 139.15L706.507 138.943ZM702.172 138.064C704.121 138.064 705.591 137.418 706.558 136.111L706.362 135.966C705.451 137.197 704.062 137.821 702.172 137.821L702.172 138.064ZM706.558 136.111C707.516 134.804 707.99 133.118 707.99 131.063L707.746 131.063C707.746 133.081 707.281 134.713 706.361 135.966L706.558 136.111ZM707.99 131.063C707.99 128.954 707.511 127.261 706.54 125.996L706.347 126.145C707.275 127.355 707.746 128.99 707.746 131.063L707.99 131.063ZM706.541 125.997C705.574 124.722 704.109 124.093 702.172 124.093L702.172 124.336C704.053 124.336 705.436 124.944 706.346 126.144L706.541 125.997ZM702.172 124.093C700.862 124.093 699.77 124.39 698.902 124.994L699.041 125.195C699.859 124.625 700.899 124.336 702.172 124.336L702.172 124.093ZM698.902 124.994C698.049 125.585 697.41 126.411 696.986 127.465L697.213 127.556C697.621 126.541 698.231 125.756 699.041 125.195L698.902 124.994ZM696.986 127.466C696.574 128.507 696.37 129.706 696.37 131.063L696.614 131.063C696.614 129.731 696.814 128.562 697.213 127.555L696.986 127.466ZM696.37 131.063C696.37 133.161 696.854 134.859 697.835 136.144L698.029 135.997C697.089 134.765 696.614 133.124 696.614 131.063L696.37 131.063ZM697.835 136.145C698.822 137.429 700.275 138.064 702.172 138.064L702.172 137.821C700.335 137.821 698.961 137.208 698.028 135.996L697.835 136.145Z"
      fill="url(#paint54_linear_22_133)" mask="url(#path-64-outside-1_22_133)" />
  </g>
  <defs>
    <linearGradient id="paint0_linear_22_133" x1="193.552" y1="521.919" x2="992.572" y2="-19.0583"
      gradientUnits="userSpaceOnUse">
      <stop stop-color="#D65622" />
      <stop offset="0.05" stop-color="#D55725" />
      <stop offset="0.09" stop-color="#D25B2F" />
      <stop offset="0.13" stop-color="#CC6341" />
      <stop offset="0.17" stop-color="#C56E59" />
      <stop offset="0.2" stop-color="#BC7C79" />
      <stop offset="0.24" stop-color="#B18DA0" />
      <stop offset="0.27" stop-color="#A4A0CD" />
      <stop offset="0.28" stop-color="#9EAAE3" />
    </linearGradient>
    <linearGradient id="paint1_linear_22_133" x1="194.405" y1="511.571" x2="989.935" y2="-27.0431"
      gradientUnits="userSpaceOnUse">
      <stop stop-color="#D55826" />
      <stop offset="0.05" stop-color="#D45929" />
      <stop offset="0.09" stop-color="#D15D33" />
      <stop offset="0.13" stop-color="#CC6545" />
      <stop offset="0.17" stop-color="#C5705D" />
      <stop offset="0.2" stop-color="#BC7D7D" />
      <stop offset="0.24" stop-color="#B18EA4" />
      <stop offset="0.27" stop-color="#A4A2D1" />
      <stop offset="0.28" stop-color="#9FAAE4" />
      <stop offset="0.42" stop-color="#9FAAE4" />
      <stop offset="1" stop-color="#9FA8DF" />
    </linearGradient>
    <linearGradient id="paint2_linear_22_133" x1="195.223" y1="501.173" x2="988.27" y2="-35.7604"
      gradientUnits="userSpaceOnUse">
      <stop stop-color="#D55A2B" />
      <stop offset="0.05" stop-color="#D45B2E" />
      <stop offset="0.09" stop-color="#D05F38" />
      <stop offset="0.13" stop-color="#CB674A" />
      <stop offset="0.17" stop-color="#C47262" />
      <stop offset="0.21" stop-color="#BB7F82" />
      <stop offset="0.24" stop-color="#B090A9" />
      <stop offset="0.28" stop-color="#9FAAE4" />
      <stop offset="0.42" stop-color="#9FAAE4" />
      <stop offset="1" stop-color="#A0A7DB" />
    </linearGradient>
    <linearGradient id="paint3_linear_22_133" x1="196.036" y1="490.768" x2="987.558" y2="-45.1328"
      gradientUnits="userSpaceOnUse">
      <stop stop-color="#D45B2F" />
      <stop offset="0.05" stop-color="#D35C32" />
      <stop offset="0.09" stop-color="#D0603C" />
      <stop offset="0.13" stop-color="#CB684E" />
      <stop offset="0.17" stop-color="#C47366" />
      <stop offset="0.21" stop-color="#BA8186" />
      <stop offset="0.24" stop-color="#AF91AD" />
      <stop offset="0.28" stop-color="#A0AAE5" />
      <stop offset="0.42" stop-color="#A0AAE5" />
      <stop offset="1" stop-color="#A1A5D8" />
    </linearGradient>
    <linearGradient id="paint4_linear_22_133" x1="196.854" y1="480.369" x2="987.755" y2="-55.111"
      gradientUnits="userSpaceOnUse">
      <stop stop-color="#D45D33" />
      <stop offset="0.05" stop-color="#D35E36" />
      <stop offset="0.09" stop-color="#CF6340" />
      <stop offset="0.13" stop-color="#CA6A52" />
      <stop offset="0.17" stop-color="#C3756A" />
      <stop offset="0.21" stop-color="#BA838A" />
      <stop offset="0.24" stop-color="#AF94B1" />
      <stop offset="0.28" stop-color="#A0ABE5" />
      <stop offset="0.42" stop-color="#A0ABE5" />
      <stop offset="1" stop-color="#A2A3D4" />
    </linearGradient>
    <linearGradient id="paint5_linear_22_133" x1="197.667" y1="469.965" x2="988.816" y2="-65.6831"
      gradientUnits="userSpaceOnUse">
      <stop stop-color="#D35F37" />
      <stop offset="0.05" stop-color="#D2603A" />
      <stop offset="0.09" stop-color="#CF6444" />
      <stop offset="0.13" stop-color="#CA6C56" />
      <stop offset="0.17" stop-color="#C3776E" />
      <stop offset="0.21" stop-color="#B9858E" />
      <stop offset="0.25" stop-color="#AE95B5" />
      <stop offset="0.28" stop-color="#A1ABE6" />
      <stop offset="0.42" stop-color="#A1ABE6" />
      <stop offset="1" stop-color="#A3A2D0" />
    </linearGradient>
    <linearGradient id="paint6_linear_22_133" x1="198.485" y1="459.566" x2="990.676" y2="-76.7881"
      gradientUnits="userSpaceOnUse">
      <stop stop-color="#D3613C" />
      <stop offset="0.05" stop-color="#D2623F" />
      <stop offset="0.1" stop-color="#CF6649" />
      <stop offset="0.14" stop-color="#CA6E5B" />
      <stop offset="0.18" stop-color="#C27973" />
      <stop offset="0.21" stop-color="#B98793" />
      <stop offset="0.25" stop-color="#AE97B9" />
      <stop offset="0.28" stop-color="#A2ABE6" />
      <stop offset="0.42" stop-color="#A2ABE6" />
      <stop offset="1" stop-color="#A5A0CC" />
    </linearGradient>
    <linearGradient id="paint7_linear_22_133" x1="199.298" y1="449.162" x2="993.286" y2="-88.4082"
      gradientUnits="userSpaceOnUse">
      <stop stop-color="#D26340" />
      <stop offset="0.05" stop-color="#D16443" />
      <stop offset="0.1" stop-color="#CE684D" />
      <stop offset="0.14" stop-color="#C9705F" />
      <stop offset="0.18" stop-color="#C17B77" />
      <stop offset="0.21" stop-color="#B88897" />
      <stop offset="0.25" stop-color="#AD99BD" />
      <stop offset="0.28" stop-color="#A2ABE7" />
      <stop offset="0.42" stop-color="#A2ABE7" />
      <stop offset="1" stop-color="#A69EC9" />
    </linearGradient>
    <linearGradient id="paint8_linear_22_133" x1="200.116" y1="438.763" x2="996.586" y2="-100.488"
      gradientUnits="userSpaceOnUse">
      <stop stop-color="#D26444" />
      <stop offset="0.05" stop-color="#D16547" />
      <stop offset="0.1" stop-color="#CE6951" />
      <stop offset="0.14" stop-color="#C97163" />
      <stop offset="0.18" stop-color="#C17C7B" />
      <stop offset="0.22" stop-color="#B88A9B" />
      <stop offset="0.25" stop-color="#AD9AC1" />
      <stop offset="0.28" stop-color="#A3ABE7" />
      <stop offset="0.42" stop-color="#A3ABE7" />
      <stop offset="1" stop-color="#A79DC5" />
    </linearGradient>
    <linearGradient id="paint9_linear_22_133" x1="200.93" y1="428.358" x2="1000.52" y2="-113.003"
      gradientUnits="userSpaceOnUse">
      <stop stop-color="#D16649" />
      <stop offset="0.05" stop-color="#D0674C" />
      <stop offset="0.1" stop-color="#CD6B56" />
      <stop offset="0.14" stop-color="#C77368" />
      <stop offset="0.18" stop-color="#C07E80" />
      <stop offset="0.22" stop-color="#B78BA0" />
      <stop offset="0.26" stop-color="#AC9CC6" />
      <stop offset="0.28" stop-color="#A3ABE8" />
      <stop offset="0.42" stop-color="#A3ABE8" />
      <stop offset="1" stop-color="#A89BC1" />
    </linearGradient>
    <linearGradient id="paint10_linear_22_133" x1="201.747" y1="417.959" x2="1005.03" y2="-125.907"
      gradientUnits="userSpaceOnUse">
      <stop stop-color="#D1684D" />
      <stop offset="0.05" stop-color="#D06950" />
      <stop offset="0.1" stop-color="#CD6E5A" />
      <stop offset="0.14" stop-color="#C7756C" />
      <stop offset="0.18" stop-color="#C08084" />
      <stop offset="0.22" stop-color="#B78EA4" />
      <stop offset="0.26" stop-color="#AC9FCA" />
      <stop offset="0.28" stop-color="#A4ACE8" />
      <stop offset="0.42" stop-color="#A4ACE8" />
      <stop offset="1" stop-color="#A99ABD" />
    </linearGradient>
    <linearGradient id="paint11_linear_22_133" x1="202.561" y1="407.554" x2="1010.08" y2="-139.176"
      gradientUnits="userSpaceOnUse">
      <stop stop-color="#D06A51" />
      <stop offset="0.05" stop-color="#CF6B54" />
      <stop offset="0.1" stop-color="#CC6F5E" />
      <stop offset="0.14" stop-color="#C67770" />
      <stop offset="0.18" stop-color="#BF8288" />
      <stop offset="0.22" stop-color="#B690A8" />
      <stop offset="0.26" stop-color="#ABA0CE" />
      <stop offset="0.28" stop-color="#A4ACE9" />
      <stop offset="0.42" stop-color="#A4ACE9" />
      <stop offset="1" stop-color="#AA98B9" />
    </linearGradient>
    <linearGradient id="paint12_linear_22_133" x1="203.378" y1="397.155" x2="1015.61" y2="-152.767"
      gradientUnits="userSpaceOnUse">
      <stop stop-color="#D06C56" />
      <stop offset="0.06" stop-color="#CF6D59" />
      <stop offset="0.1" stop-color="#CB7163" />
      <stop offset="0.15" stop-color="#C67975" />
      <stop offset="0.19" stop-color="#BF848D" />
      <stop offset="0.23" stop-color="#B692AD" />
      <stop offset="0.27" stop-color="#ABA2D3" />
      <stop offset="0.28" stop-color="#A5ACE9" />
      <stop offset="0.42" stop-color="#A5ACE9" />
      <stop offset="1" stop-color="#AB96B6" />
    </linearGradient>
    <linearGradient id="paint13_linear_22_133" x1="204.196" y1="386.756" x2="1021.57" y2="-166.65"
      gradientUnits="userSpaceOnUse">
      <stop stop-color="#CF6D5A" />
      <stop offset="0.06" stop-color="#CE6E5D" />
      <stop offset="0.1" stop-color="#CB7367" />
      <stop offset="0.15" stop-color="#C67A79" />
      <stop offset="0.19" stop-color="#BF8591" />
      <stop offset="0.23" stop-color="#B693B1" />
      <stop offset="0.27" stop-color="#ABA4D7" />
      <stop offset="0.28" stop-color="#A6ACEA" />
      <stop offset="0.42" stop-color="#A6ACEA" />
      <stop offset="1" stop-color="#AC95B2" />
    </linearGradient>
    <linearGradient id="paint14_linear_22_133" x1="205.009" y1="376.352" x2="1027.94" y2="-180.813"
      gradientUnits="userSpaceOnUse">
      <stop stop-color="#CF6F5E" />
      <stop offset="0.06" stop-color="#CE7061" />
      <stop offset="0.1" stop-color="#CA746B" />
      <stop offset="0.15" stop-color="#C57C7D" />
      <stop offset="0.19" stop-color="#BE8795" />
      <stop offset="0.23" stop-color="#B595B5" />
      <stop offset="0.27" stop-color="#AAA5DB" />
      <stop offset="0.28" stop-color="#A6ACEA" />
      <stop offset="0.42" stop-color="#A6ACEA" />
      <stop offset="1" stop-color="#AD93AE" />
    </linearGradient>
    <linearGradient id="paint15_linear_22_133" x1="205.827" y1="365.953" x2="1034.66" y2="-195.206"
      gradientUnits="userSpaceOnUse">
      <stop stop-color="#CE7162" />
      <stop offset="0.06" stop-color="#CD7265" />
      <stop offset="0.11" stop-color="#CA766F" />
      <stop offset="0.15" stop-color="#C57E81" />
      <stop offset="0.19" stop-color="#BE8999" />
      <stop offset="0.23" stop-color="#B596B9" />
      <stop offset="0.27" stop-color="#AAA7DF" />
      <stop offset="0.28" stop-color="#A7ACEB" />
      <stop offset="0.42" stop-color="#A7ACEB" />
      <stop offset="1" stop-color="#AE91AA" />
    </linearGradient>
    <linearGradient id="paint16_linear_22_133" x1="206.641" y1="355.549" x2="1041.7" y2="-209.83"
      gradientUnits="userSpaceOnUse">
      <stop stop-color="#CE7367" />
      <stop offset="0.06" stop-color="#CD746A" />
      <stop offset="0.11" stop-color="#C97974" />
      <stop offset="0.15" stop-color="#C48086" />
      <stop offset="0.2" stop-color="#BD8B9E" />
      <stop offset="0.24" stop-color="#B499BE" />
      <stop offset="0.28" stop-color="#A7ADEB" />
      <stop offset="0.42" stop-color="#A7ADEB" />
      <stop offset="1" stop-color="#B090A6" />
    </linearGradient>
    <linearGradient id="paint17_linear_22_133" x1="207.458" y1="345.15" x2="1049.03" y2="-224.641"
      gradientUnits="userSpaceOnUse">
      <stop stop-color="#CD756B" />
      <stop offset="0.06" stop-color="#CC766E" />
      <stop offset="0.11" stop-color="#C97A78" />
      <stop offset="0.15" stop-color="#C4828A" />
      <stop offset="0.2" stop-color="#BD8DA2" />
      <stop offset="0.24" stop-color="#B39AC2" />
      <stop offset="0.28" stop-color="#A8ADEC" />
      <stop offset="0.42" stop-color="#A8ADEC" />
      <stop offset="1" stop-color="#B18EA3" />
    </linearGradient>
    <linearGradient id="paint18_linear_22_133" x1="208.272" y1="334.745" x2="1056.63" y2="-239.636"
      gradientUnits="userSpaceOnUse">
      <stop stop-color="#CD766F" />
      <stop offset="0.06" stop-color="#CC7772" />
      <stop offset="0.11" stop-color="#C97C7C" />
      <stop offset="0.16" stop-color="#C4838E" />
      <stop offset="0.2" stop-color="#BC8EA6" />
      <stop offset="0.24" stop-color="#B39CC6" />
      <stop offset="0.28" stop-color="#A9ADEC" />
      <stop offset="0.42" stop-color="#A9ADEC" />
      <stop offset="1" stop-color="#B28C9F" />
    </linearGradient>
    <linearGradient id="paint19_linear_22_133" x1="209.089" y1="324.346" x2="1064.46" y2="-254.78"
      gradientUnits="userSpaceOnUse">
      <stop stop-color="#CC7874" />
      <stop offset="0.06" stop-color="#CB7977" />
      <stop offset="0.11" stop-color="#C87E81" />
      <stop offset="0.16" stop-color="#C28593" />
      <stop offset="0.2" stop-color="#BB90AB" />
      <stop offset="0.25" stop-color="#B29ECB" />
      <stop offset="0.28" stop-color="#A9ADED" />
      <stop offset="0.42" stop-color="#A9ADED" />
      <stop offset="1" stop-color="#B38B9B" />
    </linearGradient>
    <linearGradient id="paint20_linear_22_133" x1="209.903" y1="313.942" x2="1072.49" y2="-270.073"
      gradientUnits="userSpaceOnUse">
      <stop stop-color="#CC7A78" />
      <stop offset="0.06" stop-color="#CB7B7B" />
      <stop offset="0.11" stop-color="#C87F85" />
      <stop offset="0.16" stop-color="#C28797" />
      <stop offset="0.21" stop-color="#BB92AF" />
      <stop offset="0.25" stop-color="#B29FCF" />
      <stop offset="0.28" stop-color="#AAADED" />
      <stop offset="0.42" stop-color="#AAADED" />
      <stop offset="1" stop-color="#B48997" />
    </linearGradient>
    <linearGradient id="paint21_linear_22_133" x1="210.72" y1="303.543" x2="1080.71" y2="-285.487"
      gradientUnits="userSpaceOnUse">
      <stop stop-color="#CB7C7C" />
      <stop offset="0.06" stop-color="#CA7D7F" />
      <stop offset="0.11" stop-color="#C78189" />
      <stop offset="0.16" stop-color="#C1899B" />
      <stop offset="0.21" stop-color="#BA93B3" />
      <stop offset="0.25" stop-color="#B1A1D3" />
      <stop offset="0.28" stop-color="#AAADEE" />
      <stop offset="0.42" stop-color="#AAADEE" />
      <stop offset="1" stop-color="#B58794" />
    </linearGradient>
    <linearGradient id="paint22_linear_22_133" x1="211.534" y1="293.138" x2="1089.1" y2="-301.021"
      gradientUnits="userSpaceOnUse">
      <stop stop-color="#CB7E80" />
      <stop offset="0.06" stop-color="#CA7F83" />
      <stop offset="0.12" stop-color="#C7838D" />
      <stop offset="0.16" stop-color="#C18B9F" />
      <stop offset="0.21" stop-color="#BA95B7" />
      <stop offset="0.26" stop-color="#B1A3D7" />
      <stop offset="0.28" stop-color="#ABADEE" />
      <stop offset="0.42" stop-color="#ABADEE" />
      <stop offset="0.98" stop-color="#B58793" />
      <stop offset="1" stop-color="#B68690" />
    </linearGradient>
    <linearGradient id="paint23_linear_22_133" x1="212.352" y1="282.74" x2="1097.65" y2="-316.651"
      gradientUnits="userSpaceOnUse">
      <stop stop-color="#CA7F85" />
      <stop offset="0.06" stop-color="#C98088" />
      <stop offset="0.12" stop-color="#C68592" />
      <stop offset="0.17" stop-color="#C18CA4" />
      <stop offset="0.22" stop-color="#BA97BC" />
      <stop offset="0.26" stop-color="#B1A5DC" />
      <stop offset="0.28" stop-color="#ACAEEF" />
      <stop offset="0.42" stop-color="#ACAEEF" />
      <stop offset="0.95" stop-color="#B68794" />
      <stop offset="1" stop-color="#B7848C" />
    </linearGradient>
    <linearGradient id="paint24_linear_22_133" x1="213.165" y1="272.335" x2="1106.33" y2="-332.381"
      gradientUnits="userSpaceOnUse">
      <stop stop-color="#CA8189" />
      <stop offset="0.06" stop-color="#C9828C" />
      <stop offset="0.12" stop-color="#C58796" />
      <stop offset="0.17" stop-color="#C08EA8" />
      <stop offset="0.22" stop-color="#B999C0" />
      <stop offset="0.27" stop-color="#B0A7E0" />
      <stop offset="0.28" stop-color="#ACAEEF" />
      <stop offset="0.42" stop-color="#ACAEEF" />
      <stop offset="0.93" stop-color="#B68794" />
      <stop offset="1" stop-color="#B88288" />
    </linearGradient>
    <linearGradient id="paint25_linear_22_133" x1="213.983" y1="261.936" x2="1115.12" y2="-348.183"
      gradientUnits="userSpaceOnUse">
      <stop stop-color="#C9838D" />
      <stop offset="0.07" stop-color="#C88490" />
      <stop offset="0.12" stop-color="#C5889A" />
      <stop offset="0.17" stop-color="#C090AC" />
      <stop offset="0.22" stop-color="#B99BC4" />
      <stop offset="0.27" stop-color="#B0A8E4" />
      <stop offset="0.28" stop-color="#ADAEF0" />
      <stop offset="0.42" stop-color="#ADAEF0" />
      <stop offset="0.91" stop-color="#B78895" />
      <stop offset="1" stop-color="#B98184" />
    </linearGradient>
    <linearGradient id="paint26_linear_22_133" x1="214.802" y1="251.528" x2="1124.03" y2="-364.063"
      gradientUnits="userSpaceOnUse">
      <stop stop-color="#C98592" />
      <stop offset="0.07" stop-color="#C88695" />
      <stop offset="0.12" stop-color="#C48A9F" />
      <stop offset="0.18" stop-color="#BF92B1" />
      <stop offset="0.23" stop-color="#B89DC9" />
      <stop offset="0.27" stop-color="#AFABE9" />
      <stop offset="0.28" stop-color="#ADAEF0" />
      <stop offset="0.42" stop-color="#ADAEF0" />
      <stop offset="0.9" stop-color="#B88795" />
      <stop offset="1" stop-color="#BB7F81" />
    </linearGradient>
    <linearGradient id="paint27_linear_22_133" x1="215.62" y1="241.128" x2="1133.02" y2="-380"
      gradientUnits="userSpaceOnUse">
      <stop stop-color="#C88796" />
      <stop offset="0.07" stop-color="#C78899" />
      <stop offset="0.13" stop-color="#C48CA3" />
      <stop offset="0.18" stop-color="#BF94B5" />
      <stop offset="0.23" stop-color="#B89ECD" />
      <stop offset="0.28" stop-color="#AEAEF1" />
      <stop offset="0.42" stop-color="#AEAEF1" />
      <stop offset="0.88" stop-color="#B88896" />
      <stop offset="1" stop-color="#BC7E7D" />
    </linearGradient>
    <linearGradient id="paint28_linear_22_133" x1="216.434" y1="230.724" x2="1142.11" y2="-396.003"
      gradientUnits="userSpaceOnUse">
      <stop stop-color="#C8899A" />
      <stop offset="0.07" stop-color="#C78A9D" />
      <stop offset="0.13" stop-color="#C38EA7" />
      <stop offset="0.18" stop-color="#BE96B9" />
      <stop offset="0.23" stop-color="#B7A0D1" />
      <stop offset="0.28" stop-color="#AEAEF1" />
      <stop offset="0.42" stop-color="#AEAEF1" />
      <stop offset="0.86" stop-color="#B98896" />
      <stop offset="1" stop-color="#BD7C79" />
    </linearGradient>
    <linearGradient id="paint29_linear_22_133" x1="217.251" y1="220.325" x2="1151.27" y2="-412.053"
      gradientUnits="userSpaceOnUse">
      <stop stop-color="#C78A9F" />
      <stop offset="0.07" stop-color="#C68BA2" />
      <stop offset="0.13" stop-color="#C390AC" />
      <stop offset="0.19" stop-color="#BD97BE" />
      <stop offset="0.24" stop-color="#B6A2D6" />
      <stop offset="0.28" stop-color="#AFAFF2" />
      <stop offset="0.42" stop-color="#AFAFF2" />
      <stop offset="0.84" stop-color="#B98897" />
      <stop offset="1" stop-color="#BE7A75" />
    </linearGradient>
    <linearGradient id="paint30_linear_22_133" x1="218.065" y1="209.921" x2="1160.49" y2="-428.15"
      gradientUnits="userSpaceOnUse">
      <stop stop-color="#C78CA3" />
      <stop offset="0.07" stop-color="#C68DA6" />
      <stop offset="0.13" stop-color="#C392B0" />
      <stop offset="0.19" stop-color="#BD99C2" />
      <stop offset="0.24" stop-color="#B6A4DA" />
      <stop offset="0.28" stop-color="#B0AFF2" />
      <stop offset="0.42" stop-color="#B0AFF2" />
      <stop offset="0.83" stop-color="#BA8997" />
      <stop offset="1" stop-color="#BF7971" />
    </linearGradient>
    <linearGradient id="paint31_linear_22_133" x1="218.882" y1="199.521" x2="1169.78" y2="-444.287"
      gradientUnits="userSpaceOnUse">
      <stop stop-color="#C68EA7" />
      <stop offset="0.07" stop-color="#C58FAA" />
      <stop offset="0.14" stop-color="#C293B4" />
      <stop offset="0.19" stop-color="#BC9BC6" />
      <stop offset="0.25" stop-color="#B5A6DE" />
      <stop offset="0.28" stop-color="#B0AFF3" />
      <stop offset="0.42" stop-color="#B0AFF3" />
      <stop offset="0.82" stop-color="#BA8898" />
      <stop offset="1" stop-color="#C0776E" />
    </linearGradient>
    <linearGradient id="paint32_linear_22_133" x1="219.696" y1="189.117" x2="1179.12" y2="-460.465"
      gradientUnits="userSpaceOnUse">
      <stop stop-color="#C690AB" />
      <stop offset="0.08" stop-color="#C591AE" />
      <stop offset="0.14" stop-color="#C295B8" />
      <stop offset="0.2" stop-color="#BC9DCA" />
      <stop offset="0.25" stop-color="#B5A7E2" />
      <stop offset="0.28" stop-color="#B1AFF3" />
      <stop offset="0.42" stop-color="#B1AFF3" />
      <stop offset="0.81" stop-color="#BB8898" />
      <stop offset="1" stop-color="#C1756A" />
    </linearGradient>
    <linearGradient id="paint33_linear_22_133" x1="220.513" y1="178.718" x2="1188.51" y2="-476.666"
      gradientUnits="userSpaceOnUse">
      <stop stop-color="#C592B0" />
      <stop offset="0.08" stop-color="#C493B3" />
      <stop offset="0.14" stop-color="#C097BD" />
      <stop offset="0.2" stop-color="#BB9FCF" />
      <stop offset="0.26" stop-color="#B4A9E7" />
      <stop offset="0.28" stop-color="#B1AFF4" />
      <stop offset="0.42" stop-color="#B1AFF4" />
      <stop offset="0.79" stop-color="#BB8999" />
      <stop offset="1" stop-color="#C27466" />
    </linearGradient>
    <linearGradient id="paint34_linear_22_133" x1="221.333" y1="168.31" x2="1197.95" y2="-492.906"
      gradientUnits="userSpaceOnUse">
      <stop stop-color="#C593B4" />
      <stop offset="0.08" stop-color="#C494B7" />
      <stop offset="0.15" stop-color="#C098C1" />
      <stop offset="0.21" stop-color="#BBA0D3" />
      <stop offset="0.27" stop-color="#B4ABEB" />
      <stop offset="0.28" stop-color="#B2AFF4" />
      <stop offset="0.42" stop-color="#B2AFF4" />
      <stop offset="0.78" stop-color="#BC8999" />
      <stop offset="1" stop-color="#C37262" />
    </linearGradient>
    <linearGradient id="paint35_linear_22_133" x1="222.151" y1="157.91" x2="1207.42" y2="-509.165"
      gradientUnits="userSpaceOnUse">
      <stop stop-color="#C495B8" />
      <stop offset="0.08" stop-color="#C396BB" />
      <stop offset="0.15" stop-color="#C09AC5" />
      <stop offset="0.21" stop-color="#BBA2D7" />
      <stop offset="0.27" stop-color="#B4ACEF" />
      <stop offset="0.28" stop-color="#B3AFF5" />
      <stop offset="0.42" stop-color="#B3AFF5" />
      <stop offset="0.78" stop-color="#BD899A" />
      <stop offset="1" stop-color="#C4705F" />
    </linearGradient>
    <linearGradient id="paint36_linear_22_133" x1="222.964" y1="147.506" x2="1216.92" y2="-525.45"
      gradientUnits="userSpaceOnUse">
      <stop stop-color="#C497BD" />
      <stop offset="0.08" stop-color="#C298C0" />
      <stop offset="0.15" stop-color="#BF9DCA" />
      <stop offset="0.22" stop-color="#BAA4DC" />
      <stop offset="0.28" stop-color="#B3B0F5" />
      <stop offset="0.42" stop-color="#B3B0F5" />
      <stop offset="0.77" stop-color="#BE899A" />
      <stop offset="1" stop-color="#C66F5B" />
    </linearGradient>
    <linearGradient id="paint37_linear_22_133" x1="223.782" y1="137.107" x2="1226.45" y2="-541.749"
      gradientUnits="userSpaceOnUse">
      <stop stop-color="#C399C1" />
      <stop offset="0.09" stop-color="#C29AC4" />
      <stop offset="0.16" stop-color="#BF9ECE" />
      <stop offset="0.23" stop-color="#BAA6E0" />
      <stop offset="0.28" stop-color="#B4B0F6" />
      <stop offset="0.42" stop-color="#B4B0F6" />
      <stop offset="0.76" stop-color="#BE899B" />
      <stop offset="1" stop-color="#C76D57" />
    </linearGradient>
    <linearGradient id="paint38_linear_22_133" x1="224.595" y1="126.703" x2="1236.01" y2="-558.075"
      gradientUnits="userSpaceOnUse">
      <stop stop-color="#C39BC5" />
      <stop offset="0.09" stop-color="#C19CC8" />
      <stop offset="0.16" stop-color="#BEA0D2" />
      <stop offset="0.23" stop-color="#B9A8E4" />
      <stop offset="0.28" stop-color="#B4B0F6" />
      <stop offset="0.42" stop-color="#B4B0F6" />
      <stop offset="0.75" stop-color="#BF899B" />
      <stop offset="1" stop-color="#C86B53" />
    </linearGradient>
    <linearGradient id="paint39_linear_22_133" x1="225.413" y1="116.304" x2="1245.59" y2="-574.411"
      gradientUnits="userSpaceOnUse">
      <stop stop-color="#C29CC9" />
      <stop offset="0.09" stop-color="#C19DCC" />
      <stop offset="0.17" stop-color="#BEA1D6" />
      <stop offset="0.24" stop-color="#B9A9E8" />
      <stop offset="0.28" stop-color="#B5B0F7" />
      <stop offset="0.42" stop-color="#B5B0F7" />
      <stop offset="0.74" stop-color="#BF8A9C" />
      <stop offset="1" stop-color="#C96A4F" />
    </linearGradient>
    <linearGradient id="paint40_linear_22_133" x1="226.233" y1="105.895" x2="1255.2" y2="-590.765"
      gradientUnits="userSpaceOnUse">
      <stop stop-color="#C29ECE" />
      <stop offset="0.1" stop-color="#C19FD1" />
      <stop offset="0.18" stop-color="#BDA4DB" />
      <stop offset="0.25" stop-color="#B8ABED" />
      <stop offset="0.28" stop-color="#B6B0F7" />
      <stop offset="0.42" stop-color="#B6B0F7" />
      <stop offset="0.73" stop-color="#C0899C" />
      <stop offset="1" stop-color="#CA684C" />
    </linearGradient>
    <linearGradient id="paint41_linear_22_133" x1="227.05" y1="95.4961" x2="1264.84" y2="-607.138"
      gradientUnits="userSpaceOnUse">
      <stop stop-color="#C1A0D2" />
      <stop offset="0.1" stop-color="#C0A1D5" />
      <stop offset="0.18" stop-color="#BDA5DF" />
      <stop offset="0.26" stop-color="#B7ADF1" />
      <stop offset="0.28" stop-color="#B6B0F8" />
      <stop offset="0.42" stop-color="#B6B0F8" />
      <stop offset="0.72" stop-color="#C08A9D" />
      <stop offset="1" stop-color="#CB6648" />
    </linearGradient>
    <linearGradient id="paint42_linear_22_133" x1="227.864" y1="85.0916" x2="1274.52" y2="-623.549"
      gradientUnits="userSpaceOnUse">
      <stop stop-color="#C1A2D6" />
      <stop offset="0.1" stop-color="#C0A3D9" />
      <stop offset="0.19" stop-color="#BCA8E3" />
      <stop offset="0.27" stop-color="#B7AFF5" />
      <stop offset="0.28" stop-color="#B7B1F8" />
      <stop offset="0.42" stop-color="#B7B1F8" />
      <stop offset="0.72" stop-color="#C18A9D" />
      <stop offset="1" stop-color="#CC6544" />
    </linearGradient>
    <linearGradient id="paint43_linear_22_133" x1="228.681" y1="74.693" x2="1284.25" y2="-639.979"
      gradientUnits="userSpaceOnUse">
      <stop stop-color="#C0A4DB" />
      <stop offset="0.11" stop-color="#BEA5DE" />
      <stop offset="0.2" stop-color="#BBA9E8" />
      <stop offset="0.28" stop-color="#B7B1F9" />
      <stop offset="0.42" stop-color="#B7B1F9" />
      <stop offset="0.71" stop-color="#C18A9E" />
      <stop offset="1" stop-color="#CD6340" />
    </linearGradient>
    <linearGradient id="paint44_linear_22_133" x1="229.495" y1="64.2884" x2="1294.02" y2="-656.451"
      gradientUnits="userSpaceOnUse">
      <stop stop-color="#C0A5DF" />
      <stop offset="0.12" stop-color="#BEA6E2" />
      <stop offset="0.22" stop-color="#BBABEC" />
      <stop offset="0.28" stop-color="#B8B1F9" />
      <stop offset="0.42" stop-color="#B8B1F9" />
      <stop offset="0.71" stop-color="#C28A9D" />
      <stop offset="1" stop-color="#CE623C" />
    </linearGradient>
    <linearGradient id="paint45_linear_22_133" x1="230.318" y1="53.8854" x2="1303.84" y2="-672.947"
      gradientUnits="userSpaceOnUse">
      <stop stop-color="#BFA7E3" />
      <stop offset="0.12" stop-color="#BDA8E6" />
      <stop offset="0.23" stop-color="#BAACF0" />
      <stop offset="0.28" stop-color="#B8B1FA" />
      <stop offset="0.42" stop-color="#B8B1FA" />
      <stop offset="0.7" stop-color="#C28A9E" />
      <stop offset="1" stop-color="#CF6039" />
    </linearGradient>
    <linearGradient id="paint46_linear_22_133" x1="222.32" y1="49.4466" x2="1313.72" y2="-689.488"
      gradientUnits="userSpaceOnUse">
      <stop stop-color="#BFA9E8" />
      <stop offset="0.14" stop-color="#BDAAEB" />
      <stop offset="0.25" stop-color="#BAAFF5" />
      <stop offset="0.28" stop-color="#B9B1FA" />
      <stop offset="0.42" stop-color="#B9B1FA" />
      <stop offset="0.7" stop-color="#C48A9E" />
      <stop offset="1" stop-color="#D15E35" />
    </linearGradient>
    <linearGradient id="paint47_linear_22_133" x1="207.576" y1="49.584" x2="1323.67" y2="-706.065"
      gradientUnits="userSpaceOnUse">
      <stop stop-color="#BEABEC" />
      <stop offset="0.15" stop-color="#BDACEF" />
      <stop offset="0.27" stop-color="#BAB0F9" />
      <stop offset="0.28" stop-color="#BAB1FB" />
      <stop offset="0.42" stop-color="#BAB1FB" />
      <stop offset="0.69" stop-color="#C48A9F" />
      <stop offset="1" stop-color="#D25D31" />
    </linearGradient>
    <linearGradient id="paint48_linear_22_133" x1="192.834" y1="49.7114" x2="1333.66" y2="-722.685"
      gradientUnits="userSpaceOnUse">
      <stop stop-color="#BEADF0" />
      <stop offset="0.17" stop-color="#BCAEF3" />
      <stop offset="0.28" stop-color="#BAB2FB" />
      <stop offset="0.42" stop-color="#BAB2FB" />
      <stop offset="0.68" stop-color="#C58B9F" />
      <stop offset="1" stop-color="#D35B2D" />
    </linearGradient>
    <linearGradient id="paint49_linear_22_133" x1="178.09" y1="49.8485" x2="1343.72" y2="-739.343"
      gradientUnits="userSpaceOnUse">
      <stop stop-color="#BDAEF4" />
      <stop offset="0.19" stop-color="#BCAFF7" />
      <stop offset="0.28" stop-color="#BBB2FC" />
      <stop offset="0.42" stop-color="#BBB2FC" />
      <stop offset="0.68" stop-color="#C58BA0" />
      <stop offset="1" stop-color="#D4592A" />
    </linearGradient>
    <linearGradient id="paint50_linear_22_133" x1="163.342" y1="49.9803" x2="1353.85" y2="-756.056"
      gradientUnits="userSpaceOnUse">
      <stop stop-color="#BDB0F9" />
      <stop offset="0.28" stop-color="#BBB2FC" />
      <stop offset="0.42" stop-color="#BBB2FC" />
      <stop offset="0.67" stop-color="#C68BA0" />
      <stop offset="1" stop-color="#D55826" />
    </linearGradient>
    <linearGradient id="paint51_linear_22_133" x1="148.598" y1="50.1175" x2="1364.06" y2="-772.812"
      gradientUnits="userSpaceOnUse">
      <stop offset="0.42" stop-color="#BCB2FD" />
      <stop offset="0.67" stop-color="#C68BA1" />
      <stop offset="1" stop-color="#D65622" />
    </linearGradient>
    <linearGradient id="paint52_linear_22_133" x1="592" y1="127.719" x2="736" y2="127.719"
      gradientUnits="userSpaceOnUse">
      <stop stop-color="#BCB2FD" />
      <stop offset="1" stop-color="#FBEEE9" />
    </linearGradient>
    <linearGradient id="paint53_linear_22_133" x1="616" y1="127.719" x2="712" y2="127.719"
      gradientUnits="userSpaceOnUse">
      <stop stop-color="#BCB2FD" />
      <stop offset="1" stop-color="#FBEEE9" />
    </linearGradient>
    <linearGradient id="paint54_linear_22_133" x1="616" y1="127.719" x2="712" y2="127.719"
      gradientUnits="userSpaceOnUse">
      <stop stop-color="#BCB2FD" />
      <stop offset="1" stop-color="#FBEEE9" />
    </linearGradient>
    <clipPath id="clip0_22_133">
      <rect width="1280" height="250" fill="white" />
    </clipPath>
    <clipPath id="clip1_22_133">
      <rect width="1728" height="1117" fill="white" transform="translate(-224 -433)" />
    </clipPath>
  </defs>
</svg>
  