<svg width="1280" height="640" viewBox="0 0 1280 640" fill="none" xmlns="http://www.w3.org/2000/svg">
<g clip-path="url(#clip0_22_133)">
<rect width="1280" height="640" fill="white"/>
<g clip-path="url(#clip1_22_133)">
<rect width="1728" height="1117" transform="translate(-224 -238)" fill="#004F49"/>
<path d="M-363.131 -35.4419C1566.1 15.6973 1600.38 887.785 1600.38 887.785" stroke="url(#paint0_linear_22_133)" stroke-width="2" stroke-miterlimit="10"/>
<path d="M1584.92 888.239C1579.86 888.239 1583.79 461.129 940.054 181.404C761.003 103.598 528.883 43.3658 248.989 7.17386C68.6197 -16.1489 -134.661 -37.478 -363.131 -45.0835" stroke="url(#paint1_linear_22_133)" stroke-width="2" stroke-miterlimit="10"/>
<path d="M1569.45 888.703C1559.35 888.703 1583.81 454.484 952.258 169.653C771.404 88.0917 531.151 31.2774 254.495 0.222549C71.5417 -20.3154 -133.743 -45.5369 -363.131 -54.7141" stroke="url(#paint2_linear_22_133)" stroke-width="2" stroke-miterlimit="10"/>
<path d="M1553.99 889.167C1538.83 889.167 1583.9 447.374 964.453 157.902C781.763 72.5325 533.314 19.3786 259.991 -6.72901C74.3792 -24.4505 -132.815 -53.5855 -363.131 -64.3345" stroke="url(#paint3_linear_22_133)" stroke-width="2" stroke-miterlimit="10"/>
<path d="M1538.53 889.621C1518.32 889.621 1584.1 439.822 976.668 146.151C792.09 56.9209 535.424 7.66987 265.519 -13.6803C77.1433 -28.5748 -131.886 -61.6444 -363.12 -73.9651" stroke="url(#paint4_linear_22_133)" stroke-width="2" stroke-miterlimit="10"/>
<path d="M1523.07 890.085C1497.81 890.085 1584.4 431.847 988.872 134.4C802.385 41.2458 537.448 -3.84919 271.025 -20.6319C79.8116 -32.6783 -130.969 -69.7036 -363.131 -83.5959" stroke="url(#paint5_linear_22_133)" stroke-width="2" stroke-miterlimit="10"/>
<path d="M1507.61 890.549C1477.29 890.549 1584.79 423.471 1001.08 122.648C812.638 25.5281 539.4 -15.1891 276.531 -27.5836C82.4066 -36.7397 -130.051 -77.7629 -363.131 -93.2271" stroke="url(#paint6_linear_22_133)" stroke-width="2" stroke-miterlimit="10"/>
<path d="M1492.14 891.003C1456.78 891.003 1585.29 414.695 1013.28 110.887C822.86 9.74807 541.288 -26.349 282.037 -34.5452C84.9277 -40.7794 -129.133 -85.8215 -363.131 -102.868" stroke="url(#paint7_linear_22_133)" stroke-width="2" stroke-miterlimit="10"/>
<path d="M1476.68 891.467C1436.27 891.467 1585.89 405.56 1025.48 99.1466C833.06 -6.06426 543.124 -37.309 287.544 -41.4862C87.375 -44.7563 -128.216 -93.8702 -363.131 -112.488" stroke="url(#paint8_linear_22_133)" stroke-width="2" stroke-miterlimit="10"/>
<path d="M1461.21 891.92C1415.75 891.92 1586.6 396.066 1037.68 87.3849C843.25 -21.9505 544.907 -48.1108 293.05 -48.4483C89.77 -48.712 -127.287 -101.94 -363.141 -122.119" stroke="url(#paint9_linear_22_133)" stroke-width="2" stroke-miterlimit="10"/>
<path d="M1445.76 892.384C1395.24 892.384 1587.45 386.245 1049.9 75.6336C853.429 -37.8896 546.668 -58.7334 298.567 -55.4001C92.1218 -52.6153 -126.359 -109.999 -363.131 -131.75" stroke="url(#paint10_linear_22_133)" stroke-width="2" stroke-miterlimit="10"/>
<path d="M1430.3 892.848C1374.73 892.848 1588.39 376.098 1062.1 63.8827C863.599 -53.881 548.377 -69.1974 304.084 -62.3514C94.4218 -56.4759 -125.43 -118.048 -363.12 -141.381" stroke="url(#paint11_linear_22_133)" stroke-width="2" stroke-miterlimit="10"/>
<path d="M1414.83 893.302C1354.21 893.302 1589.45 365.644 1074.29 52.1313C873.746 -69.9255 550.043 -79.4931 309.579 -69.3032C96.6471 -60.2737 -124.524 -126.107 -363.131 -151.001" stroke="url(#paint12_linear_22_133)" stroke-width="2" stroke-miterlimit="10"/>
<path d="M1399.37 893.766C1333.69 893.766 1590.62 354.916 1086.5 40.3805C883.904 -86.0224 551.7 -89.63 315.086 -76.2545C98.8412 -64.0182 -123.595 -134.166 -363.131 -160.632" stroke="url(#paint13_linear_22_133)" stroke-width="2" stroke-miterlimit="10"/>
<path d="M1383.9 894.22C1313.18 894.22 1591.92 343.893 1098.7 28.619C894.062 -102.193 553.335 -99.6404 320.603 -83.2163C101.004 -67.71 -122.678 -142.225 -363.131 -170.263" stroke="url(#paint14_linear_22_133)" stroke-width="2" stroke-miterlimit="10"/>
<path d="M1368.44 894.684C1292.66 894.684 1593.32 332.627 1110.91 16.8787C904.231 -118.395 554.949 -109.471 326.109 -90.1571C103.124 -71.328 -121.749 -150.273 -363.131 -179.893" stroke="url(#paint15_linear_22_133)" stroke-width="2" stroke-miterlimit="10"/>
<path d="M1352.99 895.148C1272.15 895.148 1594.85 321.119 1123.11 5.12776C914.41 -134.672 556.541 -119.187 331.615 -97.1085C105.223 -74.8828 -120.832 -158.332 -363.131 -189.524" stroke="url(#paint16_linear_22_133)" stroke-width="2" stroke-miterlimit="10"/>
<path d="M1337.52 895.601C1251.64 895.601 1596.49 309.368 1135.32 -6.63429C924.6 -151.022 558.134 -128.765 337.122 -104.071C107.291 -78.3747 -119.914 -166.392 -363.131 -199.155" stroke="url(#paint17_linear_22_133)" stroke-width="2" stroke-miterlimit="10"/>
<path d="M1322.06 896.066C1231.12 896.066 1598.24 297.416 1147.52 -18.3852C934.811 -167.425 559.716 -138.216 342.638 -111.022C109.337 -81.7923 -118.986 -174.45 -363.131 -208.786" stroke="url(#paint18_linear_22_133)" stroke-width="2" stroke-miterlimit="10"/>
<path d="M1306.59 896.53C1210.61 896.53 1600.1 285.254 1159.73 -30.1255C945.043 -183.87 561.299 -147.53 348.145 -117.963C111.373 -85.1255 -118.068 -182.509 -363.131 -218.417" stroke="url(#paint19_linear_22_133)" stroke-width="2" stroke-miterlimit="10"/>
<path d="M1291.13 896.984C1190.1 896.984 1602.07 272.881 1171.92 -41.8869C955.307 -200.41 562.87 -156.75 353.641 -124.925C113.398 -88.3742 -117.14 -190.568 -363.131 -228.047" stroke="url(#paint20_linear_22_133)" stroke-width="2" stroke-miterlimit="10"/>
<path d="M1275.67 897.447C1169.58 897.447 1604.15 260.338 1184.13 -53.6384C965.602 -216.993 564.463 -165.843 359.158 -131.877C115.423 -91.5392 -116.222 -198.628 -363.131 -237.678" stroke="url(#paint21_linear_22_133)" stroke-width="2" stroke-miterlimit="10"/>
<path d="M1260.21 897.901C1149.07 897.901 1606.34 247.617 1196.34 -65.3999C975.94 -233.659 566.067 -174.851 364.674 -138.839C117.438 -94.6087 -115.304 -206.676 -363.131 -247.309" stroke="url(#paint22_linear_22_133)" stroke-width="2" stroke-miterlimit="10"/>
<path d="M1244.75 898.366C1128.56 898.366 1608.63 234.748 1208.55 -77.1402C986.32 -250.368 567.67 -183.733 370.181 -145.779C119.464 -97.5938 -114.376 -214.735 -363.131 -256.94" stroke="url(#paint23_linear_22_133)" stroke-width="2" stroke-miterlimit="10"/>
<path d="M1229.28 898.83C1108.04 898.83 1611.03 221.721 1220.74 -88.8911C996.731 -267.161 569.274 -192.53 375.687 -152.731C121.499 -100.473 -113.458 -222.794 -363.131 -266.57" stroke="url(#paint24_linear_22_133)" stroke-width="2" stroke-miterlimit="10"/>
<path d="M1213.82 899.283C1087.52 899.283 1613.53 208.534 1232.94 -100.653C1007.21 -284.039 570.898 -201.244 381.193 -159.693C123.546 -103.248 -112.53 -230.853 -363.131 -276.202" stroke="url(#paint25_linear_22_133)" stroke-width="2" stroke-miterlimit="10"/>
<path d="M1198.36 899.747C1067.01 899.747 1616.14 195.233 1245.15 -112.404C1017.73 -300.98 572.543 -209.862 386.7 -166.644C125.624 -105.916 -111.612 -238.912 -363.131 -285.821" stroke="url(#paint26_linear_22_133)" stroke-width="2" stroke-miterlimit="10"/>
<path d="M1182.89 900.201C1046.49 900.201 1618.85 181.804 1257.35 -124.155C1028.33 -317.995 574.21 -218.396 392.206 -173.596C127.712 -108.47 -110.695 -246.972 -363.131 -295.453" stroke="url(#paint27_linear_22_133)" stroke-width="2" stroke-miterlimit="10"/>
<path d="M1167.44 900.665C1025.98 900.665 1621.68 168.26 1269.56 -135.906C1038.99 -335.083 575.887 -226.856 397.723 -180.548C129.843 -110.906 -109.766 -255.031 -363.131 -305.083" stroke="url(#paint28_linear_22_133)" stroke-width="2" stroke-miterlimit="10"/>
<path d="M1151.97 901.129C1005.47 901.129 1624.58 154.621 1281.76 -147.657C1049.73 -352.246 577.596 -235.252 403.229 -187.499C132.016 -113.216 -108.849 -263.09 -363.131 -314.714" stroke="url(#paint29_linear_22_133)" stroke-width="2" stroke-miterlimit="10"/>
<path d="M1136.51 901.583C984.948 901.583 1627.6 140.866 1293.97 -159.408C1060.54 -369.503 579.337 -243.564 408.736 -194.45C134.221 -115.399 -107.92 -271.138 -363.131 -324.344" stroke="url(#paint30_linear_22_133)" stroke-width="2" stroke-miterlimit="10"/>
<path d="M1121.05 902.047C964.442 902.047 1630.7 127.026 1306.17 -171.159C1071.44 -386.834 581.088 -251.824 414.252 -201.402C136.489 -117.446 -107.003 -279.197 -363.131 -333.976" stroke="url(#paint31_linear_22_133)" stroke-width="2" stroke-miterlimit="10"/>
<path d="M1105.58 902.511C943.925 902.511 1633.9 113.113 1318.37 -182.91C1082.43 -404.26 582.87 -260.031 419.748 -208.353C138.81 -119.355 -106.074 -287.256 -363.131 -343.606" stroke="url(#paint32_linear_22_133)" stroke-width="2" stroke-miterlimit="10"/>
<path d="M1090.13 902.965C923.419 902.965 1637.22 99.1149 1330.58 -194.672C1093.53 -421.781 584.706 -268.184 425.265 -215.315C141.204 -121.107 -105.157 -295.315 -363.131 -353.237" stroke="url(#paint33_linear_22_133)" stroke-width="2" stroke-miterlimit="10"/>
<path d="M1074.66 903.429C902.902 903.429 1640.62 85.0539 1342.79 -206.412C1104.74 -439.376 586.562 -276.264 430.771 -222.256C143.662 -122.71 -104.239 -303.374 -363.131 -362.868" stroke="url(#paint34_linear_22_133)" stroke-width="2" stroke-miterlimit="10"/>
<path d="M1059.2 903.882C882.385 903.882 1644.11 70.9184 1354.99 -218.174C1116.06 -457.088 588.451 -284.324 436.288 -229.219C146.215 -124.166 -103.311 -311.434 -363.131 -372.499" stroke="url(#paint35_linear_22_133)" stroke-width="2" stroke-miterlimit="10"/>
<path d="M1043.74 904.346C861.868 904.346 1647.71 56.7519 1367.18 -229.925C1127.49 -474.883 590.371 -292.32 441.784 -236.17C148.852 -125.442 -102.393 -319.493 -363.131 -382.13" stroke="url(#paint36_linear_22_133)" stroke-width="2" stroke-miterlimit="10"/>
<path d="M1028.27 904.811C841.351 904.811 1651.4 42.5327 1379.39 -241.676C1139.06 -492.773 592.332 -300.284 447.29 -243.121C151.584 -126.549 -101.465 -327.541 -363.131 -391.76" stroke="url(#paint37_linear_22_133)" stroke-width="2" stroke-miterlimit="10"/>
<path d="M1012.81 905.264C820.834 905.264 1655.19 28.2712 1391.59 -253.427C1150.79 -510.779 594.347 -308.216 452.807 -250.073C154.432 -127.488 -100.547 -335.6 -363.131 -401.391" stroke="url(#paint38_linear_22_133)" stroke-width="2" stroke-miterlimit="10"/>
<path d="M997.353 905.728C800.328 905.728 1659.08 13.9881 1403.81 -265.178C1162.67 -528.881 596.404 -316.117 458.324 -257.024C157.396 -128.238 -99.6292 -343.659 -363.131 -411.022" stroke="url(#paint39_linear_22_133)" stroke-width="2" stroke-miterlimit="10"/>
<path d="M981.889 906.193C779.811 906.193 1663.07 -0.315288 1416.01 -276.929C1174.72 -547.098 598.514 -323.986 463.83 -263.976C160.497 -128.807 -98.7009 -351.718 -363.131 -420.642" stroke="url(#paint40_linear_22_133)" stroke-width="2" stroke-miterlimit="10"/>
<path d="M966.425 906.646C759.294 906.646 1667.14 -14.6407 1428.21 -288.681C1186.92 -565.421 600.645 -331.835 469.337 -270.927C163.736 -129.176 -97.7832 -359.778 -363.131 -430.273" stroke="url(#paint41_linear_22_133)" stroke-width="2" stroke-miterlimit="10"/>
<path d="M950.961 907.11C738.777 907.11 1671.33 -28.9759 1440.41 -300.431C1199.33 -583.849 602.849 -339.661 474.843 -277.879C167.132 -129.345 -96.8549 -367.836 -363.131 -439.904" stroke="url(#paint42_linear_22_133)" stroke-width="2" stroke-miterlimit="10"/>
<path d="M935.497 907.564C718.271 907.564 1675.6 -43.3112 1452.62 -312.193C1211.93 -602.414 605.107 -347.488 480.349 -284.841C170.698 -129.313 -95.9372 -375.895 -363.131 -449.535" stroke="url(#paint43_linear_22_133)" stroke-width="2" stroke-miterlimit="10"/>
<path d="M920.033 908.028C697.754 908.028 1679.99 -57.6254 1464.82 -323.944C1224.75 -621.085 607.417 -355.294 485.856 -291.792C174.432 -129.071 -95.0195 -383.944 -363.131 -459.165" stroke="url(#paint44_linear_22_133)" stroke-width="2" stroke-miterlimit="10"/>
<path d="M904.579 908.492C677.248 908.492 1684.48 -71.9294 1477.03 -335.684C1237.79 -639.861 609.78 -363.089 491.373 -298.733C178.367 -128.617 -94.0912 -392.003 -363.131 -468.796" stroke="url(#paint45_linear_22_133)" stroke-width="2" stroke-miterlimit="10"/>
<path d="M889.115 908.946C656.731 908.946 1689.07 -86.2121 1489.23 -347.446C1251.08 -658.786 612.216 -370.895 496.879 -305.695C182.502 -127.953 -93.1735 -400.062 -363.131 -478.427" stroke="url(#paint46_linear_22_133)" stroke-width="2" stroke-miterlimit="10"/>
<path d="M873.651 909.41C636.214 909.41 1693.76 -100.442 1501.44 -359.197C1264.61 -677.815 614.706 -378.701 502.385 -312.646C186.858 -127.077 -92.2452 -408.121 -363.131 -488.058" stroke="url(#paint47_linear_22_133)" stroke-width="2" stroke-miterlimit="10"/>
<path d="M858.187 909.863C615.697 909.863 1698.56 -114.651 1513.64 -370.958C1278.43 -696.971 617.269 -386.518 507.902 -319.608C191.447 -125.99 -91.3275 -416.18 -363.131 -497.688" stroke="url(#paint48_linear_22_133)" stroke-width="2" stroke-miterlimit="10"/>
<path d="M842.722 910.327C595.18 910.327 1703.46 -128.786 1525.83 -382.699C1292.51 -716.233 619.885 -394.324 513.398 -326.55C196.278 -124.683 -90.4097 -424.239 -363.131 -507.319" stroke="url(#paint49_linear_22_133)" stroke-width="2" stroke-miterlimit="10"/>
<path d="M827.259 910.792C574.664 910.792 1708.47 -142.868 1538.04 -394.45C1306.92 -735.61 622.575 -402.161 518.904 -333.501C201.362 -123.174 -89.4814 -432.298 -363.131 -516.95" stroke="url(#paint50_linear_22_133)" stroke-width="2" stroke-miterlimit="10"/>
<path d="M811.805 911.245C554.157 911.245 1713.61 -156.876 1550.25 -406.212C1321.66 -755.125 625.36 -410.03 524.421 -340.463C206.721 -121.454 -88.5637 -440.347 -363.131 -526.581" stroke="url(#paint51_linear_22_133)" stroke-width="2" stroke-miterlimit="10"/>
</g>
<path fill-rule="evenodd" clip-rule="evenodd" d="M352.545 282.874H424.057C444.434 282.874 461.011 299.365 461.011 319.636C461.011 339.906 444.434 356.398 424.057 356.398H352.545C332.168 356.398 315.591 339.906 315.591 319.636C315.591 299.365 332.168 282.874 352.545 282.874ZM385.378 339.86C386.276 340.796 387.605 340.75 388.782 340.507L388.794 340.513C389.34 340.072 388.563 339.514 387.821 338.981C387.377 338.662 386.944 338.351 386.818 338.08C387.228 337.584 386.014 336.457 385.068 335.579C384.671 335.211 384.322 334.886 384.16 334.671C383.487 333.945 383.217 333.029 382.945 332.108C382.764 331.496 382.583 330.882 382.283 330.32C380.435 326.067 378.319 321.849 375.353 318.249C373.446 315.856 371.27 313.714 369.093 311.57C367.69 310.188 366.286 308.806 364.954 307.357C363.584 305.954 362.759 304.226 361.933 302.495C361.241 301.046 360.548 299.595 359.534 298.331C356.462 293.824 346.763 292.593 345.341 298.961C345.347 299.157 345.282 299.284 345.108 299.411C344.321 299.983 343.621 300.631 343.033 301.416C341.593 303.41 341.371 306.79 343.167 308.582C343.169 308.543 343.172 308.505 343.174 308.467C343.234 307.562 343.29 306.717 344.012 306.068C345.399 307.253 347.503 307.674 349.112 306.79C351.052 309.549 351.669 312.883 352.289 316.229C352.806 319.016 353.324 321.811 354.608 324.287C354.635 324.331 354.661 324.375 354.688 324.419C355.443 325.665 356.21 326.932 357.179 328.02C357.531 328.561 358.253 329.144 358.974 329.727C359.925 330.496 360.875 331.262 360.967 331.926C360.972 332.215 360.97 332.508 360.969 332.803C360.962 334.546 360.954 336.352 362.081 337.786C362.704 339.04 361.177 340.299 359.947 340.143C359.273 340.236 358.536 340.06 357.805 339.885C356.804 339.646 355.813 339.409 355.005 339.866C354.778 340.109 354.452 340.118 354.125 340.126C353.737 340.136 353.347 340.147 353.116 340.548C353.069 340.667 352.958 340.802 352.843 340.942C352.59 341.249 352.316 341.582 352.644 341.836C352.674 341.814 352.703 341.792 352.732 341.77C353.23 341.394 353.704 341.035 354.375 341.259C354.286 341.75 354.606 341.882 354.927 342.014C354.982 342.037 355.038 342.06 355.092 342.085C355.089 342.199 355.066 342.314 355.043 342.429C354.99 342.702 354.937 342.97 355.15 343.206C355.252 343.104 355.342 342.989 355.431 342.874C355.651 342.592 355.872 342.309 356.27 342.206C357.143 343.363 358.024 342.883 359.128 342.28C360.374 341.6 361.905 340.764 364.033 341.946C363.217 341.906 362.489 342.004 361.941 342.674C361.807 342.825 361.69 342.998 361.929 343.194C363.189 342.385 363.713 342.676 364.206 342.95C364.562 343.147 364.902 343.336 365.491 343.096C365.63 343.024 365.769 342.95 365.908 342.875C366.854 342.369 367.813 341.857 368.935 342.033C368.097 342.273 367.798 342.8 367.473 343.375C367.312 343.659 367.144 343.955 366.901 344.234C366.773 344.362 366.715 344.512 366.86 344.726C368.616 344.581 369.28 344.14 370.176 343.543C370.604 343.259 371.084 342.939 371.762 342.599C372.511 342.142 373.261 342.434 373.987 342.718C374.775 343.025 375.535 343.322 376.239 342.64C376.461 342.432 376.74 342.429 377.017 342.427C377.118 342.426 377.219 342.425 377.317 342.414C377.098 341.251 375.863 341.265 374.609 341.279C373.159 341.295 371.683 341.311 371.727 339.508C373.075 338.595 373.087 337.012 373.099 335.515C373.102 335.154 373.105 334.798 373.126 334.457C374.117 335.005 375.166 335.433 376.207 335.859C377.187 336.259 378.162 336.657 379.077 337.15C380.033 338.676 381.525 340.698 383.513 340.565C383.565 340.409 383.612 340.276 383.67 340.12C383.785 340.14 383.906 340.17 384.029 340.201C384.55 340.332 385.109 340.473 385.378 339.86ZM424.334 322.524C425.485 323.662 427.046 324.302 428.673 324.302C430.301 324.302 431.862 323.662 433.012 322.524C434.163 321.386 434.81 319.842 434.81 318.233C434.81 316.623 434.163 315.079 433.012 313.941C431.862 312.803 430.301 312.164 428.673 312.164C427.911 312.164 427.163 312.304 426.465 312.57L422.948 307.48L420.497 309.145L424.032 314.262C423.071 315.361 422.536 316.769 422.536 318.233C422.536 319.842 423.183 321.386 424.334 322.524ZM413.322 306.041C414.183 306.462 415.132 306.678 416.093 306.671C417.404 306.661 418.677 306.236 419.726 305.458C420.776 304.68 421.545 303.591 421.923 302.349C422.3 301.107 422.265 299.778 421.824 298.557C421.382 297.337 420.556 296.288 419.468 295.564C418.671 295.034 417.758 294.697 416.805 294.579C415.851 294.462 414.883 294.567 413.978 294.888C413.073 295.208 412.257 295.734 411.596 296.423C410.934 297.112 410.445 297.945 410.169 298.855C409.892 299.765 409.835 300.727 410.003 301.663C410.171 302.598 410.559 303.482 411.135 304.242C411.712 305.003 412.461 305.619 413.322 306.041ZM413.322 341.283C414.183 341.705 415.132 341.921 416.093 341.913C417.404 341.903 418.677 341.478 419.726 340.701C420.776 339.923 421.545 338.833 421.923 337.591C422.3 336.35 422.265 335.021 421.824 333.8C421.382 332.579 420.556 331.53 419.468 330.807C418.671 330.277 417.758 329.94 416.805 329.822C415.851 329.704 414.883 329.81 413.978 330.13C413.073 330.45 412.257 330.976 411.596 331.665C410.934 332.354 410.445 333.188 410.169 334.098C409.892 335.008 409.835 335.969 410.003 336.905C410.171 337.841 410.559 338.725 411.135 339.485C411.712 340.245 412.461 340.861 413.322 341.283ZM418.964 319.742V316.724H409.571C409.335 315.809 408.884 314.962 408.256 314.25L411.789 309.06L409.219 307.37L405.686 312.56C405.038 312.328 404.355 312.206 403.666 312.198C402.044 312.198 400.487 312.834 399.34 313.966C398.192 315.098 397.548 316.632 397.548 318.233C397.548 319.833 398.192 321.368 399.34 322.5C400.487 323.632 402.044 324.268 403.666 324.268C404.355 324.26 405.038 324.138 405.686 323.906L409.219 329.096L411.759 327.406L408.256 322.216C408.884 321.504 409.335 320.657 409.571 319.742H418.964Z" fill="#F1E9EA"/>
<path d="M663.278 300.503C660.089 297.99 655.694 296.719 650.215 296.719C646.264 296.719 642.667 297.643 639.526 299.463C636.384 301.283 633.872 303.942 632.065 307.357C630.252 310.777 629.337 314.955 629.337 319.78C629.337 323.461 629.879 326.772 630.952 329.621C632.018 332.464 633.528 334.896 635.428 336.855C637.328 338.808 639.566 340.311 642.084 341.322C644.602 342.333 647.342 342.842 650.221 342.842C654.523 342.842 658.265 341.911 661.348 340.08C664.432 338.248 666.827 335.682 668.482 332.452C670.138 329.216 670.977 325.466 670.977 321.3C670.977 321.179 670.965 320.797 670.948 320.156C670.931 319.641 670.907 319.22 670.878 318.908H655.327V324.339H663.312L663.278 324.588C662.899 327.171 662.153 329.355 661.057 331.083C659.955 332.816 658.51 334.128 656.773 334.977C655.036 335.827 652.972 336.249 650.693 336.225C647.639 336.185 645.051 335.474 643.011 334.111C640.971 332.747 639.421 330.823 638.407 328.378C637.398 325.951 636.885 323.056 636.885 319.774C636.885 316.492 637.404 313.58 638.418 311.124C639.444 308.657 640.989 306.709 643.023 305.346C645.057 303.982 647.645 303.312 650.693 303.352C653.736 303.352 656.277 304.167 658.247 305.773C660.171 307.339 661.581 309.448 662.456 312.043L669.736 310.899C668.587 306.467 666.419 302.965 663.278 300.492V300.503Z" fill="#F1E9EA"/>
<path d="M757.784 309.986C755.435 308.443 752.666 307.674 749.472 307.674C746.278 307.674 743.562 308.443 741.382 309.986C740.933 310.303 740.519 310.644 740.117 311.008V308.605H733.449V357.022H741.056V340.421C741.19 340.525 741.324 340.629 741.464 340.727C743.696 342.281 746.459 343.056 749.758 343.056C752.865 343.056 755.581 342.281 757.895 340.727C760.209 339.172 762.004 337.063 763.28 334.394C764.551 331.724 765.192 328.714 765.192 325.362C765.192 322.011 764.545 318.942 763.251 316.284C761.957 313.626 760.139 311.529 757.79 309.986H757.784ZM756.28 330.938C755.662 332.602 754.718 333.926 753.448 334.896C752.177 335.867 750.557 336.353 748.592 336.353C746.628 336.353 744.932 335.89 743.69 334.972C742.449 334.053 741.539 332.764 740.968 331.106C740.391 329.453 740.106 327.535 740.106 325.362C740.106 323.189 740.391 321.248 740.968 319.607C741.539 317.96 742.437 316.677 743.644 315.758C744.856 314.84 746.418 314.377 748.342 314.377C750.364 314.377 752.037 314.868 753.348 315.851C754.666 316.833 755.633 318.156 756.263 319.826C756.886 321.49 757.201 323.34 757.201 325.368C757.201 327.396 756.892 329.274 756.28 330.938Z" fill="#F1E9EA"/>
<path d="M800.193 320.26C800.059 318.965 799.762 317.596 799.301 316.145C798.841 314.695 798.13 313.331 797.174 312.049C796.212 310.766 794.918 309.708 793.292 308.882C791.666 308.056 789.596 307.64 787.096 307.64C783.925 307.64 781.25 308.327 779.081 309.703C777.916 310.442 776.907 311.32 776.045 312.332V297.429H769.313V342.119H776.954V324.894C776.954 322.848 777.181 321.167 777.642 319.849C778.102 318.538 778.708 317.503 779.472 316.746C780.236 315.989 781.087 315.458 782.025 315.146C782.963 314.834 783.914 314.678 784.875 314.678C786.67 314.678 788.093 315.059 789.148 315.828C790.203 316.596 790.995 317.573 791.526 318.763C792.056 319.953 792.394 321.19 792.546 322.473C792.691 323.756 792.767 324.923 792.767 325.98V342.119H800.409V323.403C800.409 322.594 800.339 321.548 800.205 320.254L800.193 320.26Z" fill="#F1E9EA"/>
<path d="M693.336 308.899C692.299 308.969 691.279 309.165 690.294 309.477C689.308 309.789 688.405 310.223 687.595 310.76C686.639 311.344 685.817 312.089 685.141 312.979C684.844 313.372 684.57 313.794 684.302 314.262L684.022 314.753V309.038H677.733V341.848H684.92V325.166C684.92 323.894 685.077 322.687 685.386 321.583C685.701 320.479 686.19 319.474 686.849 318.607C687.507 317.735 688.37 317.012 689.419 316.452C690.457 315.834 691.652 315.464 692.957 315.36C694.175 315.262 695.277 315.342 696.239 315.591V309.015C695.3 308.871 694.327 308.83 693.336 308.899Z" fill="#F1E9EA"/>
<path d="M490.685 297.348V341.94H521.664V335.203H497.72V297.348H490.685Z" fill="#F1E9EA"/>
<path d="M538.183 307.929C531.433 307.929 526.38 311.066 524.328 316.538C524.194 316.891 523.803 317.943 523.803 317.943L529.591 321.652L530.378 319.618C531.719 316.151 534.202 314.539 538.183 314.539C542.164 314.539 544.443 316.452 544.402 320.225C544.402 320.381 544.39 320.843 544.39 320.843C544.39 320.843 539.121 321.693 536.953 322.144C527.691 324.085 523.809 327.587 523.809 333.325C523.809 336.382 525.523 339.687 528.647 341.542C530.524 342.657 532.972 343.073 535.67 343.073C537.448 343.073 539.173 342.813 540.776 342.328C544.413 341.131 545.422 338.78 545.422 338.78V341.854H551.443V319.861C551.443 312.384 546.488 307.923 538.188 307.923L538.183 307.929ZM544.419 331.401C544.419 333.712 541.878 336.965 535.962 336.965C534.295 336.965 533.106 336.526 532.319 335.873C531.264 335 530.914 333.741 531.06 332.637C531.124 332.158 531.415 331.117 532.505 330.216C533.619 329.291 535.583 328.638 538.62 327.98C541.12 327.442 544.419 326.847 544.419 326.847V331.401Z" fill="#F1E9EA"/>
<path d="M714.407 307.929C707.657 307.929 702.604 311.066 700.552 316.538C700.418 316.891 700.027 317.943 700.027 317.943L705.815 321.652L706.602 319.618C707.943 316.151 710.426 314.539 714.407 314.539C718.388 314.539 720.667 316.452 720.626 320.225C720.626 320.381 720.614 320.843 720.614 320.843C720.614 320.843 715.345 321.693 713.177 322.144C703.915 324.085 700.033 327.587 700.033 333.325C700.033 336.382 701.747 339.687 704.871 341.542C706.748 342.657 709.196 343.073 711.894 343.073C713.672 343.073 715.397 342.813 717 342.328C720.637 341.131 721.646 338.78 721.646 338.78V341.854H727.667V319.861C727.667 312.384 722.712 307.923 714.412 307.923L714.407 307.929ZM720.643 331.401C720.643 333.712 718.102 336.965 712.186 336.965C710.519 336.965 709.33 336.526 708.543 335.873C707.488 335 707.138 333.741 707.284 332.637C707.348 332.158 707.64 331.117 708.729 330.216C709.843 329.291 711.807 328.638 714.844 327.98C717.344 327.442 720.643 326.847 720.643 326.847V331.401Z" fill="#F1E9EA"/>
<path d="M573.685 307.929C572.846 307.929 572.03 307.986 571.243 308.096C565.851 308.899 564.272 311.615 564.272 311.615V308.899H557.528V341.871H564.563V323.582C564.563 317.371 569.133 314.539 573.382 314.539C577.975 314.539 580.207 316.989 580.207 322.022V341.865H587.242V321.063C587.242 312.956 582.049 307.923 573.685 307.923V307.929Z" fill="#F1E9EA"/>
<path d="M616.596 308.876V312.274C616.596 312.274 614.87 307.928 607.031 307.928C597.291 307.928 591.235 314.597 591.235 325.321C591.235 331.377 593.188 336.144 596.632 339.155C599.308 341.495 602.887 342.697 607.153 342.778C610.114 342.836 612.038 342.033 613.232 341.276C615.535 339.825 616.386 338.444 616.386 338.444C616.386 338.444 616.287 339.525 616.112 340.987C615.984 342.044 615.745 342.79 615.745 342.79C614.672 346.569 611.542 348.753 606.972 348.753C602.403 348.753 599.634 347.262 599.086 344.327L592.249 346.349C593.432 351.995 598.777 355.369 606.547 355.369C611.828 355.369 615.972 353.948 618.857 351.134C621.766 348.302 623.246 344.217 623.246 338.993V308.876H616.596ZM616.153 325.628C616.153 332.227 612.9 336.168 607.456 336.168C601.622 336.168 598.276 332.215 598.276 325.327C598.276 318.439 601.622 314.545 607.456 314.545C612.772 314.545 616.106 318.468 616.153 324.784V325.622V325.628Z" fill="#F1E9EA"/>
<rect x="821" y="297.719" width="142" height="50" rx="25" stroke="url(#paint52_linear_22_133)" stroke-width="2"/>
<mask id="path-64-outside-1_22_133" maskUnits="userSpaceOnUse" x="845" y="310.719" width="94" height="25" fill="black">
<rect fill="white" x="845" y="310.719" width="94" height="25"/>
<path d="M854.587 335.199C852.976 335.199 851.526 334.932 850.235 334.399C848.955 333.855 847.894 333.087 847.051 332.095C846.219 331.103 845.675 329.924 845.419 328.559L847.819 328.159C848.203 329.652 849.014 330.825 850.251 331.679C851.488 332.521 852.966 332.943 854.683 332.943C855.814 332.943 856.827 332.767 857.723 332.415C858.619 332.052 859.323 331.54 859.835 330.879C860.347 330.217 860.603 329.433 860.603 328.527C860.603 327.929 860.496 327.423 860.283 327.007C860.07 326.58 859.787 326.228 859.435 325.951C859.083 325.673 858.699 325.444 858.283 325.263C857.867 325.071 857.462 324.916 857.067 324.799L851.227 323.055C850.523 322.852 849.872 322.596 849.275 322.287C848.678 321.967 848.155 321.588 847.707 321.151C847.27 320.703 846.928 320.18 846.683 319.583C846.438 318.985 846.315 318.303 846.315 317.535C846.315 316.233 846.656 315.108 847.339 314.159C848.022 313.209 848.955 312.479 850.139 311.967C851.323 311.455 852.672 311.204 854.187 311.215C855.723 311.215 857.094 311.487 858.299 312.031C859.515 312.575 860.518 313.353 861.307 314.367C862.096 315.369 862.619 316.559 862.875 317.935L860.411 318.383C860.251 317.38 859.883 316.511 859.307 315.775C858.731 315.039 857.995 314.473 857.099 314.079C856.214 313.673 855.238 313.465 854.171 313.455C853.136 313.455 852.214 313.631 851.403 313.983C850.603 314.324 849.968 314.793 849.499 315.391C849.03 315.988 848.795 316.671 848.795 317.439C848.795 318.217 849.008 318.841 849.435 319.311C849.872 319.78 850.406 320.148 851.035 320.415C851.675 320.681 852.294 320.9 852.891 321.071L857.403 322.399C857.872 322.527 858.422 322.713 859.051 322.959C859.691 323.193 860.31 323.535 860.907 323.983C861.515 324.42 862.016 324.996 862.411 325.711C862.806 326.425 863.003 327.332 863.003 328.431C863.003 329.497 862.79 330.452 862.363 331.295C861.947 332.137 861.355 332.847 860.587 333.423C859.83 333.999 858.939 334.436 857.915 334.735C856.902 335.044 855.792 335.199 854.587 335.199ZM875.394 334.719C874.423 334.921 873.463 335.001 872.514 334.959C871.575 334.916 870.732 334.713 869.986 334.351C869.25 333.988 868.69 333.423 868.306 332.655C867.996 332.015 867.826 331.369 867.794 330.719C867.772 330.057 867.762 329.305 867.762 328.463L867.762 312.639L870.098 312.639L870.098 328.367C870.098 329.092 870.103 329.7 870.114 330.191C870.135 330.671 870.247 331.097 870.45 331.471C870.834 332.185 871.442 332.612 872.274 332.751C873.116 332.889 874.156 332.857 875.394 332.655L875.394 334.719ZM864.066 319.455L864.066 317.439L875.394 317.439L875.394 319.455L864.066 319.455ZM885.086 335.151C884.051 335.151 883.145 334.991 882.366 334.671C881.598 334.351 880.942 333.919 880.398 333.375C879.865 332.831 879.433 332.212 879.102 331.519C878.771 330.815 878.531 330.073 878.382 329.295C878.233 328.505 878.158 327.721 878.158 326.943L878.158 317.439L880.526 317.439L880.526 326.255C880.526 327.204 880.617 328.084 880.798 328.895C880.979 329.705 881.267 330.415 881.662 331.023C882.067 331.62 882.585 332.084 883.214 332.415C883.854 332.745 884.627 332.911 885.534 332.911C886.366 332.911 887.097 332.767 887.726 332.479C888.366 332.191 888.899 331.78 889.326 331.247C889.763 330.703 890.094 330.047 890.318 329.279C890.542 328.5 890.654 327.625 890.654 326.655L892.318 327.023C892.318 328.793 892.009 330.281 891.39 331.487C890.771 332.692 889.918 333.604 888.83 334.223C887.742 334.841 886.494 335.151 885.086 335.151ZM890.894 334.719L890.894 330.463L890.654 330.463L890.654 317.439L893.006 317.439L893.006 334.719L890.894 334.719ZM903.862 335.199C902.251 335.199 900.875 334.799 899.734 333.999C898.593 333.188 897.718 332.095 897.11 330.719C896.502 329.343 896.198 327.791 896.198 326.063C896.198 324.345 896.497 322.799 897.094 321.423C897.702 320.047 898.571 318.959 899.702 318.159C900.833 317.359 902.187 316.959 903.766 316.959C905.387 316.959 906.753 317.353 907.862 318.143C908.971 318.932 909.809 320.015 910.374 321.391C910.95 322.756 911.238 324.313 911.238 326.063C911.238 327.78 910.955 329.332 910.39 330.719C909.825 332.095 908.993 333.188 907.894 333.999C906.795 334.799 905.451 335.199 903.862 335.199ZM904.102 333.007C905.329 333.007 906.342 332.708 907.142 332.111C907.942 331.513 908.539 330.692 908.934 329.647C909.329 328.591 909.526 327.396 909.526 326.063C909.526 324.708 909.329 323.513 908.934 322.479C908.539 321.433 907.942 320.617 907.142 320.031C906.353 319.444 905.355 319.151 904.15 319.151C902.913 319.151 901.889 319.455 901.078 320.063C900.267 320.671 899.665 321.497 899.27 322.543C898.886 323.588 898.694 324.761 898.694 326.063C898.694 327.375 898.891 328.559 899.286 329.615C899.691 330.66 900.294 331.487 901.094 332.095C901.894 332.703 902.897 333.007 904.102 333.007ZM909.526 334.719L909.526 321.711L909.27 321.711L909.27 311.679L911.638 311.679L911.638 334.719L909.526 334.719ZM916.127 314.159L916.127 311.519L918.479 311.519L918.479 314.159L916.127 314.159ZM916.127 334.719L916.127 317.439L918.479 317.439L918.479 334.719L916.127 334.719ZM930.172 335.199C928.454 335.199 926.988 334.809 925.772 334.031C924.556 333.252 923.622 332.175 922.972 330.799C922.321 329.423 921.996 327.844 921.996 326.063C921.996 324.249 922.326 322.66 922.988 321.295C923.649 319.929 924.588 318.868 925.804 318.111C927.03 317.343 928.486 316.959 930.172 316.959C931.9 316.959 933.372 317.348 934.588 318.127C935.814 318.895 936.748 319.967 937.388 321.343C938.038 322.708 938.364 324.281 938.364 326.063C938.364 327.876 938.038 329.471 937.388 330.847C936.737 332.212 935.798 333.279 934.572 334.047C933.345 334.815 931.878 335.199 930.172 335.199ZM930.172 332.943C932.092 332.943 933.521 332.308 934.46 331.039C935.398 329.759 935.868 328.1 935.868 326.063C935.868 323.972 935.393 322.308 934.444 321.071C933.505 319.833 932.081 319.215 930.172 319.215C928.881 319.215 927.814 319.508 926.972 320.095C926.14 320.671 925.516 321.476 925.1 322.511C924.694 323.535 924.492 324.719 924.492 326.063C924.492 328.143 924.972 329.812 925.932 331.071C926.892 332.319 928.305 332.943 930.172 332.943Z"/>
</mask>
<path d="M854.587 335.199C852.976 335.199 851.526 334.932 850.235 334.399C848.955 333.855 847.894 333.087 847.051 332.095C846.219 331.103 845.675 329.924 845.419 328.559L847.819 328.159C848.203 329.652 849.014 330.825 850.251 331.679C851.488 332.521 852.966 332.943 854.683 332.943C855.814 332.943 856.827 332.767 857.723 332.415C858.619 332.052 859.323 331.54 859.835 330.879C860.347 330.217 860.603 329.433 860.603 328.527C860.603 327.929 860.496 327.423 860.283 327.007C860.07 326.58 859.787 326.228 859.435 325.951C859.083 325.673 858.699 325.444 858.283 325.263C857.867 325.071 857.462 324.916 857.067 324.799L851.227 323.055C850.523 322.852 849.872 322.596 849.275 322.287C848.678 321.967 848.155 321.588 847.707 321.151C847.27 320.703 846.928 320.18 846.683 319.583C846.438 318.985 846.315 318.303 846.315 317.535C846.315 316.233 846.656 315.108 847.339 314.159C848.022 313.209 848.955 312.479 850.139 311.967C851.323 311.455 852.672 311.204 854.187 311.215C855.723 311.215 857.094 311.487 858.299 312.031C859.515 312.575 860.518 313.353 861.307 314.367C862.096 315.369 862.619 316.559 862.875 317.935L860.411 318.383C860.251 317.38 859.883 316.511 859.307 315.775C858.731 315.039 857.995 314.473 857.099 314.079C856.214 313.673 855.238 313.465 854.171 313.455C853.136 313.455 852.214 313.631 851.403 313.983C850.603 314.324 849.968 314.793 849.499 315.391C849.03 315.988 848.795 316.671 848.795 317.439C848.795 318.217 849.008 318.841 849.435 319.311C849.872 319.78 850.406 320.148 851.035 320.415C851.675 320.681 852.294 320.9 852.891 321.071L857.403 322.399C857.872 322.527 858.422 322.713 859.051 322.959C859.691 323.193 860.31 323.535 860.907 323.983C861.515 324.42 862.016 324.996 862.411 325.711C862.806 326.425 863.003 327.332 863.003 328.431C863.003 329.497 862.79 330.452 862.363 331.295C861.947 332.137 861.355 332.847 860.587 333.423C859.83 333.999 858.939 334.436 857.915 334.735C856.902 335.044 855.792 335.199 854.587 335.199ZM875.394 334.719C874.423 334.921 873.463 335.001 872.514 334.959C871.575 334.916 870.732 334.713 869.986 334.351C869.25 333.988 868.69 333.423 868.306 332.655C867.996 332.015 867.826 331.369 867.794 330.719C867.772 330.057 867.762 329.305 867.762 328.463L867.762 312.639L870.098 312.639L870.098 328.367C870.098 329.092 870.103 329.7 870.114 330.191C870.135 330.671 870.247 331.097 870.45 331.471C870.834 332.185 871.442 332.612 872.274 332.751C873.116 332.889 874.156 332.857 875.394 332.655L875.394 334.719ZM864.066 319.455L864.066 317.439L875.394 317.439L875.394 319.455L864.066 319.455ZM885.086 335.151C884.051 335.151 883.145 334.991 882.366 334.671C881.598 334.351 880.942 333.919 880.398 333.375C879.865 332.831 879.433 332.212 879.102 331.519C878.771 330.815 878.531 330.073 878.382 329.295C878.233 328.505 878.158 327.721 878.158 326.943L878.158 317.439L880.526 317.439L880.526 326.255C880.526 327.204 880.617 328.084 880.798 328.895C880.979 329.705 881.267 330.415 881.662 331.023C882.067 331.62 882.585 332.084 883.214 332.415C883.854 332.745 884.627 332.911 885.534 332.911C886.366 332.911 887.097 332.767 887.726 332.479C888.366 332.191 888.899 331.78 889.326 331.247C889.763 330.703 890.094 330.047 890.318 329.279C890.542 328.5 890.654 327.625 890.654 326.655L892.318 327.023C892.318 328.793 892.009 330.281 891.39 331.487C890.771 332.692 889.918 333.604 888.83 334.223C887.742 334.841 886.494 335.151 885.086 335.151ZM890.894 334.719L890.894 330.463L890.654 330.463L890.654 317.439L893.006 317.439L893.006 334.719L890.894 334.719ZM903.862 335.199C902.251 335.199 900.875 334.799 899.734 333.999C898.593 333.188 897.718 332.095 897.11 330.719C896.502 329.343 896.198 327.791 896.198 326.063C896.198 324.345 896.497 322.799 897.094 321.423C897.702 320.047 898.571 318.959 899.702 318.159C900.833 317.359 902.187 316.959 903.766 316.959C905.387 316.959 906.753 317.353 907.862 318.143C908.971 318.932 909.809 320.015 910.374 321.391C910.95 322.756 911.238 324.313 911.238 326.063C911.238 327.78 910.955 329.332 910.39 330.719C909.825 332.095 908.993 333.188 907.894 333.999C906.795 334.799 905.451 335.199 903.862 335.199ZM904.102 333.007C905.329 333.007 906.342 332.708 907.142 332.111C907.942 331.513 908.539 330.692 908.934 329.647C909.329 328.591 909.526 327.396 909.526 326.063C909.526 324.708 909.329 323.513 908.934 322.479C908.539 321.433 907.942 320.617 907.142 320.031C906.353 319.444 905.355 319.151 904.15 319.151C902.913 319.151 901.889 319.455 901.078 320.063C900.267 320.671 899.665 321.497 899.27 322.543C898.886 323.588 898.694 324.761 898.694 326.063C898.694 327.375 898.891 328.559 899.286 329.615C899.691 330.66 900.294 331.487 901.094 332.095C901.894 332.703 902.897 333.007 904.102 333.007ZM909.526 334.719L909.526 321.711L909.27 321.711L909.27 311.679L911.638 311.679L911.638 334.719L909.526 334.719ZM916.127 314.159L916.127 311.519L918.479 311.519L918.479 314.159L916.127 314.159ZM916.127 334.719L916.127 317.439L918.479 317.439L918.479 334.719L916.127 334.719ZM930.172 335.199C928.454 335.199 926.988 334.809 925.772 334.031C924.556 333.252 923.622 332.175 922.972 330.799C922.321 329.423 921.996 327.844 921.996 326.063C921.996 324.249 922.326 322.66 922.988 321.295C923.649 319.929 924.588 318.868 925.804 318.111C927.03 317.343 928.486 316.959 930.172 316.959C931.9 316.959 933.372 317.348 934.588 318.127C935.814 318.895 936.748 319.967 937.388 321.343C938.038 322.708 938.364 324.281 938.364 326.063C938.364 327.876 938.038 329.471 937.388 330.847C936.737 332.212 935.798 333.279 934.572 334.047C933.345 334.815 931.878 335.199 930.172 335.199ZM930.172 332.943C932.092 332.943 933.521 332.308 934.46 331.039C935.398 329.759 935.868 328.1 935.868 326.063C935.868 323.972 935.393 322.308 934.444 321.071C933.505 319.833 932.081 319.215 930.172 319.215C928.881 319.215 927.814 319.508 926.972 320.095C926.14 320.671 925.516 321.476 925.1 322.511C924.694 323.535 924.492 324.719 924.492 326.063C924.492 328.143 924.972 329.812 925.932 331.071C926.892 332.319 928.305 332.943 930.172 332.943Z" fill="url(#paint53_linear_22_133)"/>
<path d="M850.235 334.399L850.187 334.511L850.188 334.511L850.235 334.399ZM847.051 332.095L846.957 332.173L846.958 332.173L847.051 332.095ZM845.419 328.559L845.399 328.438L845.276 328.459L845.299 328.581L845.419 328.559ZM847.819 328.159L847.937 328.128L847.909 328.02L847.799 328.038L847.819 328.159ZM850.251 331.679L850.182 331.779L850.182 331.779L850.251 331.679ZM857.723 332.415L857.767 332.528L857.769 332.528L857.723 332.415ZM859.835 330.879L859.931 330.953L859.931 330.953L859.835 330.879ZM860.283 327.007L860.174 327.061L860.174 327.062L860.283 327.007ZM859.435 325.951L859.51 325.855L859.51 325.855L859.435 325.951ZM858.283 325.263L858.232 325.373L858.234 325.374L858.283 325.263ZM857.067 324.799L857.032 324.915L857.032 324.915L857.067 324.799ZM851.227 323.055L851.262 322.938L851.261 322.937L851.227 323.055ZM849.275 322.287L849.217 322.394L849.219 322.395L849.275 322.287ZM847.707 321.151L847.62 321.236L847.622 321.238L847.707 321.151ZM846.683 319.583L846.57 319.629L846.57 319.629L846.683 319.583ZM847.339 314.159L847.24 314.087L847.24 314.087L847.339 314.159ZM854.187 311.215L854.186 311.336L854.187 311.336L854.187 311.215ZM858.299 312.031L858.249 312.142L858.249 312.142L858.299 312.031ZM861.307 314.367L861.211 314.441L861.211 314.442L861.307 314.367ZM862.875 317.935L862.897 318.054L863.017 318.033L862.995 317.912L862.875 317.935ZM860.411 318.383L860.29 318.402L860.31 318.525L860.433 318.502L860.411 318.383ZM859.307 315.775L859.403 315.699L859.403 315.699L859.307 315.775ZM857.099 314.079L857.048 314.189L857.05 314.19L857.099 314.079ZM854.171 313.455L854.172 313.333L854.171 313.333L854.171 313.455ZM851.403 313.983L851.451 314.095L851.451 314.094L851.403 313.983ZM849.435 319.311L849.345 319.393L849.346 319.394L849.435 319.311ZM851.035 320.415L850.987 320.527L850.988 320.527L851.035 320.415ZM852.891 321.071L852.925 320.954L852.924 320.953L852.891 321.071ZM857.403 322.399L857.368 322.516L857.371 322.516L857.403 322.399ZM859.051 322.959L859.007 323.072L859.009 323.073L859.051 322.959ZM860.907 323.983L860.834 324.08L860.836 324.081L860.907 323.983ZM862.411 325.711L862.518 325.652L862.518 325.652L862.411 325.711ZM862.363 331.295L862.254 331.239L862.254 331.241L862.363 331.295ZM860.587 333.423L860.514 333.325L860.513 333.325L860.587 333.423ZM857.915 334.735L857.881 334.617L857.879 334.618L857.915 334.735ZM854.587 335.077C852.99 335.077 851.555 334.812 850.281 334.286L850.188 334.511C851.496 335.052 852.963 335.32 854.587 335.32L854.587 335.077ZM850.283 334.286C849.019 333.749 847.973 332.992 847.144 332.016L846.958 332.173C847.814 333.181 848.891 333.96 850.187 334.511L850.283 334.286ZM847.144 332.016C846.327 331.041 845.791 329.882 845.539 328.536L845.299 328.581C845.559 329.965 846.111 331.164 846.957 332.173L847.144 332.016ZM845.439 328.679L847.839 328.279L847.799 328.038L845.399 328.438L845.439 328.679ZM847.701 328.189C848.092 329.71 848.919 330.908 850.182 331.779L850.32 331.578C849.108 330.742 848.314 329.594 847.937 328.128L847.701 328.189ZM850.182 331.779C851.443 332.638 852.945 333.064 854.683 333.064L854.683 332.821C852.986 332.821 851.534 332.405 850.32 331.578L850.182 331.779ZM854.683 333.064C855.826 333.064 856.855 332.886 857.767 332.528L857.678 332.301C856.799 332.647 855.801 332.821 854.683 332.821L854.683 333.064ZM857.769 332.528C858.681 332.158 859.404 331.634 859.931 330.953L859.738 330.804C859.242 331.446 858.556 331.946 857.677 332.301L857.769 332.528ZM859.931 330.953C860.461 330.269 860.725 329.458 860.725 328.527L860.481 328.527C860.481 329.409 860.232 330.166 859.738 330.804L859.931 330.953ZM860.725 328.527C860.725 327.915 860.616 327.388 860.391 326.951L860.174 327.062C860.377 327.457 860.481 327.943 860.481 328.527L860.725 328.527ZM860.392 326.952C860.171 326.51 859.877 326.144 859.51 325.855L859.359 326.046C859.696 326.312 859.968 326.649 860.174 327.061L860.392 326.952ZM859.51 325.855C859.15 325.571 858.757 325.336 858.332 325.151L858.234 325.374C858.641 325.552 859.016 325.775 859.359 326.046L859.51 325.855ZM858.334 325.152C857.913 324.958 857.502 324.801 857.102 324.682L857.032 324.915C857.421 325.031 857.82 325.183 858.232 325.373L858.334 325.152ZM857.102 324.682L851.262 322.938L851.192 323.171L857.032 324.915L857.102 324.682ZM851.261 322.937C850.564 322.737 849.921 322.484 849.331 322.178L849.219 322.395C849.824 322.708 850.482 322.967 851.193 323.172L851.261 322.937ZM849.332 322.179C848.744 321.864 848.231 321.492 847.792 321.063L847.622 321.238C848.079 321.684 848.611 322.069 849.217 322.394L849.332 322.179ZM847.794 321.065C847.368 320.629 847.035 320.12 846.796 319.536L846.57 319.629C846.821 320.24 847.171 320.776 847.62 321.236L847.794 321.065ZM846.796 319.536C846.557 318.956 846.437 318.29 846.437 317.535L846.193 317.535C846.193 318.315 846.318 319.014 846.57 319.629L846.796 319.536ZM846.437 317.535C846.437 316.256 846.772 315.156 847.438 314.23L847.24 314.087C846.541 315.06 846.193 316.211 846.193 317.535L846.437 317.535ZM847.438 314.23C848.106 313.3 849.021 312.583 850.187 312.078L850.09 311.855C848.888 312.374 847.937 313.118 847.24 314.087L847.438 314.23ZM850.187 312.078C851.353 311.574 852.685 311.326 854.186 311.336L854.188 311.093C852.659 311.082 851.292 311.335 850.09 311.855L850.187 312.078ZM854.187 311.336C855.708 311.336 857.061 311.606 858.249 312.142L858.349 311.919C857.126 311.367 855.737 311.093 854.187 311.093L854.187 311.336ZM858.249 312.142C859.448 312.678 860.434 313.444 861.211 314.441L861.403 314.292C860.601 313.262 859.582 312.471 858.349 311.919L858.249 312.142ZM861.211 314.442C861.987 315.428 862.502 316.598 862.755 317.957L862.995 317.912C862.736 316.519 862.205 315.311 861.403 314.291L861.211 314.442ZM862.853 317.815L860.389 318.263L860.433 318.502L862.897 318.054L862.853 317.815ZM860.531 318.363C860.368 317.342 859.993 316.453 859.403 315.699L859.211 315.85C859.773 316.568 860.133 317.418 860.29 318.402L860.531 318.363ZM859.403 315.699C858.814 314.947 858.062 314.369 857.148 313.967L857.05 314.19C857.928 314.577 858.648 315.13 859.211 315.85L859.403 315.699ZM857.15 313.968C856.247 313.555 855.254 313.343 854.172 313.333L854.17 313.576C855.221 313.587 856.18 313.792 857.048 314.189L857.15 313.968ZM854.171 313.333C853.122 313.333 852.183 313.511 851.354 313.871L851.451 314.094C852.244 313.75 853.15 313.576 854.171 313.576L854.171 313.333ZM851.355 313.87C850.539 314.219 849.887 314.7 849.403 315.315L849.595 315.466C850.05 314.887 850.667 314.429 851.451 314.095L851.355 313.87ZM849.403 315.315C848.917 315.934 848.673 316.644 848.673 317.439L848.917 317.439C848.917 316.698 849.143 316.041 849.595 315.466L849.403 315.315ZM848.673 317.439C848.673 318.24 848.893 318.896 849.345 319.393L849.525 319.228C849.123 318.786 848.917 318.194 848.917 317.439L848.673 317.439ZM849.346 319.394C849.795 319.876 850.343 320.254 850.987 320.527L851.082 320.302C850.468 320.042 849.949 319.683 849.524 319.227L849.346 319.394ZM850.988 320.527C851.632 320.795 852.255 321.016 852.857 321.188L852.924 320.953C852.332 320.784 851.718 320.567 851.082 320.302L850.988 320.527ZM852.856 321.187L857.368 322.515L857.437 322.282L852.925 320.954L852.856 321.187ZM857.371 322.516C857.835 322.643 858.38 322.828 859.007 323.072L859.095 322.845C858.463 322.599 857.91 322.41 857.435 322.281L857.371 322.516ZM859.009 323.073C859.637 323.303 860.245 323.639 860.834 324.08L860.98 323.885C860.374 323.43 859.745 323.083 859.093 322.844L859.009 323.073ZM860.836 324.081C861.428 324.507 861.917 325.069 862.304 325.769L862.518 325.652C862.115 324.923 861.602 324.332 860.978 323.884L860.836 324.081ZM862.304 325.769C862.686 326.461 862.881 327.346 862.881 328.431L863.125 328.431C863.125 327.318 862.925 326.389 862.518 325.652L862.304 325.769ZM862.881 328.431C862.881 329.481 862.671 330.416 862.254 331.239L862.472 331.35C862.908 330.488 863.125 329.514 863.125 328.431L862.881 328.431ZM862.254 331.241C861.846 332.066 861.267 332.76 860.514 333.325L860.66 333.52C861.443 332.933 862.048 332.209 862.472 331.348L862.254 331.241ZM860.513 333.325C859.769 333.891 858.892 334.322 857.881 334.617L857.949 334.852C858.986 334.549 859.89 334.106 860.661 333.52L860.513 333.325ZM857.879 334.618C856.879 334.923 855.782 335.077 854.587 335.077L854.587 335.32C855.803 335.32 856.924 335.164 857.95 334.851L857.879 334.618ZM875.394 334.719L875.419 334.838L875.516 334.818L875.516 334.719L875.394 334.719ZM872.514 334.959L872.508 335.08L872.508 335.08L872.514 334.959ZM869.986 334.351L869.932 334.46L869.932 334.46L869.986 334.351ZM868.306 332.655L868.196 332.708L868.197 332.709L868.306 332.655ZM867.794 330.719L867.672 330.722L867.672 330.724L867.794 330.719ZM867.762 312.639L867.762 312.517L867.64 312.517L867.64 312.639L867.762 312.639ZM870.098 312.639L870.22 312.639L870.22 312.517L870.098 312.517L870.098 312.639ZM870.114 330.191L869.992 330.193L869.992 330.196L870.114 330.191ZM870.45 331.471L870.557 331.413L870.557 331.412L870.45 331.471ZM872.274 332.751L872.254 332.871L872.254 332.871L872.274 332.751ZM875.394 332.655L875.516 332.655L875.516 332.511L875.374 332.534L875.394 332.655ZM864.066 319.455L863.944 319.455L863.944 319.576L864.066 319.576L864.066 319.455ZM864.066 317.439L864.066 317.317L863.944 317.317L863.944 317.439L864.066 317.439ZM875.394 317.439L875.516 317.439L875.516 317.317L875.394 317.317L875.394 317.439ZM875.394 319.455L875.394 319.576L875.516 319.576L875.516 319.455L875.394 319.455ZM875.369 334.599C874.408 334.8 873.458 334.879 872.519 334.837L872.508 335.08C873.468 335.123 874.438 335.043 875.419 334.838L875.369 334.599ZM872.519 334.837C871.595 334.795 870.769 334.595 870.039 334.241L869.932 334.46C870.696 334.831 871.555 335.037 872.508 335.08L872.519 334.837ZM870.04 334.241C869.329 333.891 868.787 333.345 868.415 332.6L868.197 332.709C868.592 333.5 869.171 334.085 869.932 334.46L870.04 334.241ZM868.415 332.601C868.113 331.975 867.947 331.345 867.915 330.713L867.672 330.724C867.705 331.393 867.88 332.054 868.196 332.708L868.415 332.601ZM867.916 330.715C867.894 330.055 867.884 329.304 867.884 328.463L867.64 328.463C867.64 329.306 867.65 330.059 867.672 330.722L867.916 330.715ZM867.884 328.463L867.884 312.639L867.64 312.639L867.64 328.463L867.884 328.463ZM867.762 312.76L870.098 312.76L870.098 312.517L867.762 312.517L867.762 312.76ZM869.976 312.639L869.976 328.367L870.22 328.367L870.22 312.639L869.976 312.639ZM869.976 328.367C869.976 329.092 869.981 329.701 869.992 330.193L870.236 330.188C870.225 329.698 870.22 329.091 870.22 328.367L869.976 328.367ZM869.992 330.196C870.014 330.692 870.13 331.137 870.342 331.529L870.557 331.412C870.364 331.057 870.256 330.649 870.235 330.185L869.992 330.196ZM870.342 331.528C870.745 332.278 871.386 332.726 872.254 332.871L872.294 332.63C871.497 332.497 870.922 332.093 870.557 331.413L870.342 331.528ZM872.254 332.871C873.114 333.012 874.168 332.979 875.413 332.775L875.374 332.534C874.144 332.736 873.118 332.766 872.293 332.63L872.254 332.871ZM875.272 332.655L875.272 334.719L875.516 334.719L875.516 332.655L875.272 332.655ZM864.188 319.455L864.188 317.439L863.944 317.439L863.944 319.455L864.188 319.455ZM864.066 317.56L875.394 317.56L875.394 317.317L864.066 317.317L864.066 317.56ZM875.272 317.439L875.272 319.455L875.516 319.455L875.516 317.439L875.272 317.439ZM875.394 319.333L864.066 319.333L864.066 319.576L875.394 319.576L875.394 319.333ZM882.366 334.671L882.319 334.783L882.32 334.783L882.366 334.671ZM880.398 333.375L880.311 333.46L880.312 333.461L880.398 333.375ZM879.102 331.519L878.992 331.57L878.992 331.571L879.102 331.519ZM878.382 329.295L878.262 329.317L878.262 329.317L878.382 329.295ZM878.158 317.439L878.158 317.317L878.036 317.317L878.036 317.439L878.158 317.439ZM880.526 317.439L880.648 317.439L880.648 317.317L880.526 317.317L880.526 317.439ZM880.798 328.895L880.917 328.868L880.917 328.868L880.798 328.895ZM881.662 331.023L881.56 331.089L881.561 331.091L881.662 331.023ZM883.214 332.415L883.157 332.522L883.158 332.523L883.214 332.415ZM887.726 332.479L887.676 332.367L887.675 332.368L887.726 332.479ZM889.326 331.247L889.231 331.17L889.231 331.17L889.326 331.247ZM890.318 329.279L890.435 329.313L890.435 329.312L890.318 329.279ZM890.654 326.655L890.68 326.535L890.532 326.503L890.532 326.655L890.654 326.655ZM892.318 327.023L892.44 327.023L892.44 326.925L892.344 326.903L892.318 327.023ZM891.39 331.487L891.499 331.542L891.499 331.542L891.39 331.487ZM888.83 334.223L888.77 334.117L888.83 334.223ZM890.894 334.719L890.772 334.719L890.772 334.84L890.894 334.84L890.894 334.719ZM890.894 330.463L891.016 330.463L891.016 330.341L890.894 330.341L890.894 330.463ZM890.654 330.463L890.532 330.463L890.532 330.584L890.654 330.584L890.654 330.463ZM890.654 317.439L890.654 317.317L890.532 317.317L890.532 317.439L890.654 317.439ZM893.006 317.439L893.128 317.439L893.128 317.317L893.006 317.317L893.006 317.439ZM893.006 334.719L893.006 334.84L893.128 334.84L893.128 334.719L893.006 334.719ZM885.086 335.029C884.064 335.029 883.173 334.87 882.412 334.558L882.32 334.783C883.116 335.111 884.039 335.272 885.086 335.272L885.086 335.029ZM882.413 334.558C881.659 334.244 881.016 333.82 880.484 333.288L880.312 333.461C880.868 334.017 881.538 334.457 882.319 334.783L882.413 334.558ZM880.485 333.289C879.961 332.755 879.537 332.147 879.212 331.466L878.992 331.571C879.328 332.276 879.768 332.906 880.311 333.46L880.485 333.289ZM879.212 331.467C878.886 330.772 878.649 330.04 878.502 329.272L878.262 329.317C878.414 330.106 878.657 330.857 878.992 331.57L879.212 331.467ZM878.502 329.272C878.354 328.49 878.28 327.713 878.28 326.943L878.036 326.943C878.036 327.729 878.112 328.521 878.262 329.317L878.502 329.272ZM878.28 326.943L878.28 317.439L878.036 317.439L878.036 326.943L878.28 326.943ZM878.158 317.56L880.526 317.56L880.526 317.317L878.158 317.317L878.158 317.56ZM880.404 317.439L880.404 326.255L880.648 326.255L880.648 317.439L880.404 317.439ZM880.404 326.255C880.404 327.212 880.496 328.101 880.679 328.921L880.917 328.868C880.738 328.067 880.648 327.196 880.648 326.255L880.404 326.255ZM880.679 328.921C880.863 329.744 881.156 330.467 881.56 331.089L881.764 330.956C881.379 330.362 881.096 329.666 880.917 328.868L880.679 328.921ZM881.561 331.091C881.978 331.705 882.51 332.182 883.157 332.522L883.271 332.307C882.66 331.985 882.157 331.535 881.763 330.954L881.561 331.091ZM883.158 332.523C883.819 332.864 884.613 333.032 885.534 333.032L885.534 332.789C884.642 332.789 883.889 332.626 883.27 332.306L883.158 332.523ZM885.534 333.032C886.38 333.032 887.129 332.886 887.777 332.589L887.675 332.368C887.065 332.647 886.352 332.789 885.534 332.789L885.534 333.032ZM887.776 332.59C888.433 332.294 888.982 331.872 889.421 331.323L889.231 331.17C888.817 331.688 888.299 332.087 887.676 332.367L887.776 332.59ZM889.421 331.323C889.87 330.765 890.207 330.094 890.435 329.313L890.201 329.244C889.981 329.999 889.657 330.64 889.231 331.17L889.421 331.323ZM890.435 329.312C890.663 328.521 890.776 327.634 890.776 326.655L890.532 326.655C890.532 327.616 890.421 328.479 890.201 329.245L890.435 329.312ZM890.628 326.774L892.292 327.142L892.344 326.903L890.68 326.535L890.628 326.774ZM892.196 327.023C892.196 328.78 891.889 330.247 891.282 331.431L891.499 331.542C892.128 330.315 892.44 328.807 892.44 327.023L892.196 327.023ZM891.282 331.431C890.673 332.617 889.836 333.511 888.77 334.117L888.89 334.329C890.001 333.697 890.87 332.767 891.499 331.542L891.282 331.431ZM888.77 334.117C887.702 334.723 886.476 335.029 885.086 335.029L885.086 335.272C886.513 335.272 887.782 334.959 888.89 334.329L888.77 334.117ZM891.016 334.719L891.016 330.463L890.772 330.463L890.772 334.719L891.016 334.719ZM890.894 330.341L890.654 330.341L890.654 330.584L890.894 330.584L890.894 330.341ZM890.776 330.463L890.776 317.439L890.532 317.439L890.532 330.463L890.776 330.463ZM890.654 317.56L893.006 317.56L893.006 317.317L890.654 317.317L890.654 317.56ZM892.884 317.439L892.884 334.719L893.128 334.719L893.128 317.439L892.884 317.439ZM893.006 334.597L890.894 334.597L890.894 334.84L893.006 334.84L893.006 334.597ZM899.734 333.999L899.664 334.098L899.664 334.098L899.734 333.999ZM897.11 330.719L897.222 330.669L897.11 330.719ZM897.094 321.423L896.983 321.373L896.982 321.374L897.094 321.423ZM899.702 318.159L899.632 318.059L899.632 318.059L899.702 318.159ZM907.862 318.143L907.791 318.242L907.791 318.242L907.862 318.143ZM910.374 321.391L910.261 321.437L910.262 321.438L910.374 321.391ZM910.39 330.719L910.503 330.765L910.503 330.765L910.39 330.719ZM907.894 333.999L907.966 334.097L907.967 334.097L907.894 333.999ZM907.142 332.111L907.215 332.208L907.215 332.208L907.142 332.111ZM908.934 329.647L909.048 329.69L909.048 329.689L908.934 329.647ZM908.934 322.479L908.82 322.522L908.82 322.522L908.934 322.479ZM907.142 320.031L907.069 320.128L907.07 320.129L907.142 320.031ZM901.078 320.063L901.005 319.965L901.005 319.965L901.078 320.063ZM899.27 322.543L899.156 322.499L899.156 322.5L899.27 322.543ZM899.286 329.615L899.172 329.657L899.172 329.659L899.286 329.615ZM901.094 332.095L901.02 332.192L901.02 332.192L901.094 332.095ZM909.526 334.719L909.404 334.719L909.404 334.84L909.526 334.84L909.526 334.719ZM909.526 321.711L909.648 321.711L909.648 321.589L909.526 321.589L909.526 321.711ZM909.27 321.711L909.148 321.711L909.148 321.832L909.27 321.832L909.27 321.711ZM909.27 311.679L909.27 311.557L909.148 311.557L909.148 311.679L909.27 311.679ZM911.638 311.679L911.76 311.679L911.76 311.557L911.638 311.557L911.638 311.679ZM911.638 334.719L911.638 334.84L911.76 334.84L911.76 334.719L911.638 334.719ZM903.862 335.077C902.272 335.077 900.922 334.682 899.804 333.899L899.664 334.098C900.829 334.915 902.23 335.32 903.862 335.32L903.862 335.077ZM899.805 333.899C898.683 333.102 897.821 332.027 897.222 330.669L896.999 330.768C897.615 332.162 898.503 333.274 899.664 334.098L899.805 333.899ZM897.222 330.669C896.621 329.311 896.32 327.776 896.32 326.063L896.076 326.063C896.076 327.805 896.383 329.374 896.999 330.768L897.222 330.669ZM896.32 326.063C896.32 324.359 896.616 322.83 897.206 321.471L896.982 321.374C896.377 322.767 896.076 324.331 896.076 326.063L896.32 326.063ZM897.206 321.472C897.806 320.114 898.661 319.044 899.773 318.258L899.632 318.059C898.481 318.873 897.599 319.979 896.983 321.373L897.206 321.472ZM899.773 318.258C900.88 317.475 902.209 317.08 903.766 317.08L903.766 316.837C902.166 316.837 900.786 317.242 899.632 318.059L899.773 318.258ZM903.766 317.08C905.367 317.08 906.706 317.47 907.791 318.242L907.933 318.043C906.799 317.236 905.408 316.837 903.766 316.837L903.766 317.08ZM907.791 318.242C908.88 319.017 909.704 320.08 910.261 321.437L910.487 321.344C909.914 319.949 909.063 318.847 907.933 318.043L907.791 318.242ZM910.262 321.438C910.83 322.786 911.116 324.327 911.116 326.063L911.36 326.063C911.36 324.3 911.07 322.726 910.486 321.343L910.262 321.438ZM911.116 326.063C911.116 327.766 910.836 329.302 910.277 330.672L910.503 330.765C911.075 329.361 911.36 327.793 911.36 326.063L911.116 326.063ZM910.277 330.672C909.72 332.029 908.901 333.104 907.822 333.9L907.967 334.097C909.085 333.272 909.93 332.16 910.503 330.765L910.277 330.672ZM907.822 333.9C906.748 334.682 905.43 335.077 903.862 335.077L903.862 335.32C905.473 335.32 906.843 334.915 907.966 334.097L907.822 333.9ZM904.102 333.128C905.349 333.128 906.39 332.825 907.215 332.208L907.069 332.013C906.295 332.591 905.309 332.885 904.102 332.885L904.102 333.128ZM907.215 332.208C908.036 331.595 908.646 330.754 909.048 329.69L908.82 329.603C908.433 330.63 907.848 331.431 907.069 332.013L907.215 332.208ZM909.048 329.689C909.449 328.617 909.648 327.408 909.648 326.063L909.404 326.063C909.404 327.384 909.209 328.564 908.82 329.604L909.048 329.689ZM909.648 326.063C909.648 324.696 909.449 323.486 909.048 322.435L908.82 322.522C909.209 323.54 909.404 324.719 909.404 326.063L909.648 326.063ZM909.048 322.435C908.646 321.371 908.036 320.535 907.214 319.932L907.07 320.129C907.849 320.7 908.433 321.495 908.82 322.522L909.048 322.435ZM907.215 319.933C906.4 319.327 905.376 319.029 904.15 319.029L904.15 319.272C905.335 319.272 906.305 319.561 907.069 320.128L907.215 319.933ZM904.15 319.029C902.892 319.029 901.841 319.338 901.005 319.965L901.151 320.16C901.937 319.571 902.933 319.272 904.15 319.272L904.15 319.029ZM901.005 319.965C900.174 320.588 899.558 321.435 899.156 322.499L899.384 322.586C899.772 321.56 900.361 320.753 901.151 320.16L901.005 319.965ZM899.156 322.5C898.766 323.561 898.572 324.749 898.572 326.063L898.816 326.063C898.816 324.773 899.006 323.614 899.385 322.585L899.156 322.5ZM898.572 326.063C898.572 327.387 898.771 328.586 899.172 329.657L899.4 329.572C899.012 328.532 898.816 327.362 898.816 326.063L898.572 326.063ZM899.172 329.659C899.585 330.722 900.2 331.568 901.02 332.192L901.168 331.997C900.388 331.405 899.798 330.597 899.4 329.57L899.172 329.659ZM901.02 332.192C901.846 332.819 902.876 333.128 904.102 333.128L904.102 332.885C902.918 332.885 901.943 332.586 901.168 331.997L901.02 332.192ZM909.648 334.719L909.648 321.711L909.404 321.711L909.404 334.719L909.648 334.719ZM909.526 321.589L909.27 321.589L909.27 321.832L909.526 321.832L909.526 321.589ZM909.392 321.711L909.392 311.679L909.148 311.679L909.148 321.711L909.392 321.711ZM909.27 311.8L911.638 311.8L911.638 311.557L909.27 311.557L909.27 311.8ZM911.516 311.679L911.516 334.719L911.76 334.719L911.76 311.679L911.516 311.679ZM911.638 334.597L909.526 334.597L909.526 334.84L911.638 334.84L911.638 334.597ZM916.127 314.159L916.005 314.159L916.005 314.28L916.127 314.28L916.127 314.159ZM916.127 311.519L916.127 311.397L916.005 311.397L916.005 311.519L916.127 311.519ZM918.479 311.519L918.601 311.519L918.601 311.397L918.479 311.397L918.479 311.519ZM918.479 314.159L918.479 314.28L918.601 314.28L918.601 314.159L918.479 314.159ZM916.127 334.719L916.005 334.719L916.005 334.84L916.127 334.84L916.127 334.719ZM916.127 317.439L916.127 317.317L916.005 317.317L916.005 317.439L916.127 317.439ZM918.479 317.439L918.601 317.439L918.601 317.317L918.479 317.317L918.479 317.439ZM918.479 334.719L918.479 334.84L918.601 334.84L918.601 334.719L918.479 334.719ZM916.249 314.159L916.249 311.519L916.005 311.519L916.005 314.159L916.249 314.159ZM916.127 311.64L918.479 311.64L918.479 311.397L916.127 311.397L916.127 311.64ZM918.357 311.519L918.357 314.159L918.601 314.159L918.601 311.519L918.357 311.519ZM918.479 314.037L916.127 314.037L916.127 314.28L918.479 314.28L918.479 314.037ZM916.249 334.719L916.249 317.439L916.005 317.439L916.005 334.719L916.249 334.719ZM916.127 317.56L918.479 317.56L918.479 317.317L916.127 317.317L916.127 317.56ZM918.357 317.439L918.357 334.719L918.601 334.719L918.601 317.439L918.357 317.439ZM918.479 334.597L916.127 334.597L916.127 334.84L918.479 334.84L918.479 334.597ZM925.772 334.031L925.837 333.928L925.837 333.928L925.772 334.031ZM922.972 330.799L922.861 330.851L922.861 330.851L922.972 330.799ZM922.988 321.295L922.878 321.241L922.878 321.241L922.988 321.295ZM925.804 318.111L925.868 318.214L925.868 318.214L925.804 318.111ZM934.588 318.127L934.522 318.229L934.523 318.23L934.588 318.127ZM937.388 321.343L937.277 321.394L937.278 321.395L937.388 321.343ZM937.388 330.847L937.498 330.899L937.498 330.899L937.388 330.847ZM934.46 331.039L934.558 331.111L934.558 331.111L934.46 331.039ZM934.444 321.071L934.346 321.144L934.347 321.145L934.444 321.071ZM926.972 320.095L927.041 320.195L927.041 320.195L926.972 320.095ZM925.1 322.511L924.986 322.465L924.986 322.466L925.1 322.511ZM925.932 331.071L925.835 331.144L925.835 331.145L925.932 331.071ZM930.172 335.077C928.473 335.077 927.03 334.692 925.837 333.928L925.706 334.133C926.945 334.927 928.435 335.32 930.172 335.32L930.172 335.077ZM925.837 333.928C924.642 333.162 923.723 332.103 923.082 330.746L922.861 330.851C923.521 332.246 924.47 333.342 925.706 334.133L925.837 333.928ZM923.082 330.746C922.44 329.389 922.118 327.829 922.118 326.063L921.874 326.063C921.874 327.859 922.202 329.456 922.861 330.851L923.082 330.746ZM922.118 326.063C922.118 324.264 922.445 322.693 923.097 321.348L922.878 321.241C922.207 322.626 921.874 324.234 921.874 326.063L922.118 326.063ZM923.097 321.348C923.749 320.002 924.673 318.958 925.868 318.214L925.739 318.007C924.502 318.777 923.549 319.857 922.878 321.241L923.097 321.348ZM925.868 318.214C927.073 317.46 928.505 317.08 930.172 317.08L930.172 316.837C928.467 316.837 926.988 317.225 925.739 318.007L925.868 318.214ZM930.172 317.08C931.881 317.08 933.329 317.465 934.522 318.229L934.653 318.024C933.414 317.23 931.918 316.837 930.172 316.837L930.172 317.08ZM934.523 318.23C935.729 318.985 936.646 320.038 937.277 321.394L937.498 321.291C936.849 319.895 935.9 318.804 934.652 318.023L934.523 318.23ZM937.278 321.395C937.919 322.741 938.242 324.296 938.242 326.063L938.486 326.063C938.486 324.266 938.157 322.674 937.498 321.29L937.278 321.395ZM938.242 326.063C938.242 327.861 937.919 329.437 937.277 330.794L937.498 330.899C938.158 329.504 938.486 327.89 938.486 326.063L938.242 326.063ZM937.278 330.794C936.636 332.139 935.713 333.188 934.507 333.943L934.636 334.15C935.884 333.369 936.838 332.284 937.498 330.899L937.278 330.794ZM934.507 333.943C933.303 334.697 931.86 335.077 930.172 335.077L930.172 335.32C931.897 335.32 933.387 334.932 934.636 334.15L934.507 333.943ZM930.172 333.064C932.121 333.064 933.591 332.418 934.558 331.111L934.362 330.966C933.451 332.197 932.062 332.821 930.172 332.821L930.172 333.064ZM934.558 331.111C935.516 329.804 935.99 328.118 935.99 326.063L935.746 326.063C935.746 328.081 935.281 329.713 934.361 330.966L934.558 331.111ZM935.99 326.063C935.99 323.954 935.511 322.261 934.54 320.996L934.347 321.145C935.275 322.355 935.746 323.99 935.746 326.063L935.99 326.063ZM934.541 320.997C933.574 319.722 932.109 319.093 930.172 319.093L930.172 319.336C932.053 319.336 933.436 319.944 934.346 321.144L934.541 320.997ZM930.172 319.093C928.862 319.093 927.77 319.39 926.902 319.994L927.041 320.195C927.859 319.625 928.899 319.336 930.172 319.336L930.172 319.093ZM926.902 319.994C926.049 320.585 925.41 321.411 924.986 322.465L925.213 322.556C925.621 321.541 926.231 320.756 927.041 320.195L926.902 319.994ZM924.986 322.466C924.574 323.507 924.37 324.706 924.37 326.063L924.614 326.063C924.614 324.731 924.814 323.562 925.213 322.555L924.986 322.466ZM924.37 326.063C924.37 328.161 924.854 329.859 925.835 331.144L926.029 330.997C925.089 329.765 924.614 328.124 924.614 326.063L924.37 326.063ZM925.835 331.145C926.822 332.429 928.275 333.064 930.172 333.064L930.172 332.821C928.335 332.821 926.961 332.208 926.028 330.996L925.835 331.145Z" fill="url(#paint54_linear_22_133)" mask="url(#path-64-outside-1_22_133)"/>
</g>
<defs>
<linearGradient id="paint0_linear_22_133" x1="193.552" y1="716.919" x2="992.572" y2="175.942" gradientUnits="userSpaceOnUse">
<stop stop-color="#D65622"/>
<stop offset="0.05" stop-color="#D55725"/>
<stop offset="0.09" stop-color="#D25B2F"/>
<stop offset="0.13" stop-color="#CC6341"/>
<stop offset="0.17" stop-color="#C56E59"/>
<stop offset="0.2" stop-color="#BC7C79"/>
<stop offset="0.24" stop-color="#B18DA0"/>
<stop offset="0.27" stop-color="#A4A0CD"/>
<stop offset="0.28" stop-color="#9EAAE3"/>
</linearGradient>
<linearGradient id="paint1_linear_22_133" x1="194.405" y1="706.571" x2="989.935" y2="167.957" gradientUnits="userSpaceOnUse">
<stop stop-color="#D55826"/>
<stop offset="0.05" stop-color="#D45929"/>
<stop offset="0.09" stop-color="#D15D33"/>
<stop offset="0.13" stop-color="#CC6545"/>
<stop offset="0.17" stop-color="#C5705D"/>
<stop offset="0.2" stop-color="#BC7D7D"/>
<stop offset="0.24" stop-color="#B18EA4"/>
<stop offset="0.27" stop-color="#A4A2D1"/>
<stop offset="0.28" stop-color="#9FAAE4"/>
<stop offset="0.42" stop-color="#9FAAE4"/>
<stop offset="1" stop-color="#9FA8DF"/>
</linearGradient>
<linearGradient id="paint2_linear_22_133" x1="195.223" y1="696.173" x2="988.27" y2="159.24" gradientUnits="userSpaceOnUse">
<stop stop-color="#D55A2B"/>
<stop offset="0.05" stop-color="#D45B2E"/>
<stop offset="0.09" stop-color="#D05F38"/>
<stop offset="0.13" stop-color="#CB674A"/>
<stop offset="0.17" stop-color="#C47262"/>
<stop offset="0.21" stop-color="#BB7F82"/>
<stop offset="0.24" stop-color="#B090A9"/>
<stop offset="0.28" stop-color="#9FAAE4"/>
<stop offset="0.42" stop-color="#9FAAE4"/>
<stop offset="1" stop-color="#A0A7DB"/>
</linearGradient>
<linearGradient id="paint3_linear_22_133" x1="196.036" y1="685.768" x2="987.558" y2="149.867" gradientUnits="userSpaceOnUse">
<stop stop-color="#D45B2F"/>
<stop offset="0.05" stop-color="#D35C32"/>
<stop offset="0.09" stop-color="#D0603C"/>
<stop offset="0.13" stop-color="#CB684E"/>
<stop offset="0.17" stop-color="#C47366"/>
<stop offset="0.21" stop-color="#BA8186"/>
<stop offset="0.24" stop-color="#AF91AD"/>
<stop offset="0.28" stop-color="#A0AAE5"/>
<stop offset="0.42" stop-color="#A0AAE5"/>
<stop offset="1" stop-color="#A1A5D8"/>
</linearGradient>
<linearGradient id="paint4_linear_22_133" x1="196.854" y1="675.369" x2="987.755" y2="139.889" gradientUnits="userSpaceOnUse">
<stop stop-color="#D45D33"/>
<stop offset="0.05" stop-color="#D35E36"/>
<stop offset="0.09" stop-color="#CF6340"/>
<stop offset="0.13" stop-color="#CA6A52"/>
<stop offset="0.17" stop-color="#C3756A"/>
<stop offset="0.21" stop-color="#BA838A"/>
<stop offset="0.24" stop-color="#AF94B1"/>
<stop offset="0.28" stop-color="#A0ABE5"/>
<stop offset="0.42" stop-color="#A0ABE5"/>
<stop offset="1" stop-color="#A2A3D4"/>
</linearGradient>
<linearGradient id="paint5_linear_22_133" x1="197.667" y1="664.965" x2="988.816" y2="129.317" gradientUnits="userSpaceOnUse">
<stop stop-color="#D35F37"/>
<stop offset="0.05" stop-color="#D2603A"/>
<stop offset="0.09" stop-color="#CF6444"/>
<stop offset="0.13" stop-color="#CA6C56"/>
<stop offset="0.17" stop-color="#C3776E"/>
<stop offset="0.21" stop-color="#B9858E"/>
<stop offset="0.25" stop-color="#AE95B5"/>
<stop offset="0.28" stop-color="#A1ABE6"/>
<stop offset="0.42" stop-color="#A1ABE6"/>
<stop offset="1" stop-color="#A3A2D0"/>
</linearGradient>
<linearGradient id="paint6_linear_22_133" x1="198.485" y1="654.566" x2="990.676" y2="118.212" gradientUnits="userSpaceOnUse">
<stop stop-color="#D3613C"/>
<stop offset="0.05" stop-color="#D2623F"/>
<stop offset="0.1" stop-color="#CF6649"/>
<stop offset="0.14" stop-color="#CA6E5B"/>
<stop offset="0.18" stop-color="#C27973"/>
<stop offset="0.21" stop-color="#B98793"/>
<stop offset="0.25" stop-color="#AE97B9"/>
<stop offset="0.28" stop-color="#A2ABE6"/>
<stop offset="0.42" stop-color="#A2ABE6"/>
<stop offset="1" stop-color="#A5A0CC"/>
</linearGradient>
<linearGradient id="paint7_linear_22_133" x1="199.298" y1="644.162" x2="993.286" y2="106.592" gradientUnits="userSpaceOnUse">
<stop stop-color="#D26340"/>
<stop offset="0.05" stop-color="#D16443"/>
<stop offset="0.1" stop-color="#CE684D"/>
<stop offset="0.14" stop-color="#C9705F"/>
<stop offset="0.18" stop-color="#C17B77"/>
<stop offset="0.21" stop-color="#B88897"/>
<stop offset="0.25" stop-color="#AD99BD"/>
<stop offset="0.28" stop-color="#A2ABE7"/>
<stop offset="0.42" stop-color="#A2ABE7"/>
<stop offset="1" stop-color="#A69EC9"/>
</linearGradient>
<linearGradient id="paint8_linear_22_133" x1="200.116" y1="633.763" x2="996.586" y2="94.5115" gradientUnits="userSpaceOnUse">
<stop stop-color="#D26444"/>
<stop offset="0.05" stop-color="#D16547"/>
<stop offset="0.1" stop-color="#CE6951"/>
<stop offset="0.14" stop-color="#C97163"/>
<stop offset="0.18" stop-color="#C17C7B"/>
<stop offset="0.22" stop-color="#B88A9B"/>
<stop offset="0.25" stop-color="#AD9AC1"/>
<stop offset="0.28" stop-color="#A3ABE7"/>
<stop offset="0.42" stop-color="#A3ABE7"/>
<stop offset="1" stop-color="#A79DC5"/>
</linearGradient>
<linearGradient id="paint9_linear_22_133" x1="200.93" y1="623.358" x2="1000.52" y2="81.9971" gradientUnits="userSpaceOnUse">
<stop stop-color="#D16649"/>
<stop offset="0.05" stop-color="#D0674C"/>
<stop offset="0.1" stop-color="#CD6B56"/>
<stop offset="0.14" stop-color="#C77368"/>
<stop offset="0.18" stop-color="#C07E80"/>
<stop offset="0.22" stop-color="#B78BA0"/>
<stop offset="0.26" stop-color="#AC9CC6"/>
<stop offset="0.28" stop-color="#A3ABE8"/>
<stop offset="0.42" stop-color="#A3ABE8"/>
<stop offset="1" stop-color="#A89BC1"/>
</linearGradient>
<linearGradient id="paint10_linear_22_133" x1="201.747" y1="612.959" x2="1005.03" y2="69.0926" gradientUnits="userSpaceOnUse">
<stop stop-color="#D1684D"/>
<stop offset="0.05" stop-color="#D06950"/>
<stop offset="0.1" stop-color="#CD6E5A"/>
<stop offset="0.14" stop-color="#C7756C"/>
<stop offset="0.18" stop-color="#C08084"/>
<stop offset="0.22" stop-color="#B78EA4"/>
<stop offset="0.26" stop-color="#AC9FCA"/>
<stop offset="0.28" stop-color="#A4ACE8"/>
<stop offset="0.42" stop-color="#A4ACE8"/>
<stop offset="1" stop-color="#A99ABD"/>
</linearGradient>
<linearGradient id="paint11_linear_22_133" x1="202.561" y1="602.554" x2="1010.08" y2="55.8236" gradientUnits="userSpaceOnUse">
<stop stop-color="#D06A51"/>
<stop offset="0.05" stop-color="#CF6B54"/>
<stop offset="0.1" stop-color="#CC6F5E"/>
<stop offset="0.14" stop-color="#C67770"/>
<stop offset="0.18" stop-color="#BF8288"/>
<stop offset="0.22" stop-color="#B690A8"/>
<stop offset="0.26" stop-color="#ABA0CE"/>
<stop offset="0.28" stop-color="#A4ACE9"/>
<stop offset="0.42" stop-color="#A4ACE9"/>
<stop offset="1" stop-color="#AA98B9"/>
</linearGradient>
<linearGradient id="paint12_linear_22_133" x1="203.378" y1="592.155" x2="1015.61" y2="42.2334" gradientUnits="userSpaceOnUse">
<stop stop-color="#D06C56"/>
<stop offset="0.06" stop-color="#CF6D59"/>
<stop offset="0.1" stop-color="#CB7163"/>
<stop offset="0.15" stop-color="#C67975"/>
<stop offset="0.19" stop-color="#BF848D"/>
<stop offset="0.23" stop-color="#B692AD"/>
<stop offset="0.27" stop-color="#ABA2D3"/>
<stop offset="0.28" stop-color="#A5ACE9"/>
<stop offset="0.42" stop-color="#A5ACE9"/>
<stop offset="1" stop-color="#AB96B6"/>
</linearGradient>
<linearGradient id="paint13_linear_22_133" x1="204.196" y1="581.756" x2="1021.57" y2="28.3499" gradientUnits="userSpaceOnUse">
<stop stop-color="#CF6D5A"/>
<stop offset="0.06" stop-color="#CE6E5D"/>
<stop offset="0.1" stop-color="#CB7367"/>
<stop offset="0.15" stop-color="#C67A79"/>
<stop offset="0.19" stop-color="#BF8591"/>
<stop offset="0.23" stop-color="#B693B1"/>
<stop offset="0.27" stop-color="#ABA4D7"/>
<stop offset="0.28" stop-color="#A6ACEA"/>
<stop offset="0.42" stop-color="#A6ACEA"/>
<stop offset="1" stop-color="#AC95B2"/>
</linearGradient>
<linearGradient id="paint14_linear_22_133" x1="205.009" y1="571.352" x2="1027.94" y2="14.1872" gradientUnits="userSpaceOnUse">
<stop stop-color="#CF6F5E"/>
<stop offset="0.06" stop-color="#CE7061"/>
<stop offset="0.1" stop-color="#CA746B"/>
<stop offset="0.15" stop-color="#C57C7D"/>
<stop offset="0.19" stop-color="#BE8795"/>
<stop offset="0.23" stop-color="#B595B5"/>
<stop offset="0.27" stop-color="#AAA5DB"/>
<stop offset="0.28" stop-color="#A6ACEA"/>
<stop offset="0.42" stop-color="#A6ACEA"/>
<stop offset="1" stop-color="#AD93AE"/>
</linearGradient>
<linearGradient id="paint15_linear_22_133" x1="205.827" y1="560.953" x2="1034.66" y2="-0.206329" gradientUnits="userSpaceOnUse">
<stop stop-color="#CE7162"/>
<stop offset="0.06" stop-color="#CD7265"/>
<stop offset="0.11" stop-color="#CA766F"/>
<stop offset="0.15" stop-color="#C57E81"/>
<stop offset="0.19" stop-color="#BE8999"/>
<stop offset="0.23" stop-color="#B596B9"/>
<stop offset="0.27" stop-color="#AAA7DF"/>
<stop offset="0.28" stop-color="#A7ACEB"/>
<stop offset="0.42" stop-color="#A7ACEB"/>
<stop offset="1" stop-color="#AE91AA"/>
</linearGradient>
<linearGradient id="paint16_linear_22_133" x1="206.641" y1="550.549" x2="1041.7" y2="-14.8302" gradientUnits="userSpaceOnUse">
<stop stop-color="#CE7367"/>
<stop offset="0.06" stop-color="#CD746A"/>
<stop offset="0.11" stop-color="#C97974"/>
<stop offset="0.15" stop-color="#C48086"/>
<stop offset="0.2" stop-color="#BD8B9E"/>
<stop offset="0.24" stop-color="#B499BE"/>
<stop offset="0.28" stop-color="#A7ADEB"/>
<stop offset="0.42" stop-color="#A7ADEB"/>
<stop offset="1" stop-color="#B090A6"/>
</linearGradient>
<linearGradient id="paint17_linear_22_133" x1="207.458" y1="540.15" x2="1049.03" y2="-29.6407" gradientUnits="userSpaceOnUse">
<stop stop-color="#CD756B"/>
<stop offset="0.06" stop-color="#CC766E"/>
<stop offset="0.11" stop-color="#C97A78"/>
<stop offset="0.15" stop-color="#C4828A"/>
<stop offset="0.2" stop-color="#BD8DA2"/>
<stop offset="0.24" stop-color="#B39AC2"/>
<stop offset="0.28" stop-color="#A8ADEC"/>
<stop offset="0.42" stop-color="#A8ADEC"/>
<stop offset="1" stop-color="#B18EA3"/>
</linearGradient>
<linearGradient id="paint18_linear_22_133" x1="208.272" y1="529.745" x2="1056.63" y2="-44.6357" gradientUnits="userSpaceOnUse">
<stop stop-color="#CD766F"/>
<stop offset="0.06" stop-color="#CC7772"/>
<stop offset="0.11" stop-color="#C97C7C"/>
<stop offset="0.16" stop-color="#C4838E"/>
<stop offset="0.2" stop-color="#BC8EA6"/>
<stop offset="0.24" stop-color="#B39CC6"/>
<stop offset="0.28" stop-color="#A9ADEC"/>
<stop offset="0.42" stop-color="#A9ADEC"/>
<stop offset="1" stop-color="#B28C9F"/>
</linearGradient>
<linearGradient id="paint19_linear_22_133" x1="209.089" y1="519.346" x2="1064.46" y2="-59.7801" gradientUnits="userSpaceOnUse">
<stop stop-color="#CC7874"/>
<stop offset="0.06" stop-color="#CB7977"/>
<stop offset="0.11" stop-color="#C87E81"/>
<stop offset="0.16" stop-color="#C28593"/>
<stop offset="0.2" stop-color="#BB90AB"/>
<stop offset="0.25" stop-color="#B29ECB"/>
<stop offset="0.28" stop-color="#A9ADED"/>
<stop offset="0.42" stop-color="#A9ADED"/>
<stop offset="1" stop-color="#B38B9B"/>
</linearGradient>
<linearGradient id="paint20_linear_22_133" x1="209.903" y1="508.942" x2="1072.49" y2="-75.073" gradientUnits="userSpaceOnUse">
<stop stop-color="#CC7A78"/>
<stop offset="0.06" stop-color="#CB7B7B"/>
<stop offset="0.11" stop-color="#C87F85"/>
<stop offset="0.16" stop-color="#C28797"/>
<stop offset="0.21" stop-color="#BB92AF"/>
<stop offset="0.25" stop-color="#B29FCF"/>
<stop offset="0.28" stop-color="#AAADED"/>
<stop offset="0.42" stop-color="#AAADED"/>
<stop offset="1" stop-color="#B48997"/>
</linearGradient>
<linearGradient id="paint21_linear_22_133" x1="210.72" y1="498.543" x2="1080.71" y2="-90.4874" gradientUnits="userSpaceOnUse">
<stop stop-color="#CB7C7C"/>
<stop offset="0.06" stop-color="#CA7D7F"/>
<stop offset="0.11" stop-color="#C78189"/>
<stop offset="0.16" stop-color="#C1899B"/>
<stop offset="0.21" stop-color="#BA93B3"/>
<stop offset="0.25" stop-color="#B1A1D3"/>
<stop offset="0.28" stop-color="#AAADEE"/>
<stop offset="0.42" stop-color="#AAADEE"/>
<stop offset="1" stop-color="#B58794"/>
</linearGradient>
<linearGradient id="paint22_linear_22_133" x1="211.534" y1="488.138" x2="1089.1" y2="-106.021" gradientUnits="userSpaceOnUse">
<stop stop-color="#CB7E80"/>
<stop offset="0.06" stop-color="#CA7F83"/>
<stop offset="0.12" stop-color="#C7838D"/>
<stop offset="0.16" stop-color="#C18B9F"/>
<stop offset="0.21" stop-color="#BA95B7"/>
<stop offset="0.26" stop-color="#B1A3D7"/>
<stop offset="0.28" stop-color="#ABADEE"/>
<stop offset="0.42" stop-color="#ABADEE"/>
<stop offset="0.98" stop-color="#B58793"/>
<stop offset="1" stop-color="#B68690"/>
</linearGradient>
<linearGradient id="paint23_linear_22_133" x1="212.352" y1="477.74" x2="1097.65" y2="-121.651" gradientUnits="userSpaceOnUse">
<stop stop-color="#CA7F85"/>
<stop offset="0.06" stop-color="#C98088"/>
<stop offset="0.12" stop-color="#C68592"/>
<stop offset="0.17" stop-color="#C18CA4"/>
<stop offset="0.22" stop-color="#BA97BC"/>
<stop offset="0.26" stop-color="#B1A5DC"/>
<stop offset="0.28" stop-color="#ACAEEF"/>
<stop offset="0.42" stop-color="#ACAEEF"/>
<stop offset="0.95" stop-color="#B68794"/>
<stop offset="1" stop-color="#B7848C"/>
</linearGradient>
<linearGradient id="paint24_linear_22_133" x1="213.165" y1="467.335" x2="1106.33" y2="-137.381" gradientUnits="userSpaceOnUse">
<stop stop-color="#CA8189"/>
<stop offset="0.06" stop-color="#C9828C"/>
<stop offset="0.12" stop-color="#C58796"/>
<stop offset="0.17" stop-color="#C08EA8"/>
<stop offset="0.22" stop-color="#B999C0"/>
<stop offset="0.27" stop-color="#B0A7E0"/>
<stop offset="0.28" stop-color="#ACAEEF"/>
<stop offset="0.42" stop-color="#ACAEEF"/>
<stop offset="0.93" stop-color="#B68794"/>
<stop offset="1" stop-color="#B88288"/>
</linearGradient>
<linearGradient id="paint25_linear_22_133" x1="213.983" y1="456.936" x2="1115.12" y2="-153.183" gradientUnits="userSpaceOnUse">
<stop stop-color="#C9838D"/>
<stop offset="0.07" stop-color="#C88490"/>
<stop offset="0.12" stop-color="#C5889A"/>
<stop offset="0.17" stop-color="#C090AC"/>
<stop offset="0.22" stop-color="#B99BC4"/>
<stop offset="0.27" stop-color="#B0A8E4"/>
<stop offset="0.28" stop-color="#ADAEF0"/>
<stop offset="0.42" stop-color="#ADAEF0"/>
<stop offset="0.91" stop-color="#B78895"/>
<stop offset="1" stop-color="#B98184"/>
</linearGradient>
<linearGradient id="paint26_linear_22_133" x1="214.802" y1="446.528" x2="1124.03" y2="-169.063" gradientUnits="userSpaceOnUse">
<stop stop-color="#C98592"/>
<stop offset="0.07" stop-color="#C88695"/>
<stop offset="0.12" stop-color="#C48A9F"/>
<stop offset="0.18" stop-color="#BF92B1"/>
<stop offset="0.23" stop-color="#B89DC9"/>
<stop offset="0.27" stop-color="#AFABE9"/>
<stop offset="0.28" stop-color="#ADAEF0"/>
<stop offset="0.42" stop-color="#ADAEF0"/>
<stop offset="0.9" stop-color="#B88795"/>
<stop offset="1" stop-color="#BB7F81"/>
</linearGradient>
<linearGradient id="paint27_linear_22_133" x1="215.62" y1="436.128" x2="1133.02" y2="-185" gradientUnits="userSpaceOnUse">
<stop stop-color="#C88796"/>
<stop offset="0.07" stop-color="#C78899"/>
<stop offset="0.13" stop-color="#C48CA3"/>
<stop offset="0.18" stop-color="#BF94B5"/>
<stop offset="0.23" stop-color="#B89ECD"/>
<stop offset="0.28" stop-color="#AEAEF1"/>
<stop offset="0.42" stop-color="#AEAEF1"/>
<stop offset="0.88" stop-color="#B88896"/>
<stop offset="1" stop-color="#BC7E7D"/>
</linearGradient>
<linearGradient id="paint28_linear_22_133" x1="216.434" y1="425.724" x2="1142.11" y2="-201.003" gradientUnits="userSpaceOnUse">
<stop stop-color="#C8899A"/>
<stop offset="0.07" stop-color="#C78A9D"/>
<stop offset="0.13" stop-color="#C38EA7"/>
<stop offset="0.18" stop-color="#BE96B9"/>
<stop offset="0.23" stop-color="#B7A0D1"/>
<stop offset="0.28" stop-color="#AEAEF1"/>
<stop offset="0.42" stop-color="#AEAEF1"/>
<stop offset="0.86" stop-color="#B98896"/>
<stop offset="1" stop-color="#BD7C79"/>
</linearGradient>
<linearGradient id="paint29_linear_22_133" x1="217.251" y1="415.325" x2="1151.27" y2="-217.053" gradientUnits="userSpaceOnUse">
<stop stop-color="#C78A9F"/>
<stop offset="0.07" stop-color="#C68BA2"/>
<stop offset="0.13" stop-color="#C390AC"/>
<stop offset="0.19" stop-color="#BD97BE"/>
<stop offset="0.24" stop-color="#B6A2D6"/>
<stop offset="0.28" stop-color="#AFAFF2"/>
<stop offset="0.42" stop-color="#AFAFF2"/>
<stop offset="0.84" stop-color="#B98897"/>
<stop offset="1" stop-color="#BE7A75"/>
</linearGradient>
<linearGradient id="paint30_linear_22_133" x1="218.065" y1="404.921" x2="1160.49" y2="-233.15" gradientUnits="userSpaceOnUse">
<stop stop-color="#C78CA3"/>
<stop offset="0.07" stop-color="#C68DA6"/>
<stop offset="0.13" stop-color="#C392B0"/>
<stop offset="0.19" stop-color="#BD99C2"/>
<stop offset="0.24" stop-color="#B6A4DA"/>
<stop offset="0.28" stop-color="#B0AFF2"/>
<stop offset="0.42" stop-color="#B0AFF2"/>
<stop offset="0.83" stop-color="#BA8997"/>
<stop offset="1" stop-color="#BF7971"/>
</linearGradient>
<linearGradient id="paint31_linear_22_133" x1="218.882" y1="394.521" x2="1169.78" y2="-249.287" gradientUnits="userSpaceOnUse">
<stop stop-color="#C68EA7"/>
<stop offset="0.07" stop-color="#C58FAA"/>
<stop offset="0.14" stop-color="#C293B4"/>
<stop offset="0.19" stop-color="#BC9BC6"/>
<stop offset="0.25" stop-color="#B5A6DE"/>
<stop offset="0.28" stop-color="#B0AFF3"/>
<stop offset="0.42" stop-color="#B0AFF3"/>
<stop offset="0.82" stop-color="#BA8898"/>
<stop offset="1" stop-color="#C0776E"/>
</linearGradient>
<linearGradient id="paint32_linear_22_133" x1="219.696" y1="384.117" x2="1179.12" y2="-265.465" gradientUnits="userSpaceOnUse">
<stop stop-color="#C690AB"/>
<stop offset="0.08" stop-color="#C591AE"/>
<stop offset="0.14" stop-color="#C295B8"/>
<stop offset="0.2" stop-color="#BC9DCA"/>
<stop offset="0.25" stop-color="#B5A7E2"/>
<stop offset="0.28" stop-color="#B1AFF3"/>
<stop offset="0.42" stop-color="#B1AFF3"/>
<stop offset="0.81" stop-color="#BB8898"/>
<stop offset="1" stop-color="#C1756A"/>
</linearGradient>
<linearGradient id="paint33_linear_22_133" x1="220.513" y1="373.718" x2="1188.51" y2="-281.666" gradientUnits="userSpaceOnUse">
<stop stop-color="#C592B0"/>
<stop offset="0.08" stop-color="#C493B3"/>
<stop offset="0.14" stop-color="#C097BD"/>
<stop offset="0.2" stop-color="#BB9FCF"/>
<stop offset="0.26" stop-color="#B4A9E7"/>
<stop offset="0.28" stop-color="#B1AFF4"/>
<stop offset="0.42" stop-color="#B1AFF4"/>
<stop offset="0.79" stop-color="#BB8999"/>
<stop offset="1" stop-color="#C27466"/>
</linearGradient>
<linearGradient id="paint34_linear_22_133" x1="221.333" y1="363.31" x2="1197.95" y2="-297.906" gradientUnits="userSpaceOnUse">
<stop stop-color="#C593B4"/>
<stop offset="0.08" stop-color="#C494B7"/>
<stop offset="0.15" stop-color="#C098C1"/>
<stop offset="0.21" stop-color="#BBA0D3"/>
<stop offset="0.27" stop-color="#B4ABEB"/>
<stop offset="0.28" stop-color="#B2AFF4"/>
<stop offset="0.42" stop-color="#B2AFF4"/>
<stop offset="0.78" stop-color="#BC8999"/>
<stop offset="1" stop-color="#C37262"/>
</linearGradient>
<linearGradient id="paint35_linear_22_133" x1="222.151" y1="352.91" x2="1207.42" y2="-314.165" gradientUnits="userSpaceOnUse">
<stop stop-color="#C495B8"/>
<stop offset="0.08" stop-color="#C396BB"/>
<stop offset="0.15" stop-color="#C09AC5"/>
<stop offset="0.21" stop-color="#BBA2D7"/>
<stop offset="0.27" stop-color="#B4ACEF"/>
<stop offset="0.28" stop-color="#B3AFF5"/>
<stop offset="0.42" stop-color="#B3AFF5"/>
<stop offset="0.78" stop-color="#BD899A"/>
<stop offset="1" stop-color="#C4705F"/>
</linearGradient>
<linearGradient id="paint36_linear_22_133" x1="222.964" y1="342.506" x2="1216.92" y2="-330.45" gradientUnits="userSpaceOnUse">
<stop stop-color="#C497BD"/>
<stop offset="0.08" stop-color="#C298C0"/>
<stop offset="0.15" stop-color="#BF9DCA"/>
<stop offset="0.22" stop-color="#BAA4DC"/>
<stop offset="0.28" stop-color="#B3B0F5"/>
<stop offset="0.42" stop-color="#B3B0F5"/>
<stop offset="0.77" stop-color="#BE899A"/>
<stop offset="1" stop-color="#C66F5B"/>
</linearGradient>
<linearGradient id="paint37_linear_22_133" x1="223.782" y1="332.107" x2="1226.45" y2="-346.749" gradientUnits="userSpaceOnUse">
<stop stop-color="#C399C1"/>
<stop offset="0.09" stop-color="#C29AC4"/>
<stop offset="0.16" stop-color="#BF9ECE"/>
<stop offset="0.23" stop-color="#BAA6E0"/>
<stop offset="0.28" stop-color="#B4B0F6"/>
<stop offset="0.42" stop-color="#B4B0F6"/>
<stop offset="0.76" stop-color="#BE899B"/>
<stop offset="1" stop-color="#C76D57"/>
</linearGradient>
<linearGradient id="paint38_linear_22_133" x1="224.595" y1="321.703" x2="1236.01" y2="-363.075" gradientUnits="userSpaceOnUse">
<stop stop-color="#C39BC5"/>
<stop offset="0.09" stop-color="#C19CC8"/>
<stop offset="0.16" stop-color="#BEA0D2"/>
<stop offset="0.23" stop-color="#B9A8E4"/>
<stop offset="0.28" stop-color="#B4B0F6"/>
<stop offset="0.42" stop-color="#B4B0F6"/>
<stop offset="0.75" stop-color="#BF899B"/>
<stop offset="1" stop-color="#C86B53"/>
</linearGradient>
<linearGradient id="paint39_linear_22_133" x1="225.413" y1="311.304" x2="1245.59" y2="-379.411" gradientUnits="userSpaceOnUse">
<stop stop-color="#C29CC9"/>
<stop offset="0.09" stop-color="#C19DCC"/>
<stop offset="0.17" stop-color="#BEA1D6"/>
<stop offset="0.24" stop-color="#B9A9E8"/>
<stop offset="0.28" stop-color="#B5B0F7"/>
<stop offset="0.42" stop-color="#B5B0F7"/>
<stop offset="0.74" stop-color="#BF8A9C"/>
<stop offset="1" stop-color="#C96A4F"/>
</linearGradient>
<linearGradient id="paint40_linear_22_133" x1="226.233" y1="300.895" x2="1255.2" y2="-395.765" gradientUnits="userSpaceOnUse">
<stop stop-color="#C29ECE"/>
<stop offset="0.1" stop-color="#C19FD1"/>
<stop offset="0.18" stop-color="#BDA4DB"/>
<stop offset="0.25" stop-color="#B8ABED"/>
<stop offset="0.28" stop-color="#B6B0F7"/>
<stop offset="0.42" stop-color="#B6B0F7"/>
<stop offset="0.73" stop-color="#C0899C"/>
<stop offset="1" stop-color="#CA684C"/>
</linearGradient>
<linearGradient id="paint41_linear_22_133" x1="227.05" y1="290.496" x2="1264.84" y2="-412.138" gradientUnits="userSpaceOnUse">
<stop stop-color="#C1A0D2"/>
<stop offset="0.1" stop-color="#C0A1D5"/>
<stop offset="0.18" stop-color="#BDA5DF"/>
<stop offset="0.26" stop-color="#B7ADF1"/>
<stop offset="0.28" stop-color="#B6B0F8"/>
<stop offset="0.42" stop-color="#B6B0F8"/>
<stop offset="0.72" stop-color="#C08A9D"/>
<stop offset="1" stop-color="#CB6648"/>
</linearGradient>
<linearGradient id="paint42_linear_22_133" x1="227.864" y1="280.092" x2="1274.52" y2="-428.549" gradientUnits="userSpaceOnUse">
<stop stop-color="#C1A2D6"/>
<stop offset="0.1" stop-color="#C0A3D9"/>
<stop offset="0.19" stop-color="#BCA8E3"/>
<stop offset="0.27" stop-color="#B7AFF5"/>
<stop offset="0.28" stop-color="#B7B1F8"/>
<stop offset="0.42" stop-color="#B7B1F8"/>
<stop offset="0.72" stop-color="#C18A9D"/>
<stop offset="1" stop-color="#CC6544"/>
</linearGradient>
<linearGradient id="paint43_linear_22_133" x1="228.681" y1="269.693" x2="1284.25" y2="-444.979" gradientUnits="userSpaceOnUse">
<stop stop-color="#C0A4DB"/>
<stop offset="0.11" stop-color="#BEA5DE"/>
<stop offset="0.2" stop-color="#BBA9E8"/>
<stop offset="0.28" stop-color="#B7B1F9"/>
<stop offset="0.42" stop-color="#B7B1F9"/>
<stop offset="0.71" stop-color="#C18A9E"/>
<stop offset="1" stop-color="#CD6340"/>
</linearGradient>
<linearGradient id="paint44_linear_22_133" x1="229.495" y1="259.288" x2="1294.02" y2="-461.451" gradientUnits="userSpaceOnUse">
<stop stop-color="#C0A5DF"/>
<stop offset="0.12" stop-color="#BEA6E2"/>
<stop offset="0.22" stop-color="#BBABEC"/>
<stop offset="0.28" stop-color="#B8B1F9"/>
<stop offset="0.42" stop-color="#B8B1F9"/>
<stop offset="0.71" stop-color="#C28A9D"/>
<stop offset="1" stop-color="#CE623C"/>
</linearGradient>
<linearGradient id="paint45_linear_22_133" x1="230.318" y1="248.885" x2="1303.84" y2="-477.947" gradientUnits="userSpaceOnUse">
<stop stop-color="#BFA7E3"/>
<stop offset="0.12" stop-color="#BDA8E6"/>
<stop offset="0.23" stop-color="#BAACF0"/>
<stop offset="0.28" stop-color="#B8B1FA"/>
<stop offset="0.42" stop-color="#B8B1FA"/>
<stop offset="0.7" stop-color="#C28A9E"/>
<stop offset="1" stop-color="#CF6039"/>
</linearGradient>
<linearGradient id="paint46_linear_22_133" x1="222.32" y1="244.447" x2="1313.72" y2="-494.488" gradientUnits="userSpaceOnUse">
<stop stop-color="#BFA9E8"/>
<stop offset="0.14" stop-color="#BDAAEB"/>
<stop offset="0.25" stop-color="#BAAFF5"/>
<stop offset="0.28" stop-color="#B9B1FA"/>
<stop offset="0.42" stop-color="#B9B1FA"/>
<stop offset="0.7" stop-color="#C48A9E"/>
<stop offset="1" stop-color="#D15E35"/>
</linearGradient>
<linearGradient id="paint47_linear_22_133" x1="207.576" y1="244.584" x2="1323.67" y2="-511.065" gradientUnits="userSpaceOnUse">
<stop stop-color="#BEABEC"/>
<stop offset="0.15" stop-color="#BDACEF"/>
<stop offset="0.27" stop-color="#BAB0F9"/>
<stop offset="0.28" stop-color="#BAB1FB"/>
<stop offset="0.42" stop-color="#BAB1FB"/>
<stop offset="0.69" stop-color="#C48A9F"/>
<stop offset="1" stop-color="#D25D31"/>
</linearGradient>
<linearGradient id="paint48_linear_22_133" x1="192.834" y1="244.711" x2="1333.66" y2="-527.685" gradientUnits="userSpaceOnUse">
<stop stop-color="#BEADF0"/>
<stop offset="0.17" stop-color="#BCAEF3"/>
<stop offset="0.28" stop-color="#BAB2FB"/>
<stop offset="0.42" stop-color="#BAB2FB"/>
<stop offset="0.68" stop-color="#C58B9F"/>
<stop offset="1" stop-color="#D35B2D"/>
</linearGradient>
<linearGradient id="paint49_linear_22_133" x1="178.09" y1="244.848" x2="1343.72" y2="-544.343" gradientUnits="userSpaceOnUse">
<stop stop-color="#BDAEF4"/>
<stop offset="0.19" stop-color="#BCAFF7"/>
<stop offset="0.28" stop-color="#BBB2FC"/>
<stop offset="0.42" stop-color="#BBB2FC"/>
<stop offset="0.68" stop-color="#C58BA0"/>
<stop offset="1" stop-color="#D4592A"/>
</linearGradient>
<linearGradient id="paint50_linear_22_133" x1="163.342" y1="244.98" x2="1353.85" y2="-561.056" gradientUnits="userSpaceOnUse">
<stop stop-color="#BDB0F9"/>
<stop offset="0.28" stop-color="#BBB2FC"/>
<stop offset="0.42" stop-color="#BBB2FC"/>
<stop offset="0.67" stop-color="#C68BA0"/>
<stop offset="1" stop-color="#D55826"/>
</linearGradient>
<linearGradient id="paint51_linear_22_133" x1="148.598" y1="245.117" x2="1364.06" y2="-577.812" gradientUnits="userSpaceOnUse">
<stop offset="0.42" stop-color="#BCB2FD"/>
<stop offset="0.67" stop-color="#C68BA1"/>
<stop offset="1" stop-color="#D65622"/>
</linearGradient>
<linearGradient id="paint52_linear_22_133" x1="820" y1="322.719" x2="964" y2="322.719" gradientUnits="userSpaceOnUse">
<stop stop-color="#BCB2FD"/>
<stop offset="1" stop-color="#FBEEE9"/>
</linearGradient>
<linearGradient id="paint53_linear_22_133" x1="844" y1="322.719" x2="940" y2="322.719" gradientUnits="userSpaceOnUse">
<stop stop-color="#BCB2FD"/>
<stop offset="1" stop-color="#FBEEE9"/>
</linearGradient>
<linearGradient id="paint54_linear_22_133" x1="844" y1="322.719" x2="940" y2="322.719" gradientUnits="userSpaceOnUse">
<stop stop-color="#BCB2FD"/>
<stop offset="1" stop-color="#FBEEE9"/>
</linearGradient>
<clipPath id="clip0_22_133">
<rect width="1280" height="640" fill="white"/>
</clipPath>
<clipPath id="clip1_22_133">
<rect width="1728" height="1117" fill="white" transform="translate(-224 -238)"/>
</clipPath>
</defs>
</svg>
